Gayathri-Regular.ufo
<glyph name="exclam" format="2">
	<unicode hex="0021"/>
	<advance height="2048" width="340"/>
	<outline>
		<contour>
			<point x="171" y="1381" type="curve" smooth="yes"/>
			<point x="127" y="1381"/>
			<point x="79" y="1349"/>
			<point x="80" y="1310" type="curve" smooth="yes"/>
			<point x="109" y="368" type="line" smooth="yes"/>
			<point x="110" y="332"/>
			<point x="140" y="322"/>
			<point x="169" y="321" type="curve" smooth="yes"/>
			<point x="200" y="321"/>
			<point x="230" y="331"/>
			<point x="231" y="368" type="curve" smooth="yes"/>
			<point x="260" y="1310" type="line" smooth="yes"/>
			<point x="261" y="1350"/>
			<point x="214" y="1381"/>
		</contour>
		<contour>
			<point x="170" y="156" type="curve" smooth="yes"/>
			<point x="220" y="156"/>
			<point x="260" y="116"/>
			<point x="260" y="66" type="curve" smooth="yes"/>
			<point x="260" y="16"/>
			<point x="220" y="-24"/>
			<point x="170" y="-24" type="curve" smooth="yes"/>
			<point x="120" y="-24"/>
			<point x="80" y="16"/>
			<point x="80" y="66" type="curve" smooth="yes"/>
			<point x="80" y="116"/>
			<point x="120" y="156"/>
		</contour>
	</outline>
</glyph>
<glyph name="numbersign" format="2">
	<unicode hex="0023"/>
	<advance height="2048" width="1349"/>
	<outline>
		<contour>
			<point x="816" y="12" type="curve" smooth="yes"/>
			<point x="887" y="387" type="line"/>
			<point x="1099" y="387" type="line" smooth="yes"/>
			<point x="1144" y="387"/>
			<point x="1181" y="407"/>
			<point x="1181" y="432" type="curve" smooth="yes"/>
			<point x="1181" y="457"/>
			<point x="1144" y="478"/>
			<point x="1099" y="478" type="curve" smooth="yes"/>
			<point x="904" y="478" type="line"/>
			<point x="978" y="868" type="line"/>
			<point x="1168" y="868" type="line" smooth="yes"/>
			<point x="1213" y="868"/>
			<point x="1249" y="889"/>
			<point x="1249" y="914" type="curve" smooth="yes"/>
			<point x="1249" y="939"/>
			<point x="1213" y="960"/>
			<point x="1168" y="960" type="curve" smooth="yes"/>
			<point x="995" y="960" type="line"/>
			<point x="1066" y="1333" type="line"/>
			<point x="1067" y="1337"/>
			<point x="1068" y="1342"/>
			<point x="1068" y="1346" type="curve" smooth="yes"/>
			<point x="1068" y="1367"/>
			<point x="1033" y="1381"/>
			<point x="998" y="1381" type="curve" smooth="yes"/>
			<point x="964" y="1381"/>
			<point x="930" y="1370"/>
			<point x="925" y="1345" type="curve" smooth="yes"/>
			<point x="852" y="960" type="line"/>
			<point x="590" y="960" type="line"/>
			<point x="659" y="1333" type="line" smooth="yes"/>
			<point x="660" y="1338"/>
			<point x="661" y="1343"/>
			<point x="661" y="1347" type="curve" smooth="yes"/>
			<point x="661" y="1371"/>
			<point x="630" y="1381"/>
			<point x="598" y="1381" type="curve" smooth="yes"/>
			<point x="562" y="1381"/>
			<point x="523" y="1369"/>
			<point x="519" y="1345" type="curve" smooth="yes"/>
			<point x="446" y="960" type="line"/>
			<point x="250" y="960" type="line" smooth="yes"/>
			<point x="205" y="960"/>
			<point x="168" y="939"/>
			<point x="168" y="914" type="curve" smooth="yes"/>
			<point x="168" y="889"/>
			<point x="205" y="868"/>
			<point x="250" y="868" type="curve" smooth="yes"/>
			<point x="429" y="868" type="line"/>
			<point x="355" y="478" type="line"/>
			<point x="181" y="478" type="line" smooth="yes"/>
			<point x="136" y="478"/>
			<point x="100" y="457"/>
			<point x="100" y="432" type="curve" smooth="yes"/>
			<point x="100" y="407"/>
			<point x="136" y="387"/>
			<point x="181" y="387" type="curve" smooth="yes"/>
			<point x="337" y="387" type="line"/>
			<point x="270" y="31" type="line"/>
			<point x="269" y="27"/>
			<point x="268" y="17"/>
			<point x="267" y="14" type="curve"/>
			<point x="265" y="-17"/>
			<point x="305" y="-24"/>
			<point x="333" y="-24" type="curve" smooth="yes"/>
			<point x="368" y="-24"/>
			<point x="405" y="-12"/>
			<point x="410" y="12" type="curve" smooth="yes"/>
			<point x="481" y="387" type="line"/>
			<point x="743" y="387" type="line"/>
			<point x="676" y="31" type="line" smooth="yes"/>
			<point x="675" y="26"/>
			<point x="673" y="15"/>
			<point x="673" y="11" type="curve" smooth="yes"/>
			<point x="673" y="-11"/>
			<point x="711" y="-24"/>
			<point x="745" y="-24" type="curve" smooth="yes"/>
			<point x="778" y="-24"/>
			<point x="811" y="-13"/>
		</contour>
		<contour>
			<point x="760" y="478" type="line"/>
			<point x="498" y="478" type="line"/>
			<point x="572" y="868" type="line"/>
			<point x="835" y="868" type="line"/>
		</contour>
	</outline>
</glyph>
<glyph name="dollar" format="2">
	<unicode hex="0024"/>
	<advance height="2048" width="1142"/>
	<outline>
		<contour>
			<point x="302" y="1012" type="curve" smooth="yes"/>
			<point x="300" y="960"/>
			<point x="320" y="906"/>
			<point x="368" y="864" type="curve" smooth="yes"/>
			<point x="404" y="833"/>
			<point x="454" y="807"/>
			<point x="521" y="789" type="curve"/>
			<point x="521" y="1276" type="line"/>
			<point x="477" y="1265"/>
			<point x="433" y="1243"/>
			<point x="397" y="1212" type="curve" smooth="yes"/>
			<point x="338" y="1161"/>
			<point x="304" y="1090"/>
		</contour>
		<contour>
			<point x="621" y="769" type="line"/>
			<point x="756" y="750"/>
			<point x="853" y="705"/>
			<point x="920" y="646" type="curve" smooth="yes"/>
			<point x="998" y="577"/>
			<point x="1041" y="482"/>
			<point x="1042" y="378" type="curve" smooth="yes"/>
			<point x="1042" y="278"/>
			<point x="999" y="181"/>
			<point x="930" y="110" type="curve" smooth="yes"/>
			<point x="849" y="25"/>
			<point x="738" y="-21"/>
			<point x="621" y="-29" type="curve"/>
			<point x="621" y="-194" type="line" smooth="yes"/>
			<point x="621" y="-208"/>
			<point x="599" y="-219"/>
			<point x="571" y="-219" type="curve" smooth="yes"/>
			<point x="543" y="-219"/>
			<point x="521" y="-208"/>
			<point x="521" y="-194" type="curve" smooth="yes"/>
			<point x="521" y="-27" type="line"/>
			<point x="429" y="-18"/>
			<point x="340" y="14"/>
			<point x="266" y="73" type="curve" smooth="yes"/>
			<point x="188" y="134"/>
			<point x="128" y="227"/>
			<point x="101" y="357" type="curve" smooth="yes"/>
			<point x="93" y="391"/>
			<point x="148" y="406"/>
			<point x="172" y="408" type="curve" smooth="yes"/>
			<point x="200" y="409"/>
			<point x="255" y="400"/>
			<point x="262" y="367" type="curve" smooth="yes"/>
			<point x="286" y="254"/>
			<point x="336" y="175"/>
			<point x="399" y="125" type="curve" smooth="yes"/>
			<point x="436" y="95"/>
			<point x="478" y="76"/>
			<point x="521" y="67" type="curve"/>
			<point x="521" y="622" type="line"/>
			<point x="407" y="646"/>
			<point x="322" y="689"/>
			<point x="262" y="742" type="curve" smooth="yes"/>
			<point x="181" y="812"/>
			<point x="133" y="915"/>
			<point x="140" y="1023" type="curve" smooth="yes"/>
			<point x="146" y="1117"/>
			<point x="189" y="1199"/>
			<point x="260" y="1261" type="curve" smooth="yes"/>
			<point x="330" y="1322"/>
			<point x="423" y="1360"/>
			<point x="521" y="1371" type="curve"/>
			<point x="521" y="1455" type="line" smooth="yes"/>
			<point x="521" y="1469"/>
			<point x="543" y="1480"/>
			<point x="571" y="1480" type="curve" smooth="yes"/>
			<point x="599" y="1480"/>
			<point x="621" y="1469"/>
			<point x="621" y="1455" type="curve" smooth="yes"/>
			<point x="621" y="1373" type="line"/>
			<point x="715" y="1367"/>
			<point x="806" y="1335"/>
			<point x="877" y="1275" type="curve" smooth="yes"/>
			<point x="941" y="1220"/>
			<point x="991" y="1141"/>
			<point x="1011" y="1033" type="curve" smooth="yes"/>
			<point x="1018" y="999"/>
			<point x="963" y="985"/>
			<point x="939" y="983" type="curve" smooth="yes"/>
			<point x="911" y="982"/>
			<point x="856" y="991"/>
			<point x="849" y="1024" type="curve" smooth="yes"/>
			<point x="832" y="1115"/>
			<point x="792" y="1181"/>
			<point x="741" y="1225" type="curve" smooth="yes"/>
			<point x="705" y="1256"/>
			<point x="663" y="1274"/>
			<point x="621" y="1281" type="curve"/>
		</contour>
		<contour>
			<point x="621" y="64" type="line"/>
			<point x="686" y="73"/>
			<point x="743" y="106"/>
			<point x="787" y="153" type="curve" smooth="yes"/>
			<point x="845" y="214"/>
			<point x="879" y="294"/>
			<point x="880" y="374" type="curve" smooth="yes"/>
			<point x="880" y="429"/>
			<point x="860" y="483"/>
			<point x="813" y="524" type="curve" smooth="yes"/>
			<point x="772" y="561"/>
			<point x="710" y="589"/>
			<point x="621" y="605" type="curve"/>
		</contour>
	</outline>
</glyph>
<glyph name="percent" format="2">
  <advance height="2048" width="1684.0"/>
  <unicode hex="0025"/>
  <outline>
    <contour>
      <point x="428.0" y="659.0" type="curve" smooth="yes"/>
      <point x="647.0" y="659.0"/>
      <point x="756.0" y="837.0"/>
      <point x="756.0" y="1018.0" type="curve" smooth="yes"/>
      <point x="756.0" y="1199.0"/>
      <point x="647.0" y="1381.0"/>
      <point x="428.0" y="1381.0" type="curve" smooth="yes"/>
      <point x="208.0" y="1381.0"/>
      <point x="99.0" y="1203.0"/>
      <point x="100.0" y="1022.0" type="curve" smooth="yes"/>
      <point x="100.0" y="841.0"/>
      <point x="209.0" y="659.0"/>
    </contour>
    <contour>
      <point x="533.0" y="0.0" type="curve" smooth="yes"/>
      <point x="1261.0" y="1330.0" type="line"/>
      <point x="1263.0" y="1335.0"/>
      <point x="1268.0" y="1342.0"/>
      <point x="1268.0" y="1348.0" type="curve" smooth="yes"/>
      <point x="1268.0" y="1369.0"/>
      <point x="1238.0" y="1381.0"/>
      <point x="1209.0" y="1381.0" type="curve" smooth="yes"/>
      <point x="1185.0" y="1381.0"/>
      <point x="1160.0" y="1373.0"/>
      <point x="1151.0" y="1357.0" type="curve" smooth="yes"/>
      <point x="423.0" y="26.0" type="line"/>
      <point x="420.0" y="22.0"/>
      <point x="416.0" y="14.0"/>
      <point x="416.0" y="9.0" type="curve" smooth="yes"/>
      <point x="416.0" y="-12.0"/>
      <point x="446.0" y="-24.0"/>
      <point x="477.0" y="-24.0" type="curve" smooth="yes"/>
      <point x="500.0" y="-24.0"/>
      <point x="524.0" y="-16.0"/>
    </contour>
    <contour>
      <point x="428.0" y="748.0" type="curve" smooth="yes"/>
      <point x="318.0" y="748.0"/>
      <point x="263.0" y="884.0"/>
      <point x="263.0" y="1020.0" type="curve" smooth="yes"/>
      <point x="262.0" y="1156.0"/>
      <point x="318.0" y="1291.0"/>
      <point x="428.0" y="1291.0" type="curve" smooth="yes"/>
      <point x="538.0" y="1291.0"/>
      <point x="593.0" y="1156.0"/>
      <point x="593.0" y="1020.0" type="curve" smooth="yes"/>
      <point x="593.0" y="885.0"/>
      <point x="537.0" y="748.0"/>
    </contour>
    <contour>
      <point x="1256.0" y="-24.0" type="curve" smooth="yes"/>
      <point x="1476.0" y="-24.0"/>
      <point x="1584.0" y="156.0"/>
      <point x="1584.0" y="337.0" type="curve" smooth="yes"/>
      <point x="1584.0" y="518.0"/>
      <point x="1475.0" y="698.0"/>
      <point x="1256.0" y="698.0" type="curve" smooth="yes"/>
      <point x="1037.0" y="698.0"/>
      <point x="928.0" y="521.0"/>
      <point x="928.0" y="339.0" type="curve" smooth="yes"/>
      <point x="928.0" y="157.0"/>
      <point x="1036.0" y="-24.0"/>
    </contour>
    <contour>
      <point x="1256.0" y="66.0" type="curve" smooth="yes"/>
      <point x="1146.0" y="66.0"/>
      <point x="1091.0" y="201.0"/>
      <point x="1091.0" y="337.0" type="curve" smooth="yes"/>
      <point x="1091.0" y="473.0"/>
      <point x="1146.0" y="609.0"/>
      <point x="1256.0" y="609.0" type="curve" smooth="yes"/>
      <point x="1366.0" y="609.0"/>
      <point x="1421.0" y="473.0"/>
      <point x="1421.0" y="337.0" type="curve" smooth="yes"/>
      <point x="1421.0" y="201.0"/>
      <point x="1366.0" y="66.0"/>
    </contour>
  </outline>
</glyph>
<glyph name="ampersand" format="2">
	<unicode hex="0026"/>
	<advance height="2048" width="1316"/>
	<outline>
		<contour>
			<point x="948" y="639" type="curve" smooth="yes"/>
			<point x="948" y="664"/>
			<point x="985" y="684"/>
			<point x="1030" y="684" type="curve" smooth="yes"/>
			<point x="1074" y="683"/>
			<point x="1111" y="663"/>
			<point x="1110" y="638" type="curve" smooth="yes"/>
			<point x="1108" y="511"/>
			<point x="1072" y="384"/>
			<point x="1008" y="275" type="curve"/>
			<point x="1123" y="140"/>
			<point x="1207" y="42"/>
			<point x="1208" y="41" type="curve"/>
			<point x="1213" y="35"/>
			<point x="1216" y="28"/>
			<point x="1216" y="22" type="curve" smooth="yes"/>
			<point x="1216" y="5"/>
			<point x="1199" y="-12"/>
			<point x="1170" y="-19" type="curve"/>
			<point x="1159" y="-23"/>
			<point x="1147" y="-24"/>
			<point x="1135" y="-24" type="curve" smooth="yes"/>
			<point x="1105" y="-24"/>
			<point x="1076" y="-15"/>
			<point x="1061" y="2" type="curve"/>
			<point x="1061" y="2"/>
			<point x="1006" y="66"/>
			<point x="924" y="162" type="curve"/>
			<point x="816" y="46"/>
			<point x="668" y="-27"/>
			<point x="497" y="-24" type="curve" smooth="yes"/>
			<point x="291" y="-21"/>
			<point x="102" y="107"/>
			<point x="100" y="317" type="curve" smooth="yes"/>
			<point x="98" y="533"/>
			<point x="259" y="653"/>
			<point x="428" y="753" type="curve"/>
			<point x="346" y="853"/>
			<point x="219" y="986"/>
			<point x="219" y="1119" type="curve" smooth="yes"/>
			<point x="219" y="1296"/>
			<point x="410" y="1381"/>
			<point x="563" y="1381" type="curve" smooth="yes"/>
			<point x="732" y="1381"/>
			<point x="900" y="1292"/>
			<point x="900" y="1104" type="curve" smooth="yes"/>
			<point x="900" y="930"/>
			<point x="756" y="817"/>
			<point x="621" y="735" type="curve"/>
			<point x="708" y="629"/>
			<point x="809" y="510"/>
			<point x="901" y="400" type="curve"/>
			<point x="931" y="476"/>
			<point x="947" y="557"/>
		</contour>
		<contour>
			<point x="832" y="270" type="curve"/>
			<point x="730" y="390"/>
			<point x="608" y="534"/>
			<point x="501" y="663" type="curve"/>
			<point x="374" y="584"/>
			<point x="260" y="481"/>
			<point x="263" y="320" type="curve" smooth="yes"/>
			<point x="266" y="187"/>
			<point x="360" y="69"/>
			<point x="501" y="67" type="curve" smooth="yes"/>
			<point x="639" y="65"/>
			<point x="757" y="161"/>
		</contour>
		<contour>
			<point x="547" y="826" type="curve"/>
			<point x="646" y="889"/>
			<point x="737" y="980"/>
			<point x="737" y="1104" type="curve" smooth="yes"/>
			<point x="737" y="1208"/>
			<point x="670" y="1290"/>
			<point x="563" y="1290" type="curve" smooth="yes"/>
			<point x="467" y="1290"/>
			<point x="382" y="1218"/>
			<point x="382" y="1119" type="curve" smooth="yes"/>
			<point x="382" y="1013"/>
			<point x="482" y="906"/>
		</contour>
	</outline>
</glyph>
<glyph name="quotesingle" format="2">
	<unicode hex="0027"/>
	<advance height="2048" width="380"/>
	<outline>
		<contour>
			<point x="191" y="1402" type="curve" smooth="yes"/>
			<point x="148" y="1402"/>
			<point x="100" y="1371"/>
			<point x="100" y="1335" type="curve" smooth="yes"/>
			<point x="100" y="1334"/>
			<point x="100" y="1332"/>
			<point x="100" y="1331" type="curve"/>
			<point x="129" y="927" type="line" smooth="yes"/>
			<point x="132" y="891"/>
			<point x="160" y="881"/>
			<point x="189" y="880" type="curve" smooth="yes"/>
			<point x="220" y="880"/>
			<point x="248" y="890"/>
			<point x="251" y="927" type="curve" smooth="yes"/>
			<point x="280" y="1331" type="line"/>
			<point x="280" y="1333"/>
			<point x="280" y="1334"/>
			<point x="280" y="1336" type="curve" smooth="yes"/>
			<point x="279" y="1373"/>
			<point x="232" y="1402"/>
		</contour>
	</outline>
</glyph>
<glyph name="parenleft" format="2">
	<unicode hex="0028"/>
	<advance height="2048" width="679"/>
	<outline>
		<contour>
			<point x="569" y="-313" type="curve" smooth="yes"/>
			<point x="576" y="-320"/>
			<point x="579" y="-327"/>
			<point x="579" y="-334" type="curve" smooth="yes"/>
			<point x="579" y="-351"/>
			<point x="563" y="-366"/>
			<point x="536" y="-375" type="curve"/>
			<point x="524" y="-378"/>
			<point x="511" y="-380"/>
			<point x="498" y="-380" type="curve" smooth="yes"/>
			<point x="469" y="-380"/>
			<point x="441" y="-371"/>
			<point x="426" y="-356" type="curve" smooth="yes"/>
			<point x="213" y="-132"/>
			<point x="100" y="190"/>
			<point x="100" y="514" type="curve" smooth="yes"/>
			<point x="100" y="825"/>
			<point x="204" y="1140"/>
			<point x="426" y="1376" type="curve" smooth="yes"/>
			<point x="440" y="1391"/>
			<point x="469" y="1400"/>
			<point x="498" y="1400" type="curve" smooth="yes"/>
			<point x="511" y="1400"/>
			<point x="524" y="1398"/>
			<point x="536" y="1395" type="curve" smooth="yes"/>
			<point x="563" y="1387"/>
			<point x="579" y="1371"/>
			<point x="579" y="1354" type="curve" smooth="yes"/>
			<point x="579" y="1347"/>
			<point x="576" y="1340"/>
			<point x="570" y="1333" type="curve" smooth="yes"/>
			<point x="361" y="1112"/>
			<point x="263" y="812"/>
			<point x="263" y="514" type="curve" smooth="yes"/>
			<point x="263" y="203"/>
			<point x="370" y="-103"/>
		</contour>
	</outline>
</glyph>
<glyph name="asterisk" format="2">
	<unicode hex="002A"/>
	<advance height="2048" width="639"/>
	<outline>
		<contour>
			<point x="274" y="798" type="line"/>
			<point x="287" y="992" type="line" smooth="yes"/>
			<point x="288" y="1010"/>
			<point x="303" y="1016"/>
			<point x="319" y="1016" type="curve" smooth="yes"/>
			<point x="335" y="1016"/>
			<point x="350" y="1011"/>
			<point x="351" y="992" type="curve" smooth="yes"/>
			<point x="365" y="799" type="line"/>
			<point x="553" y="846" type="line"/>
			<point x="555" y="846"/>
			<point x="558" y="846"/>
			<point x="560" y="846" type="curve"/>
			<point x="574" y="847"/>
			<point x="582" y="836"/>
			<point x="586" y="823" type="curve"/>
			<point x="588" y="818"/>
			<point x="589" y="812"/>
			<point x="589" y="808" type="curve" smooth="yes"/>
			<point x="589" y="798"/>
			<point x="585" y="789"/>
			<point x="573" y="784" type="curve" smooth="yes"/>
			<point x="394" y="712" type="line"/>
			<point x="496" y="548" type="line" smooth="yes"/>
			<point x="499" y="543"/>
			<point x="501" y="538"/>
			<point x="501" y="534" type="curve" smooth="yes"/>
			<point x="501" y="524"/>
			<point x="494" y="516"/>
			<point x="485" y="509" type="curve" smooth="yes"/>
			<point x="478" y="504"/>
			<point x="471" y="500"/>
			<point x="463" y="500" type="curve" smooth="yes"/>
			<point x="457" y="500"/>
			<point x="450" y="503"/>
			<point x="444" y="510" type="curve" smooth="yes"/>
			<point x="320" y="658" type="line"/>
			<point x="195" y="509" type="line" smooth="yes"/>
			<point x="190" y="503"/>
			<point x="184" y="500"/>
			<point x="178" y="500" type="curve" smooth="yes"/>
			<point x="170" y="500"/>
			<point x="162" y="503"/>
			<point x="155" y="508" type="curve" smooth="yes"/>
			<point x="146" y="515"/>
			<point x="139" y="523"/>
			<point x="139" y="534" type="curve" smooth="yes"/>
			<point x="139" y="538"/>
			<point x="140" y="542"/>
			<point x="143" y="547" type="curve" smooth="yes"/>
			<point x="246" y="711" type="line"/>
			<point x="66" y="784" type="line" smooth="yes"/>
			<point x="54" y="789"/>
			<point x="50" y="797"/>
			<point x="50" y="807" type="curve" smooth="yes"/>
			<point x="50" y="812"/>
			<point x="51" y="817"/>
			<point x="53" y="822" type="curve"/>
			<point x="57" y="837"/>
			<point x="67" y="850"/>
			<point x="86" y="845" type="curve" smooth="yes"/>
		</contour>
	</outline>
</glyph>
<glyph name="plus" format="2">
	<unicode hex="002B"/>
	<advance height="2048" width="1050"/>
	<outline>
		<contour>
			<point x="182" y="379" type="curve" smooth="yes"/>
			<point x="444" y="379" type="line"/>
			<point x="444" y="45" type="line" smooth="yes"/>
			<point x="444" y="20"/>
			<point x="480" y="0"/>
			<point x="525" y="0" type="curve" smooth="yes"/>
			<point x="570" y="0"/>
			<point x="606" y="20"/>
			<point x="606" y="45" type="curve" smooth="yes"/>
			<point x="606" y="379" type="line"/>
			<point x="868" y="379" type="line" smooth="yes"/>
			<point x="914" y="379"/>
			<point x="950" y="400"/>
			<point x="950" y="425" type="curve" smooth="yes"/>
			<point x="950" y="450"/>
			<point x="914" y="471"/>
			<point x="868" y="471" type="curve" smooth="yes"/>
			<point x="606" y="471" type="line"/>
			<point x="606" y="804" type="line" smooth="yes"/>
			<point x="606" y="830"/>
			<point x="570" y="850"/>
			<point x="525" y="850" type="curve" smooth="yes"/>
			<point x="480" y="850"/>
			<point x="444" y="830"/>
			<point x="444" y="804" type="curve" smooth="yes"/>
			<point x="444" y="471" type="line"/>
			<point x="182" y="471" type="line" smooth="yes"/>
			<point x="136" y="471"/>
			<point x="100" y="450"/>
			<point x="100" y="425" type="curve" smooth="yes"/>
			<point x="100" y="400"/>
			<point x="136" y="379"/>
		</contour>
	</outline>
</glyph>
<glyph name="comma" format="2">
  <advance height="2048" width="354.0"/>
  <unicode hex="002C"/>
  <outline>
    <contour>
      <point x="239.0" y="-80.0" type="curve" smooth="yes"/>
      <point x="261.0" y="-46.0"/>
      <point x="274.0" y="-3.0"/>
      <point x="274.0" y="38.0" type="curve" smooth="yes"/>
      <point x="274.0" y="70.0"/>
      <point x="265.0" y="101.0"/>
      <point x="243.0" y="124.0" type="curve" smooth="yes"/>
      <point x="226.0" y="142.0"/>
      <point x="201.0" y="154.0"/>
      <point x="170.0" y="154.0" type="curve" smooth="yes"/>
      <point x="120.0" y="154.0"/>
      <point x="80.0" y="114.0"/>
      <point x="80.0" y="64.0" type="curve" smooth="yes"/>
      <point x="80.0" y="14.0"/>
      <point x="120.0" y="-26.0"/>
      <point x="170.0" y="-26.0" type="curve" smooth="yes"/>
      <point x="175.0" y="-26.0"/>
      <point x="180.0" y="-26.0"/>
      <point x="185.0" y="-25.0" type="curve"/>
      <point x="183.0" y="-46.0"/>
      <point x="176.0" y="-67.0"/>
      <point x="165.0" y="-85.0" type="curve" smooth="yes"/>
      <point x="152.0" y="-108.0"/>
      <point x="131.0" y="-127.0"/>
      <point x="106.0" y="-137.0" type="curve" smooth="yes"/>
      <point x="99.0" y="-140.0"/>
      <point x="97.0" y="-143.0"/>
      <point x="97.0" y="-146.0" type="curve" smooth="yes"/>
      <point x="97.0" y="-155.0"/>
      <point x="107.0" y="-158.0"/>
      <point x="119.0" y="-158.0" type="curve" smooth="yes"/>
      <point x="141.0" y="-158.0"/>
      <point x="161.0" y="-152.0"/>
      <point x="179.0" y="-141.0" type="curve" smooth="yes"/>
      <point x="203.0" y="-127.0"/>
      <point x="223.0" y="-104.0"/>
    </contour>
  </outline>
</glyph>
<glyph name="hyphen" format="2">
	<unicode hex="002D"/>
	<advance height="2048" width="813"/>
	<outline>
		<contour>
			<point x="182" y="450" type="curve" smooth="yes"/>
			<point x="632" y="450" type="line" smooth="yes"/>
			<point x="677" y="450"/>
			<point x="713" y="470"/>
			<point x="713" y="495" type="curve" smooth="yes"/>
			<point x="713" y="521"/>
			<point x="677" y="541"/>
			<point x="632" y="541" type="curve" smooth="yes"/>
			<point x="182" y="541" type="line" smooth="yes"/>
			<point x="136" y="541"/>
			<point x="100" y="521"/>
			<point x="100" y="495" type="curve" smooth="yes"/>
			<point x="100" y="470"/>
			<point x="136" y="450"/>
		</contour>
	</outline>
</glyph>
<glyph name="period" format="2">
	<unicode hex="002E"/>
	<advance height="2048" width="415"/>
	<outline>
		<contour>
			<point x="207" y="215" type="curve" smooth="yes"/>
			<point x="148" y="215"/>
			<point x="100" y="167"/>
			<point x="100" y="108" type="curve" smooth="yes"/>
			<point x="100" y="48"/>
			<point x="148" y="0"/>
			<point x="207" y="0" type="curve" smooth="yes"/>
			<point x="267" y="0"/>
			<point x="315" y="48"/>
			<point x="315" y="108" type="curve" smooth="yes"/>
			<point x="315" y="167"/>
			<point x="267" y="215"/>
		</contour>
	</outline>
</glyph>
<glyph name="slash" format="2">
	<unicode hex="002F"/>
	<advance height="2048" width="848"/>
	<outline>
		<contour>
			<point x="219" y="0" type="line" smooth="yes"/>
			<point x="213" y="-14"/>
			<point x="189" y="-24"/>
			<point x="161" y="-24" type="curve" smooth="yes"/>
			<point x="157" y="-24"/>
			<point x="153" y="-24"/>
			<point x="149" y="-23" type="curve"/>
			<point x="120" y="-21"/>
			<point x="100" y="-8"/>
			<point x="100" y="6" type="curve" smooth="yes"/>
			<point x="100" y="8"/>
			<point x="101" y="10"/>
			<point x="101" y="12" type="curve"/>
			<point x="629" y="1357" type="line" smooth="yes"/>
			<point x="635" y="1371"/>
			<point x="660" y="1381"/>
			<point x="689" y="1381" type="curve" smooth="yes"/>
			<point x="692" y="1381"/>
			<point x="696" y="1381"/>
			<point x="699" y="1380" type="curve"/>
			<point x="728" y="1378"/>
			<point x="748" y="1365"/>
			<point x="748" y="1351" type="curve" smooth="yes"/>
			<point x="748" y="1349"/>
			<point x="747" y="1347"/>
			<point x="747" y="1345" type="curve"/>
		</contour>
	</outline>
</glyph>
<glyph name="zero" format="2">
  <advance height="2048" width="1128.0"/>
  <unicode hex="0030"/>
  <outline>
    <contour>
      <point x="564.0" y="-24.0" type="curve" smooth="yes"/>
      <point x="887.0" y="-24.0"/>
      <point x="1048.0" y="327.0"/>
      <point x="1048.0" y="678.0" type="curve" smooth="yes"/>
      <point x="1048.0" y="1030.0"/>
      <point x="887.0" y="1381.0"/>
      <point x="564.0" y="1381.0" type="curve" smooth="yes"/>
      <point x="241.0" y="1381.0"/>
      <point x="80.0" y="1029.0"/>
      <point x="80.0" y="678.0" type="curve" smooth="yes"/>
      <point x="80.0" y="327.0"/>
      <point x="241.0" y="-24.0"/>
    </contour>
    <contour>
      <point x="564.0" y="1290.0" type="curve" smooth="yes"/>
      <point x="774.0" y="1290.0"/>
      <point x="879.0" y="984.0"/>
      <point x="879.0" y="678.0" type="curve" smooth="yes"/>
      <point x="879.0" y="373.0"/>
      <point x="774.0" y="67.0"/>
      <point x="564.0" y="67.0" type="curve" smooth="yes"/>
      <point x="354.0" y="67.0"/>
      <point x="249.0" y="373.0"/>
      <point x="249.0" y="678.0" type="curve" smooth="yes"/>
      <point x="249.0" y="984.0"/>
      <point x="354.0" y="1290.0"/>
    </contour>
  </outline>
</glyph>
<glyph name="one" format="2">
	<unicode hex="0031"/>
	<advance height="2048" width="617"/>
	<outline>
		<contour>
			<point x="435" y="-24" type="curve" smooth="yes"/>
			<point x="481" y="-24"/>
			<point x="517" y="-3"/>
			<point x="517" y="23" type="curve" smooth="yes"/>
			<point x="517" y="1335" type="line" smooth="yes"/>
			<point x="517" y="1360"/>
			<point x="481" y="1381"/>
			<point x="435" y="1381" type="curve" smooth="yes"/>
			<point x="407" y="1381"/>
			<point x="357" y="1369"/>
			<point x="352" y="1334" type="curve" smooth="yes"/>
			<point x="340" y="1245"/>
			<point x="306" y="1177"/>
			<point x="261" y="1128" type="curve" smooth="yes"/>
			<point x="215" y="1077"/>
			<point x="160" y="1049"/>
			<point x="111" y="1042" type="curve" smooth="yes"/>
			<point x="89" y="1039"/>
			<point x="50" y="1024"/>
			<point x="50" y="997" type="curve" smooth="yes"/>
			<point x="50" y="964"/>
			<point x="102" y="953"/>
			<point x="135" y="953" type="curve" smooth="yes"/>
			<point x="223" y="953"/>
			<point x="296" y="990"/>
			<point x="354" y="1039" type="curve"/>
			<point x="354" y="23" type="line" smooth="yes"/>
			<point x="354" y="-3"/>
			<point x="390" y="-24"/>
		</contour>
	</outline>
</glyph>
<glyph name="two" format="2">
	<unicode hex="0032"/>
	<advance height="2048" width="1119"/>
	<outline>
		<contour>
			<point x="271" y="967" type="curve" smooth="yes"/>
			<point x="275" y="942"/>
			<point x="242" y="920"/>
			<point x="197" y="918" type="curve" smooth="yes"/>
			<point x="153" y="916"/>
			<point x="113" y="934"/>
			<point x="110" y="959" type="curve" smooth="yes"/>
			<point x="88" y="1097"/>
			<point x="183" y="1254"/>
			<point x="303" y="1320" type="curve" smooth="yes"/>
			<point x="382" y="1364"/>
			<point x="472" y="1381"/>
			<point x="566" y="1381" type="curve" smooth="yes"/>
			<point x="778" y="1381"/>
			<point x="982" y="1260"/>
			<point x="1015" y="1038" type="curve" smooth="yes"/>
			<point x="1057" y="748"/>
			<point x="771" y="605"/>
			<point x="547" y="494" type="curve" smooth="yes"/>
			<point x="462" y="452"/>
			<point x="371" y="413"/>
			<point x="321" y="328" type="curve" smooth="yes"/>
			<point x="289" y="274"/>
			<point x="268" y="200"/>
			<point x="264" y="91" type="curve"/>
			<point x="931" y="91" type="line" smooth="yes"/>
			<point x="976" y="91"/>
			<point x="1012" y="70"/>
			<point x="1012" y="45" type="curve" smooth="yes"/>
			<point x="1012" y="20"/>
			<point x="976" y="0"/>
			<point x="931" y="0" type="curve" smooth="yes"/>
			<point x="182" y="0" type="line" smooth="yes"/>
			<point x="136" y="0"/>
			<point x="100" y="20"/>
			<point x="100" y="45" type="curve" smooth="yes"/>
			<point x="100" y="189"/>
			<point x="124" y="286"/>
			<point x="167" y="357" type="curve" smooth="yes"/>
			<point x="230" y="464"/>
			<point x="333" y="510"/>
			<point x="439" y="562" type="curve" smooth="yes"/>
			<point x="636" y="660"/>
			<point x="888" y="785"/>
			<point x="852" y="1031" type="curve" smooth="yes"/>
			<point x="831" y="1175"/>
			<point x="715" y="1290"/>
			<point x="566" y="1290" type="curve" smooth="yes"/>
			<point x="494" y="1290"/>
			<point x="433" y="1272"/>
			<point x="382" y="1231" type="curve" smooth="yes"/>
			<point x="311" y="1177"/>
			<point x="258" y="1052"/>
		</contour>
	</outline>
</glyph>
<glyph name="three" format="2">
	<unicode hex="0033"/>
	<advance height="2048" width="1109"/>
	<outline>
		<contour>
			<point x="264" y="978" type="curve" smooth="yes"/>
			<point x="265" y="953"/>
			<point x="230" y="932"/>
			<point x="185" y="931" type="curve" smooth="yes"/>
			<point x="140" y="930"/>
			<point x="103" y="950"/>
			<point x="101" y="975" type="curve" smooth="yes"/>
			<point x="86" y="1236"/>
			<point x="292" y="1382"/>
			<point x="536" y="1381" type="curve" smooth="yes"/>
			<point x="767" y="1380"/>
			<point x="970" y="1248"/>
			<point x="971" y="1014" type="curve" smooth="yes"/>
			<point x="972" y="880"/>
			<point x="892" y="773"/>
			<point x="774" y="715" type="curve"/>
			<point x="911" y="659"/>
			<point x="1000" y="541"/>
			<point x="1008" y="393" type="curve" smooth="yes"/>
			<point x="1023" y="137"/>
			<point x="814" y="-24"/>
			<point x="569" y="-24" type="curve" smooth="yes"/>
			<point x="324" y="-24"/>
			<point x="100" y="102"/>
			<point x="100" y="370" type="curve" smooth="yes"/>
			<point x="100" y="396"/>
			<point x="136" y="416"/>
			<point x="181" y="416" type="curve" smooth="yes"/>
			<point x="226" y="416"/>
			<point x="263" y="396"/>
			<point x="263" y="370" type="curve" smooth="yes"/>
			<point x="263" y="184"/>
			<point x="388" y="67"/>
			<point x="569" y="67" type="curve" smooth="yes"/>
			<point x="750" y="67"/>
			<point x="856" y="225"/>
			<point x="846" y="390" type="curve" smooth="yes"/>
			<point x="839" y="517"/>
			<point x="763" y="622"/>
			<point x="637" y="653" type="curve" smooth="yes"/>
			<point x="586" y="665"/>
			<point x="553" y="660"/>
			<point x="502" y="660" type="curve" smooth="yes"/>
			<point x="457" y="660"/>
			<point x="421" y="681"/>
			<point x="421" y="706" type="curve" smooth="yes"/>
			<point x="421" y="730"/>
			<point x="455" y="749"/>
			<point x="498" y="751" type="curve" smooth="yes"/>
			<point x="547" y="754"/>
			<point x="580" y="754"/>
			<point x="629" y="770" type="curve" smooth="yes"/>
			<point x="738" y="806"/>
			<point x="809" y="898"/>
			<point x="809" y="1014" type="curve" smooth="yes"/>
			<point x="808" y="1171"/>
			<point x="692" y="1289"/>
			<point x="525" y="1290" type="curve" smooth="yes"/>
			<point x="357" y="1291"/>
			<point x="254" y="1145"/>
		</contour>
	</outline>
</glyph>
<glyph name="four" format="2">
  <advance height="2048" width="1156.0"/>
  <unicode hex="0034"/>
  <outline>
    <contour>
      <point x="859.0" y="23.0" type="curve" smooth="yes"/>
      <point x="859.0" y="339.0" type="line"/>
      <point x="1024.0" y="339.0" type="line" smooth="yes"/>
      <point x="1069.0" y="339.0"/>
      <point x="1106.0" y="360.0"/>
      <point x="1106.0" y="385.0" type="curve" smooth="yes"/>
      <point x="1106.0" y="410.0"/>
      <point x="1069.0" y="431.0"/>
      <point x="1024.0" y="431.0" type="curve" smooth="yes"/>
      <point x="859.0" y="431.0" type="line"/>
      <point x="859.0" y="1334.0" type="line" smooth="yes"/>
      <point x="859.0" y="1360.0"/>
      <point x="822.0" y="1381.0"/>
      <point x="777.0" y="1381.0" type="curve" smooth="yes"/>
      <point x="740.0" y="1381.0"/>
      <point x="711.0" y="1366.0"/>
      <point x="699.0" y="1348.0" type="curve" smooth="yes"/>
      <point x="57.0" y="403.0" type="line" smooth="yes"/>
      <point x="53.0" y="397.0"/>
      <point x="50.0" y="391.0"/>
      <point x="50.0" y="385.0" type="curve" smooth="yes"/>
      <point x="50.0" y="360.0"/>
      <point x="87.0" y="339.0"/>
      <point x="132.0" y="339.0" type="curve" smooth="yes"/>
      <point x="696.0" y="339.0" type="line"/>
      <point x="696.0" y="23.0" type="line" smooth="yes"/>
      <point x="696.0" y="-3.0"/>
      <point x="732.0" y="-24.0"/>
      <point x="777.0" y="-24.0" type="curve" smooth="yes"/>
      <point x="822.0" y="-24.0"/>
      <point x="859.0" y="-3.0"/>
    </contour>
    <contour>
      <point x="210.0" y="431.0" type="line"/>
      <point x="696.0" y="1146.0" type="line"/>
      <point x="696.0" y="431.0" type="line"/>
    </contour>
  </outline>
</glyph>
<glyph name="five" format="2">
	<unicode hex="0035"/>
	<advance height="2048" width="1133"/>
	<outline>
		<contour>
			<point x="1033" y="418" type="curve" smooth="yes"/>
			<point x="1033" y="702"/>
			<point x="810" y="861"/>
			<point x="560" y="861" type="curve" smooth="yes"/>
			<point x="481" y="861"/>
			<point x="404" y="845"/>
			<point x="329" y="810" type="curve"/>
			<point x="390" y="1266" type="line"/>
			<point x="907" y="1266" type="line" smooth="yes"/>
			<point x="952" y="1266"/>
			<point x="988" y="1286"/>
			<point x="988" y="1311" type="curve" smooth="yes"/>
			<point x="988" y="1337"/>
			<point x="952" y="1357"/>
			<point x="907" y="1357" type="curve" smooth="yes"/>
			<point x="314" y="1357" type="line" smooth="yes"/>
			<point x="270" y="1357"/>
			<point x="236" y="1337"/>
			<point x="233" y="1312" type="curve" smooth="yes"/>
			<point x="145" y="652" type="line"/>
			<point x="145" y="645"/>
			<point x="144" y="639"/>
			<point x="144" y="633" type="curve" smooth="yes"/>
			<point x="144" y="595"/>
			<point x="196" y="586"/>
			<point x="226" y="586" type="curve" smooth="yes"/>
			<point x="267" y="586"/>
			<point x="284" y="594"/>
			<point x="307" y="629" type="curve" smooth="yes"/>
			<point x="363" y="716"/>
			<point x="458" y="769"/>
			<point x="560" y="769" type="curve" smooth="yes"/>
			<point x="756" y="769"/>
			<point x="870" y="601"/>
			<point x="870" y="418" type="curve" smooth="yes"/>
			<point x="870" y="234"/>
			<point x="755" y="67"/>
			<point x="559" y="67" type="curve" smooth="yes"/>
			<point x="411" y="67"/>
			<point x="295" y="174"/>
			<point x="262" y="316" type="curve" smooth="yes"/>
			<point x="256" y="339"/>
			<point x="221" y="356"/>
			<point x="181" y="356" type="curve" smooth="yes"/>
			<point x="158" y="356"/>
			<point x="100" y="344"/>
			<point x="100" y="313" type="curve" smooth="yes"/>
			<point x="100" y="307"/>
			<point x="102" y="301"/>
			<point x="104" y="292" type="curve" smooth="yes"/>
			<point x="160" y="85"/>
			<point x="353" y="-24"/>
			<point x="560" y="-24" type="curve" smooth="yes"/>
			<point x="824" y="-24"/>
			<point x="1033" y="143"/>
		</contour>
	</outline>
</glyph>
<glyph name="six" format="2">
  <advance height="2048" width="1157.0"/>
  <unicode hex="0036"/>
  <outline>
    <contour>
      <point x="601.0" y="-24.0" type="curve" smooth="yes"/>
      <point x="754.0" y="-24.0"/>
      <point x="883.0" y="36.0"/>
      <point x="965.0" y="140.0" type="curve" smooth="yes"/>
      <point x="1024.0" y="214.0"/>
      <point x="1057.0" y="310.0"/>
      <point x="1057.0" y="423.0" type="curve" smooth="yes"/>
      <point x="1057.0" y="564.0"/>
      <point x="1005.0" y="680.0"/>
      <point x="916.0" y="758.0" type="curve" smooth="yes"/>
      <point x="836.0" y="830.0"/>
      <point x="726.0" y="869.0"/>
      <point x="601.0" y="869.0" type="curve" smooth="yes"/>
      <point x="451.0" y="869.0"/>
      <point x="332.0" y="805.0"/>
      <point x="261.0" y="702.0" type="curve"/>
      <point x="264.0" y="785.0"/>
      <point x="275.0" y="869.0"/>
      <point x="295.0" y="944.0" type="curve" smooth="yes"/>
      <point x="338.0" y="1103.0"/>
      <point x="441.0" y="1290.0"/>
      <point x="628.0" y="1290.0" type="curve" smooth="yes"/>
      <point x="753.0" y="1290.0"/>
      <point x="842.0" y="1181.0"/>
      <point x="869.0" y="1068.0" type="curve" smooth="yes"/>
      <point x="874.0" y="1045.0"/>
      <point x="909.0" y="1029.0"/>
      <point x="949.0" y="1029.0" type="curve" smooth="yes"/>
      <point x="974.0" y="1029.0"/>
      <point x="1032.0" y="1041.0"/>
      <point x="1031.0" y="1073.0" type="curve" smooth="yes"/>
      <point x="1031.0" y="1080.0"/>
      <point x="1029.0" y="1086.0"/>
      <point x="1027.0" y="1092.0" type="curve"/>
      <point x="977.0" y="1278.0"/>
      <point x="816.0" y="1381.0"/>
      <point x="628.0" y="1381.0" type="curve" smooth="yes"/>
      <point x="361.0" y="1381.0"/>
      <point x="201.0" y="1206.0"/>
      <point x="134.0" y="957.0" type="curve" smooth="yes"/>
      <point x="112.0" y="875.0"/>
      <point x="100.0" y="772.0"/>
      <point x="100.0" y="669.0" type="curve" smooth="yes"/>
      <point x="100.0" y="582.0"/>
      <point x="105.0" y="488.0"/>
      <point x="124.0" y="398.0" type="curve" smooth="yes"/>
      <point x="145.0" y="296.0"/>
      <point x="182.0" y="199.0"/>
      <point x="249.0" y="121.0" type="curve" smooth="yes"/>
      <point x="328.0" y="29.0"/>
      <point x="441.0" y="-24.0"/>
    </contour>
    <contour>
      <point x="601.0" y="67.0" type="curve" smooth="yes"/>
      <point x="410.0" y="67.0"/>
      <point x="308.0" y="247.0"/>
      <point x="308.0" y="423.0" type="curve" smooth="yes"/>
      <point x="308.0" y="598.0"/>
      <point x="410.0" y="778.0"/>
      <point x="601.0" y="778.0" type="curve" smooth="yes"/>
      <point x="793.0" y="778.0"/>
      <point x="894.0" y="598.0"/>
      <point x="894.0" y="423.0" type="curve" smooth="yes"/>
      <point x="894.0" y="247.0"/>
      <point x="793.0" y="67.0"/>
    </contour>
  </outline>
</glyph>
<glyph name="seven" format="2">
  <advance height="2048" width="1066.0"/>
  <unicode hex="0037"/>
  <outline>
    <contour>
      <point x="462.0" y="-24.0" type="curve" smooth="yes"/>
      <point x="505.0" y="-24.0"/>
      <point x="540.0" y="-4.0"/>
      <point x="541.0" y="20.0" type="curve" smooth="yes"/>
      <point x="556.0" y="295.0"/>
      <point x="598.0" y="523.0"/>
      <point x="675.0" y="727.0" type="curve" smooth="yes"/>
      <point x="751.0" y="929.0"/>
      <point x="860.0" y="1109.0"/>
      <point x="1007.0" y="1290.0" type="curve" smooth="yes"/>
      <point x="1014.0" y="1298.0"/>
      <point x="1016.0" y="1305.0"/>
      <point x="1016.0" y="1312.0" type="curve" smooth="yes"/>
      <point x="1016.0" y="1326.0"/>
      <point x="1006.0" y="1337.0"/>
      <point x="993.0" y="1344.0" type="curve" smooth="yes"/>
      <point x="974.0" y="1354.0"/>
      <point x="949.0" y="1357.0"/>
      <point x="934.0" y="1357.0" type="curve" smooth="yes"/>
      <point x="132.0" y="1357.0" type="line" smooth="yes"/>
      <point x="87.0" y="1357.0"/>
      <point x="50.0" y="1337.0"/>
      <point x="50.0" y="1311.0" type="curve" smooth="yes"/>
      <point x="50.0" y="1286.0"/>
      <point x="87.0" y="1266.0"/>
      <point x="132.0" y="1266.0" type="curve" smooth="yes"/>
      <point x="810.0" y="1266.0" type="line"/>
      <point x="683.0" y="1099.0"/>
      <point x="587.0" y="932.0"/>
      <point x="516.0" y="745.0" type="curve" smooth="yes"/>
      <point x="437.0" y="536.0"/>
      <point x="391.0" y="304.0"/>
      <point x="378.0" y="23.0" type="curve" smooth="yes"/>
      <point x="376.0" y="-14.0"/>
      <point x="434.0" y="-25.0"/>
    </contour>
  </outline>
</glyph>
<glyph name="eight" format="2">
	<unicode hex="0038"/>
	<advance height="2048" width="1149"/>
	<outline>
		<contour>
			<point x="1011" y="1023" type="curve" smooth="yes"/>
			<point x="1011" y="1264"/>
			<point x="788" y="1381"/>
			<point x="574" y="1381" type="curve" smooth="yes"/>
			<point x="361" y="1381"/>
			<point x="138" y="1264"/>
			<point x="138" y="1023" type="curve" smooth="yes"/>
			<point x="138" y="870"/>
			<point x="228" y="767"/>
			<point x="348" y="712" type="curve"/>
			<point x="207" y="655"/>
			<point x="100" y="540"/>
			<point x="100" y="366" type="curve" smooth="yes"/>
			<point x="100" y="104"/>
			<point x="342" y="-24"/>
			<point x="574" y="-24" type="curve" smooth="yes"/>
			<point x="807" y="-24"/>
			<point x="1049" y="104"/>
			<point x="1049" y="366" type="curve" smooth="yes"/>
			<point x="1049" y="540"/>
			<point x="942" y="655"/>
			<point x="801" y="712" type="curve"/>
			<point x="921" y="767"/>
			<point x="1011" y="870"/>
		</contour>
		<contour>
			<point x="886" y="366" type="curve" smooth="yes"/>
			<point x="886" y="183"/>
			<point x="748" y="67"/>
			<point x="574" y="67" type="curve" smooth="yes"/>
			<point x="401" y="67"/>
			<point x="263" y="183"/>
			<point x="263" y="366" type="curve" smooth="yes"/>
			<point x="263" y="548"/>
			<point x="401" y="664"/>
			<point x="574" y="664" type="curve" smooth="yes"/>
			<point x="748" y="664"/>
			<point x="886" y="548"/>
		</contour>
		<contour>
			<point x="848" y="1023" type="curve" smooth="yes"/>
			<point x="848" y="862"/>
			<point x="729" y="756"/>
			<point x="574" y="756" type="curve" smooth="yes"/>
			<point x="420" y="756"/>
			<point x="301" y="862"/>
			<point x="301" y="1023" type="curve" smooth="yes"/>
			<point x="301" y="1184"/>
			<point x="420" y="1290"/>
			<point x="574" y="1290" type="curve" smooth="yes"/>
			<point x="729" y="1290"/>
			<point x="848" y="1184"/>
		</contour>
	</outline>
</glyph>
<glyph name="nine" format="2">
  <advance height="2048" width="1157.0"/>
  <unicode hex="0039"/>
  <outline>
    <contour>
      <point x="556.0" y="1381.0" type="curve" smooth="yes"/>
      <point x="403.0" y="1381.0"/>
      <point x="274.0" y="1321.0"/>
      <point x="192.0" y="1217.0" type="curve" smooth="yes"/>
      <point x="133.0" y="1143.0"/>
      <point x="100.0" y="1047.0"/>
      <point x="100.0" y="934.0" type="curve" smooth="yes"/>
      <point x="100.0" y="793.0"/>
      <point x="152.0" y="677.0"/>
      <point x="241.0" y="599.0" type="curve" smooth="yes"/>
      <point x="321.0" y="527.0"/>
      <point x="431.0" y="488.0"/>
      <point x="556.0" y="488.0" type="curve" smooth="yes"/>
      <point x="706.0" y="488.0"/>
      <point x="825.0" y="552.0"/>
      <point x="896.0" y="655.0" type="curve"/>
      <point x="893.0" y="572.0"/>
      <point x="882.0" y="488.0"/>
      <point x="862.0" y="413.0" type="curve" smooth="yes"/>
      <point x="819.0" y="254.0"/>
      <point x="716.0" y="67.0"/>
      <point x="529.0" y="67.0" type="curve" smooth="yes"/>
      <point x="404.0" y="67.0"/>
      <point x="315.0" y="176.0"/>
      <point x="288.0" y="289.0" type="curve" smooth="yes"/>
      <point x="283.0" y="312.0"/>
      <point x="248.0" y="328.0"/>
      <point x="208.0" y="328.0" type="curve" smooth="yes"/>
      <point x="183.0" y="328.0"/>
      <point x="125.0" y="316.0"/>
      <point x="126.0" y="284.0" type="curve" smooth="yes"/>
      <point x="126.0" y="277.0"/>
      <point x="128.0" y="271.0"/>
      <point x="130.0" y="265.0" type="curve"/>
      <point x="180.0" y="79.0"/>
      <point x="341.0" y="-24.0"/>
      <point x="529.0" y="-24.0" type="curve" smooth="yes"/>
      <point x="796.0" y="-24.0"/>
      <point x="956.0" y="151.0"/>
      <point x="1023.0" y="400.0" type="curve" smooth="yes"/>
      <point x="1045.0" y="482.0"/>
      <point x="1057.0" y="585.0"/>
      <point x="1057.0" y="688.0" type="curve" smooth="yes"/>
      <point x="1057.0" y="775.0"/>
      <point x="1052.0" y="869.0"/>
      <point x="1033.0" y="959.0" type="curve" smooth="yes"/>
      <point x="1012.0" y="1061.0"/>
      <point x="975.0" y="1158.0"/>
      <point x="908.0" y="1236.0" type="curve" smooth="yes"/>
      <point x="829.0" y="1328.0"/>
      <point x="716.0" y="1381.0"/>
    </contour>
    <contour>
      <point x="556.0" y="1290.0" type="curve" smooth="yes"/>
      <point x="747.0" y="1290.0"/>
      <point x="849.0" y="1110.0"/>
      <point x="849.0" y="934.0" type="curve" smooth="yes"/>
      <point x="849.0" y="759.0"/>
      <point x="747.0" y="579.0"/>
      <point x="556.0" y="579.0" type="curve" smooth="yes"/>
      <point x="364.0" y="579.0"/>
      <point x="263.0" y="759.0"/>
      <point x="263.0" y="934.0" type="curve" smooth="yes"/>
      <point x="263.0" y="1110.0"/>
      <point x="364.0" y="1290.0"/>
    </contour>
  </outline>
</glyph>
<glyph name="colon" format="2">
	<unicode hex="003A"/>
	<advance height="2048" width="415"/>
	<outline>
		<contour>
			<point x="207" y="856" type="curve" smooth="yes"/>
			<point x="148" y="856"/>
			<point x="100" y="808"/>
			<point x="100" y="749" type="curve" smooth="yes"/>
			<point x="100" y="689"/>
			<point x="148" y="641"/>
			<point x="207" y="641" type="curve" smooth="yes"/>
			<point x="267" y="641"/>
			<point x="315" y="689"/>
			<point x="315" y="749" type="curve" smooth="yes"/>
			<point x="315" y="808"/>
			<point x="267" y="856"/>
		</contour>
		<contour>
			<point x="207" y="365" type="curve" smooth="yes"/>
			<point x="148" y="365"/>
			<point x="100" y="317"/>
			<point x="100" y="258" type="curve" smooth="yes"/>
			<point x="100" y="198"/>
			<point x="148" y="150"/>
			<point x="207" y="150" type="curve" smooth="yes"/>
			<point x="267" y="150"/>
			<point x="315" y="198"/>
			<point x="315" y="258" type="curve" smooth="yes"/>
			<point x="315" y="317"/>
			<point x="267" y="365"/>
		</contour>
	</outline>
</glyph>
<glyph name="semicolon" format="2">
	<unicode hex="003B"/>
	<advance height="2048" width="394"/>
	<outline>
		<contour>
			<point x="190" y="680" type="curve" smooth="yes"/>
			<point x="239" y="680"/>
			<point x="280" y="640"/>
			<point x="280" y="590" type="curve" smooth="yes"/>
			<point x="280" y="541"/>
			<point x="239" y="500"/>
			<point x="190" y="500" type="curve" smooth="yes"/>
			<point x="140" y="500"/>
			<point x="100" y="541"/>
			<point x="100" y="590" type="curve" smooth="yes"/>
			<point x="100" y="640"/>
			<point x="140" y="680"/>
		</contour>
		<contour>
			<point x="190" y="155" type="curve" smooth="yes"/>
			<point x="221" y="155"/>
			<point x="245" y="143"/>
			<point x="263" y="125" type="curve" smooth="yes"/>
			<point x="287" y="100"/>
			<point x="295" y="66"/>
			<point x="294" y="30" type="curve" smooth="yes"/>
			<point x="292" y="-9"/>
			<point x="278" y="-49"/>
			<point x="259" y="-79" type="curve" smooth="yes"/>
			<point x="242" y="-106"/>
			<point x="212" y="-136"/>
			<point x="179" y="-149" type="curve" smooth="yes"/>
			<point x="163" y="-156"/>
			<point x="148" y="-158"/>
			<point x="132" y="-156" type="curve"/>
			<point x="119" y="-153"/>
			<point x="108" y="-143"/>
			<point x="126" y="-136" type="curve" smooth="yes"/>
			<point x="151" y="-125"/>
			<point x="172" y="-107"/>
			<point x="185" y="-84" type="curve" smooth="yes"/>
			<point x="196" y="-66"/>
			<point x="203" y="-45"/>
			<point x="205" y="-23" type="curve"/>
			<point x="200" y="-24"/>
			<point x="195" y="-25"/>
			<point x="190" y="-25" type="curve" smooth="yes"/>
			<point x="140" y="-25"/>
			<point x="100" y="16"/>
			<point x="100" y="65" type="curve" smooth="yes"/>
			<point x="100" y="115"/>
			<point x="140" y="155"/>
		</contour>
	</outline>
</glyph>
<glyph name="less" format="2">
	<unicode hex="003C"/>
	<advance height="2048" width="1196"/>
	<outline>
		<contour>
			<point x="960" y="1013" type="line" smooth="yes"/>
			<point x="992" y="1030"/>
			<point x="1044" y="1029"/>
			<point x="1075" y="1010" type="curve" smooth="yes"/>
			<point x="1106" y="991"/>
			<point x="1101" y="962"/>
			<point x="1070" y="946" type="curve" smooth="yes"/>
			<point x="301" y="553" type="line"/>
			<point x="1070" y="159" type="line" smooth="yes"/>
			<point x="1101" y="143"/>
			<point x="1106" y="114"/>
			<point x="1075" y="95" type="curve" smooth="yes"/>
			<point x="1044" y="76"/>
			<point x="992" y="75"/>
			<point x="960" y="92" type="curve" smooth="yes"/>
			<point x="126" y="519" type="line" smooth="yes"/>
			<point x="109" y="528"/>
			<point x="100" y="540"/>
			<point x="100" y="553" type="curve" smooth="yes"/>
			<point x="100" y="565"/>
			<point x="109" y="577"/>
			<point x="126" y="586" type="curve" smooth="yes"/>
		</contour>
	</outline>
</glyph>
<glyph name="equal" format="2">
	<unicode hex="003D"/>
	<advance height="2048" width="1068"/>
	<outline>
		<contour>
			<point x="182" y="700" type="line" smooth="yes"/>
			<point x="137" y="700"/>
			<point x="100" y="720"/>
			<point x="100" y="746" type="curve" smooth="yes"/>
			<point x="100" y="771"/>
			<point x="137" y="791"/>
			<point x="182" y="791" type="curve" smooth="yes"/>
			<point x="886" y="791" type="line" smooth="yes"/>
			<point x="931" y="791"/>
			<point x="968" y="771"/>
			<point x="968" y="746" type="curve" smooth="yes"/>
			<point x="968" y="720"/>
			<point x="931" y="700"/>
			<point x="886" y="700" type="curve" smooth="yes"/>
		</contour>
		<contour>
			<point x="182" y="380" type="line" smooth="yes"/>
			<point x="137" y="380"/>
			<point x="100" y="400"/>
			<point x="100" y="425" type="curve" smooth="yes"/>
			<point x="100" y="451"/>
			<point x="137" y="471"/>
			<point x="182" y="471" type="curve" smooth="yes"/>
			<point x="886" y="471" type="line" smooth="yes"/>
			<point x="931" y="471"/>
			<point x="968" y="451"/>
			<point x="968" y="425" type="curve" smooth="yes"/>
			<point x="968" y="400"/>
			<point x="931" y="380"/>
			<point x="886" y="380" type="curve" smooth="yes"/>
		</contour>
	</outline>
</glyph>
<glyph name="question" format="2">
  <advance height="2048" width="1096.0"/>
  <unicode hex="003F"/>
  <outline>
    <contour>
      <point x="624.0" y="281.0" type="curve" smooth="yes"/>
      <point x="622.0" y="339.0" type="line" smooth="yes"/>
      <point x="619.0" y="429.0"/>
      <point x="638.0" y="470.0"/>
      <point x="656.0" y="499.0" type="curve" smooth="yes"/>
      <point x="689.0" y="554.0"/>
      <point x="748.0" y="608.0"/>
      <point x="807.0" y="663.0" type="curve" smooth="yes"/>
      <point x="912.0" y="760.0"/>
      <point x="996.0" y="861.0"/>
      <point x="996.0" y="1013.0" type="curve" smooth="yes"/>
      <point x="996.0" y="1251.0"/>
      <point x="776.0" y="1381.0"/>
      <point x="557.0" y="1381.0" type="curve" smooth="yes"/>
      <point x="372.0" y="1381.0"/>
      <point x="256.0" y="1320.0"/>
      <point x="186.0" y="1236.0" type="curve" smooth="yes"/>
      <point x="127.0" y="1166.0"/>
      <point x="100.0" y="1075.0"/>
      <point x="100.0" y="985.0" type="curve" smooth="yes"/>
      <point x="100.0" y="960.0"/>
      <point x="136.0" y="939.0"/>
      <point x="181.0" y="939.0" type="curve" smooth="yes"/>
      <point x="226.0" y="939.0"/>
      <point x="262.0" y="960.0"/>
      <point x="262.0" y="985.0" type="curve" smooth="yes"/>
      <point x="262.0" y="1061.0"/>
      <point x="284.0" y="1139.0"/>
      <point x="333.0" y="1198.0" type="curve" smooth="yes"/>
      <point x="389.0" y="1266.0"/>
      <point x="471.0" y="1290.0"/>
      <point x="557.0" y="1290.0" type="curve" smooth="yes"/>
      <point x="712.0" y="1290.0"/>
      <point x="835.0" y="1168.0"/>
      <point x="834.0" y="1013.0" type="curve"/>
      <point x="834.0" y="881.0"/>
      <point x="759.0" y="794.0"/>
      <point x="668.0" y="710.0" type="curve" smooth="yes"/>
      <point x="604.0" y="650.0"/>
      <point x="538.0" y="587.0"/>
      <point x="504.0" y="532.0" type="curve" smooth="yes"/>
      <point x="481.0" y="495.0"/>
      <point x="455.0" y="446.0"/>
      <point x="459.0" y="338.0" type="curve" smooth="yes"/>
      <point x="461.0" y="279.0" type="line" smooth="yes"/>
      <point x="462.0" y="255.0"/>
      <point x="498.0" y="235.0"/>
      <point x="542.0" y="235.0" type="curve" smooth="yes"/>
      <point x="568.0" y="235.0"/>
      <point x="625.0" y="246.0"/>
    </contour>
    <contour>
      <point x="541.0" y="-24.0" type="curve" smooth="yes"/>
      <point x="591.0" y="-24.0"/>
      <point x="631.0" y="16.0"/>
      <point x="631.0" y="66.0" type="curve" smooth="yes"/>
      <point x="631.0" y="116.0"/>
      <point x="591.0" y="156.0"/>
      <point x="541.0" y="156.0" type="curve" smooth="yes"/>
      <point x="491.0" y="156.0"/>
      <point x="451.0" y="116.0"/>
      <point x="451.0" y="66.0" type="curve" smooth="yes"/>
      <point x="451.0" y="16.0"/>
      <point x="491.0" y="-24.0"/>
    </contour>
  </outline>
</glyph>
<glyph name="at" format="2">
	<unicode hex="0040"/>
	<advance height="2048" width="1947"/>
	<outline>
		<contour>
			<point x="934" y="913" type="curve" smooth="yes"/>
			<point x="1061" y="913"/>
			<point x="1178" y="869"/>
			<point x="1250" y="759" type="curve"/>
			<point x="1265" y="869" type="line" smooth="yes"/>
			<point x="1268" y="894"/>
			<point x="1305" y="914"/>
			<point x="1350" y="913" type="curve" smooth="yes"/>
			<point x="1375" y="912"/>
			<point x="1427" y="900"/>
			<point x="1427" y="867" type="curve" smooth="yes"/>
			<point x="1427" y="866"/>
			<point x="1427" y="866"/>
			<point x="1427" y="865" type="curve"/>
			<point x="1343" y="299" type="line" smooth="yes"/>
			<point x="1333" y="230"/>
			<point x="1320" y="66"/>
			<point x="1427" y="67" type="curve" smooth="yes"/>
			<point x="1488" y="68"/>
			<point x="1548" y="128"/>
			<point x="1580" y="174" type="curve" smooth="yes"/>
			<point x="1654" y="275"/>
			<point x="1684" y="403"/>
			<point x="1685" y="527" type="curve" smooth="yes"/>
			<point x="1686" y="787"/>
			<point x="1600" y="977"/>
			<point x="1468" y="1103" type="curve" smooth="yes"/>
			<point x="1343" y="1224"/>
			<point x="1174" y="1285"/>
			<point x="1002" y="1286" type="curve" smooth="yes"/>
			<point x="817" y="1287"/>
			<point x="628" y="1218"/>
			<point x="486" y="1074" type="curve" smooth="yes"/>
			<point x="325" y="910"/>
			<point x="263" y="687"/>
			<point x="262" y="462" type="curve"/>
			<point x="262" y="206"/>
			<point x="349" y="-41"/>
			<point x="566" y="-192" type="curve" smooth="yes"/>
			<point x="678" y="-271"/>
			<point x="812" y="-312"/>
			<point x="949" y="-312" type="curve" smooth="yes"/>
			<point x="1020" y="-312"/>
			<point x="1092" y="-300"/>
			<point x="1161" y="-278" type="curve" smooth="yes"/>
			<point x="1174" y="-274"/>
			<point x="1188" y="-272"/>
			<point x="1202" y="-272" type="curve" smooth="yes"/>
			<point x="1230" y="-272"/>
			<point x="1257" y="-280"/>
			<point x="1272" y="-295" type="curve" smooth="yes"/>
			<point x="1279" y="-302"/>
			<point x="1283" y="-310"/>
			<point x="1283" y="-317" type="curve" smooth="yes"/>
			<point x="1283" y="-333"/>
			<point x="1268" y="-348"/>
			<point x="1242" y="-357" type="curve" smooth="yes"/>
			<point x="1147" y="-387"/>
			<point x="1048" y="-403"/>
			<point x="948" y="-403" type="curve" smooth="yes"/>
			<point x="768" y="-403"/>
			<point x="588" y="-353"/>
			<point x="439" y="-250" type="curve" smooth="yes"/>
			<point x="201" y="-84"/>
			<point x="99" y="179"/>
			<point x="100" y="461" type="curve" smooth="yes"/>
			<point x="100" y="704"/>
			<point x="170" y="941"/>
			<point x="344" y="1118" type="curve" smooth="yes"/>
			<point x="516" y="1294"/>
			<point x="760" y="1378"/>
			<point x="1002" y="1377" type="curve" smooth="yes"/>
			<point x="1224" y="1376"/>
			<point x="1447" y="1305"/>
			<point x="1609" y="1149" type="curve" smooth="yes"/>
			<point x="1754" y="1011"/>
			<point x="1848" y="805"/>
			<point x="1847" y="527" type="curve"/>
			<point x="1847" y="391"/>
			<point x="1812" y="251"/>
			<point x="1731" y="140" type="curve" smooth="yes"/>
			<point x="1655" y="34"/>
			<point x="1547" y="-25"/>
			<point x="1416" y="-24" type="curve" smooth="yes"/>
			<point x="1296" y="-23"/>
			<point x="1238" y="26"/>
			<point x="1214" y="102" type="curve"/>
			<point x="1153" y="24"/>
			<point x="1063" y="-24"/>
			<point x="943" y="-25" type="curve" smooth="yes"/>
			<point x="666" y="-26"/>
			<point x="517" y="182"/>
			<point x="517" y="430" type="curve" smooth="yes"/>
			<point x="517" y="679"/>
			<point x="661" y="913"/>
		</contour>
		<contour>
			<point x="941" y="67" type="curve" smooth="yes"/>
			<point x="1098" y="69"/>
			<point x="1179" y="264"/>
			<point x="1193" y="398" type="curve" smooth="yes"/>
			<point x="1210" y="565"/>
			<point x="1144" y="821"/>
			<point x="937" y="822" type="curve" smooth="yes"/>
			<point x="761" y="822"/>
			<point x="680" y="584"/>
			<point x="680" y="437" type="curve" smooth="yes"/>
			<point x="680" y="273"/>
			<point x="755" y="64"/>
		</contour>
	</outline>
</glyph>
<glyph name="A" format="2">
  <advance height="2048" width="1373.0"/>
  <unicode hex="0041"/>
  <outline>
    <contour>
      <point x="1348.0" y="20.0" type="curve" smooth="yes"/>
      <point x="1348.0" y="27.0"/>
      <point x="1345.0" y="31.0"/>
      <point x="1342.0" y="38.0" type="curve" smooth="yes"/>
      <point x="774.0" y="1346.0" type="line" smooth="yes"/>
      <point x="763.0" y="1370.0"/>
      <point x="726.0" y="1381.0"/>
      <point x="688.0" y="1381.0" type="curve" smooth="yes"/>
      <point x="663.0" y="1381.0"/>
      <point x="605.0" y="1375.0"/>
      <point x="594.0" y="1348.0" type="curve" smooth="yes"/>
      <point x="27.0" y="15.0" type="line"/>
      <point x="26.0" y="11.0"/>
      <point x="25.0" y="10.0"/>
      <point x="25.0" y="6.0" type="curve" smooth="yes"/>
      <point x="25.0" y="-13.0"/>
      <point x="56.0" y="-24.0"/>
      <point x="86.0" y="-24.0" type="curve" smooth="yes"/>
      <point x="111.0" y="-24.0"/>
      <point x="135.0" y="-16.0"/>
      <point x="142.0" y="-1.0" type="curve" smooth="yes"/>
      <point x="330.0" y="441.0" type="line"/>
      <point x="983.0" y="441.0" type="line"/>
      <point x="1170.0" y="11.0" type="line" smooth="yes"/>
      <point x="1180.0" y="-13.0"/>
      <point x="1218.0" y="-24.0"/>
      <point x="1256.0" y="-24.0" type="curve" smooth="yes"/>
      <point x="1302.0" y="-24.0"/>
      <point x="1348.0" y="-8.0"/>
    </contour>
    <contour>
      <point x="944.0" y="532.0" type="line"/>
      <point x="368.0" y="532.0" type="line"/>
      <point x="653.0" y="1202.0" type="line"/>
    </contour>
  </outline>
</glyph>
<glyph name="B" format="2">
	<unicode hex="0042"/>
	<advance height="2048" width="1265"/>
	<outline>
		<contour>
			<point x="742" y="1357" type="line" smooth="yes"/>
			<point x="947" y="1357"/>
			<point x="1125" y="1207"/>
			<point x="1125" y="995" type="curve" smooth="yes"/>
			<point x="1125" y="872"/>
			<point x="1061" y="760"/>
			<point x="958" y="694" type="curve"/>
			<point x="1095" y="639"/>
			<point x="1190" y="512"/>
			<point x="1190" y="362" type="curve" smooth="yes"/>
			<point x="1190" y="148"/>
			<point x="1005" y="0"/>
			<point x="799" y="0" type="curve" smooth="yes"/>
			<point x="182" y="0" type="line" smooth="yes"/>
			<point x="137" y="0"/>
			<point x="100" y="20"/>
			<point x="100" y="46" type="curve" smooth="yes"/>
			<point x="100" y="1311" type="line" smooth="yes"/>
			<point x="100" y="1337"/>
			<point x="137" y="1357"/>
			<point x="182" y="1357" type="curve" smooth="yes"/>
		</contour>
		<contour>
			<point x="263" y="633" type="line"/>
			<point x="263" y="91" type="line"/>
			<point x="799" y="91" type="line" smooth="yes"/>
			<point x="933" y="91"/>
			<point x="1027" y="237"/>
			<point x="1027" y="362" type="curve" smooth="yes"/>
			<point x="1027" y="487"/>
			<point x="933" y="633"/>
			<point x="799" y="633" type="curve" smooth="yes"/>
		</contour>
		<contour>
			<point x="263" y="724" type="line"/>
			<point x="742" y="724" type="line" smooth="yes"/>
			<point x="874" y="724"/>
			<point x="962" y="874"/>
			<point x="962" y="995" type="curve" smooth="yes"/>
			<point x="962" y="1115"/>
			<point x="873" y="1266"/>
			<point x="742" y="1266" type="curve" smooth="yes"/>
			<point x="263" y="1266" type="line"/>
		</contour>
	</outline>
</glyph>
<glyph name="C" format="2">
	<unicode hex="0043"/>
	<advance height="2048" width="1342"/>
	<outline>
		<contour>
			<point x="1211" y="454" type="curve" smooth="yes"/>
			<point x="1170" y="454"/>
			<point x="1134" y="437"/>
			<point x="1130" y="413" type="curve" smooth="yes"/>
			<point x="1096" y="208"/>
			<point x="901" y="67"/>
			<point x="698" y="67" type="curve" smooth="yes"/>
			<point x="361" y="67"/>
			<point x="212" y="379"/>
			<point x="212" y="676" type="curve" smooth="yes"/>
			<point x="212" y="978"/>
			<point x="373" y="1290"/>
			<point x="712" y="1290" type="curve" smooth="yes"/>
			<point x="914" y="1290"/>
			<point x="1100" y="1151"/>
			<point x="1127" y="945" type="curve" smooth="yes"/>
			<point x="1130" y="921"/>
			<point x="1166" y="903"/>
			<point x="1208" y="903" type="curve" smooth="yes"/>
			<point x="1238" y="903"/>
			<point x="1290" y="914"/>
			<point x="1290" y="952" type="curve" smooth="yes"/>
			<point x="1290" y="963"/>
			<point x="1287" y="975"/>
			<point x="1284" y="986" type="curve"/>
			<point x="1230" y="1243"/>
			<point x="962" y="1381"/>
			<point x="712" y="1381" type="curve" smooth="yes"/>
			<point x="285" y="1381"/>
			<point x="50" y="1078"/>
			<point x="50" y="669" type="curve" smooth="yes"/>
			<point x="50" y="265"/>
			<point x="288" y="-24"/>
			<point x="698" y="-24" type="curve" smooth="yes"/>
			<point x="943" y="-24"/>
			<point x="1209" y="106"/>
			<point x="1280" y="350" type="curve" smooth="yes"/>
			<point x="1284" y="364"/>
			<point x="1292" y="393"/>
			<point x="1292" y="407" type="curve" smooth="yes"/>
			<point x="1292" y="443"/>
			<point x="1239" y="454"/>
		</contour>
	</outline>
</glyph>
<glyph name="D" format="2">
  <advance height="2048" width="1315.0"/>
  <unicode hex="0044"/>
  <outline>
    <contour>
      <point x="181.0" y="1357.0" type="line" smooth="yes"/>
      <point x="136.0" y="1357.0"/>
      <point x="100.0" y="1337.0"/>
      <point x="100.0" y="1312.0" type="curve" smooth="yes"/>
      <point x="100.0" y="45.0" type="line" smooth="yes"/>
      <point x="100.0" y="20.0"/>
      <point x="136.0" y="0.0"/>
      <point x="181.0" y="0.0" type="curve" smooth="yes"/>
      <point x="647.0" y="0.0" type="line" smooth="yes"/>
      <point x="1044.0" y="0.0"/>
      <point x="1266.0" y="307.0"/>
      <point x="1265.0" y="676.0" type="curve" smooth="yes"/>
      <point x="1265.0" y="1042.0"/>
      <point x="1043.0" y="1357.0"/>
      <point x="647.0" y="1357.0" type="curve" smooth="yes"/>
    </contour>
    <contour>
      <point x="647.0" y="1266.0" type="line" smooth="yes"/>
      <point x="957.0" y="1266.0"/>
      <point x="1103.0" y="945.0"/>
      <point x="1103.0" y="676.0" type="curve" smooth="yes"/>
      <point x="1104.0" y="404.0"/>
      <point x="958.0" y="91.0"/>
      <point x="647.0" y="91.0" type="curve" smooth="yes"/>
      <point x="263.0" y="91.0" type="line"/>
      <point x="263.0" y="1266.0" type="line"/>
    </contour>
  </outline>
</glyph>
<glyph name="E" format="2">
  <advance height="2048" width="1243.0"/>
  <unicode hex="0045"/>
  <outline>
    <contour>
      <point x="100.0" y="1312.0" type="curve" smooth="yes"/>
      <point x="100.0" y="45.0" type="line" smooth="yes"/>
      <point x="100.0" y="20.0"/>
      <point x="136.0" y="0.0"/>
      <point x="181.0" y="0.0" type="curve" smooth="yes"/>
      <point x="1087.0" y="0.0" type="line" smooth="yes"/>
      <point x="1132.0" y="0.0"/>
      <point x="1168.0" y="20.0"/>
      <point x="1168.0" y="45.0" type="curve" smooth="yes"/>
      <point x="1168.0" y="71.0"/>
      <point x="1132.0" y="91.0"/>
      <point x="1087.0" y="91.0" type="curve" smooth="yes"/>
      <point x="263.0" y="91.0" type="line"/>
      <point x="263.0" y="633.0" type="line"/>
      <point x="968.0" y="633.0" type="line" smooth="yes"/>
      <point x="1013.0" y="633.0"/>
      <point x="1050.0" y="654.0"/>
      <point x="1050.0" y="679.0" type="curve" smooth="yes"/>
      <point x="1050.0" y="704.0"/>
      <point x="1013.0" y="725.0"/>
      <point x="968.0" y="725.0" type="curve" smooth="yes"/>
      <point x="263.0" y="725.0" type="line"/>
      <point x="263.0" y="1266.0" type="line"/>
      <point x="1087.0" y="1266.0" type="line" smooth="yes"/>
      <point x="1132.0" y="1266.0"/>
      <point x="1168.0" y="1286.0"/>
      <point x="1168.0" y="1312.0" type="curve" smooth="yes"/>
      <point x="1168.0" y="1337.0"/>
      <point x="1132.0" y="1357.0"/>
      <point x="1087.0" y="1357.0" type="curve" smooth="yes"/>
      <point x="181.0" y="1357.0" type="line" smooth="yes"/>
      <point x="136.0" y="1357.0"/>
      <point x="100.0" y="1337.0"/>
    </contour>
  </outline>
</glyph>
<glyph name="F" format="2">
	<unicode hex="0046"/>
	<advance height="2048" width="1153"/>
	<outline>
		<contour>
			<point x="263" y="21" type="curve" smooth="yes"/>
			<point x="263" y="626" type="line"/>
			<point x="903" y="626" type="line" smooth="yes"/>
			<point x="948" y="626"/>
			<point x="985" y="646"/>
			<point x="985" y="672" type="curve" smooth="yes"/>
			<point x="985" y="697"/>
			<point x="948" y="717"/>
			<point x="903" y="717" type="curve" smooth="yes"/>
			<point x="263" y="717" type="line"/>
			<point x="263" y="1266" type="line"/>
			<point x="1022" y="1266" type="line" smooth="yes"/>
			<point x="1067" y="1266"/>
			<point x="1103" y="1286"/>
			<point x="1103" y="1311" type="curve" smooth="yes"/>
			<point x="1103" y="1337"/>
			<point x="1067" y="1357"/>
			<point x="1022" y="1357" type="curve" smooth="yes"/>
			<point x="181" y="1357" type="line" smooth="yes"/>
			<point x="136" y="1357"/>
			<point x="100" y="1337"/>
			<point x="100" y="1311" type="curve" smooth="yes"/>
			<point x="100" y="21" type="line" smooth="yes"/>
			<point x="100" y="-4"/>
			<point x="136" y="-24"/>
			<point x="181" y="-24" type="curve" smooth="yes"/>
			<point x="227" y="-24"/>
			<point x="263" y="-4"/>
		</contour>
	</outline>
</glyph>
<glyph name="G" format="2">
  <advance height="2048" width="1451.0"/>
  <unicode hex="0047"/>
  <outline>
    <contour>
      <point x="750.0" y="-24.0" type="curve" smooth="yes"/>
      <point x="904.0" y="-24.0"/>
      <point x="1058.0" y="24.0"/>
      <point x="1176.0" y="107.0" type="curve" smooth="yes"/>
      <point x="1259.0" y="166.0"/>
      <point x="1376.0" y="304.0"/>
      <point x="1376.0" y="411.0" type="curve" smooth="yes"/>
      <point x="1376.0" y="639.0" type="line" smooth="yes"/>
      <point x="1376.0" y="673.0"/>
      <point x="1321.0" y="685.0"/>
      <point x="1295.0" y="685.0" type="curve" smooth="yes"/>
      <point x="748.0" y="685.0" type="line" smooth="yes"/>
      <point x="703.0" y="685.0"/>
      <point x="666.0" y="664.0"/>
      <point x="666.0" y="639.0" type="curve" smooth="yes"/>
      <point x="666.0" y="614.0"/>
      <point x="703.0" y="593.0"/>
      <point x="748.0" y="593.0" type="curve" smooth="yes"/>
      <point x="1214.0" y="593.0" type="line"/>
      <point x="1214.0" y="411.0" type="line" smooth="yes"/>
      <point x="1214.0" y="305.0"/>
      <point x="1132.0" y="223.0"/>
      <point x="1049.0" y="164.0" type="curve" smooth="yes"/>
      <point x="962.0" y="102.0"/>
      <point x="853.0" y="67.0"/>
      <point x="748.0" y="67.0" type="curve" smooth="yes"/>
      <point x="395.0" y="66.0"/>
      <point x="212.0" y="347.0"/>
      <point x="212.0" y="676.0" type="curve" smooth="yes"/>
      <point x="212.0" y="1004.0"/>
      <point x="408.0" y="1290.0"/>
      <point x="758.0" y="1290.0" type="curve" smooth="yes"/>
      <point x="964.0" y="1290.0"/>
      <point x="1180.0" y="1163.0"/>
      <point x="1211.0" y="945.0" type="curve" smooth="yes"/>
      <point x="1214.0" y="921.0"/>
      <point x="1250.0" y="903.0"/>
      <point x="1293.0" y="903.0" type="curve" smooth="yes"/>
      <point x="1319.0" y="903.0"/>
      <point x="1374.0" y="915.0"/>
      <point x="1374.0" y="948.0" type="curve" smooth="yes"/>
      <point x="1374.0" y="960.0"/>
      <point x="1370.0" y="980.0"/>
      <point x="1367.0" y="992.0" type="curve" smooth="yes"/>
      <point x="1304.0" y="1254.0"/>
      <point x="1007.0" y="1381.0"/>
      <point x="755.0" y="1381.0" type="curve" smooth="yes"/>
      <point x="333.0" y="1381.0"/>
      <point x="50.0" y="1103.0"/>
      <point x="50.0" y="680.0" type="curve" smooth="yes"/>
      <point x="50.0" y="249.0"/>
      <point x="318.0" y="-24.0"/>
    </contour>
  </outline>
</glyph>
<glyph name="H" format="2">
	<unicode hex="0048"/>
	<advance height="2048" width="1346"/>
	<outline>
		<contour>
			<point x="263" y="21" type="curve" smooth="yes"/>
			<point x="263" y="633" type="line"/>
			<point x="1083" y="633" type="line"/>
			<point x="1083" y="21" type="line" smooth="yes"/>
			<point x="1083" y="-4"/>
			<point x="1119" y="-25"/>
			<point x="1164" y="-25" type="curve" smooth="yes"/>
			<point x="1210" y="-25"/>
			<point x="1246" y="-4"/>
			<point x="1246" y="21" type="curve" smooth="yes"/>
			<point x="1246" y="1335" type="line" smooth="yes"/>
			<point x="1246" y="1361"/>
			<point x="1210" y="1381"/>
			<point x="1164" y="1381" type="curve" smooth="yes"/>
			<point x="1119" y="1381"/>
			<point x="1083" y="1361"/>
			<point x="1083" y="1335" type="curve" smooth="yes"/>
			<point x="1083" y="724" type="line"/>
			<point x="263" y="724" type="line"/>
			<point x="263" y="1335" type="line" smooth="yes"/>
			<point x="263" y="1361"/>
			<point x="227" y="1381"/>
			<point x="182" y="1381" type="curve" smooth="yes"/>
			<point x="136" y="1381"/>
			<point x="100" y="1361"/>
			<point x="100" y="1335" type="curve" smooth="yes"/>
			<point x="100" y="21" type="line" smooth="yes"/>
			<point x="100" y="-4"/>
			<point x="136" y="-25"/>
			<point x="182" y="-25" type="curve" smooth="yes"/>
			<point x="227" y="-25"/>
			<point x="263" y="-4"/>
		</contour>
	</outline>
</glyph>
<glyph name="I" format="2">
  <advance height="2048" width="263.0"/>
  <unicode hex="0049"/>
  <outline>
    <contour>
      <point x="213.0" y="21.0" type="curve" smooth="yes"/>
      <point x="213.0" y="1336.0" type="line" smooth="yes"/>
      <point x="213.0" y="1361.0"/>
      <point x="177.0" y="1381.0"/>
      <point x="132.0" y="1381.0" type="curve" smooth="yes"/>
      <point x="86.0" y="1381.0"/>
      <point x="50.0" y="1361.0"/>
      <point x="50.0" y="1336.0" type="curve" smooth="yes"/>
      <point x="50.0" y="21.0" type="line" smooth="yes"/>
      <point x="50.0" y="-4.0"/>
      <point x="86.0" y="-24.0"/>
      <point x="132.0" y="-24.0" type="curve" smooth="yes"/>
      <point x="177.0" y="-24.0"/>
      <point x="213.0" y="-4.0"/>
    </contour>
  </outline>
</glyph>
<glyph name="J" format="2">
	<unicode hex="004A"/>
	<advance height="2048" width="861"/>
	<outline>
		<contour>
			<point x="50" y="331" type="curve" smooth="yes"/>
			<point x="50" y="357"/>
			<point x="87" y="377"/>
			<point x="132" y="377" type="curve" smooth="yes"/>
			<point x="177" y="377"/>
			<point x="213" y="357"/>
			<point x="213" y="331" type="curve" smooth="yes"/>
			<point x="213" y="190"/>
			<point x="302" y="67"/>
			<point x="449" y="67" type="curve" smooth="yes"/>
			<point x="598" y="67"/>
			<point x="688" y="195"/>
			<point x="688" y="337" type="curve" smooth="yes"/>
			<point x="688" y="1336" type="line" smooth="yes"/>
			<point x="688" y="1361"/>
			<point x="724" y="1381"/>
			<point x="769" y="1381" type="curve" smooth="yes"/>
			<point x="814" y="1381"/>
			<point x="851" y="1361"/>
			<point x="851" y="1336" type="curve" smooth="yes"/>
			<point x="851" y="337" type="line" smooth="yes"/>
			<point x="851" y="105"/>
			<point x="662" y="-24"/>
			<point x="449" y="-24" type="curve" smooth="yes"/>
			<point x="238" y="-24"/>
			<point x="50" y="103"/>
		</contour>
	</outline>
</glyph>
<glyph name="K" format="2">
	<unicode hex="004B"/>
	<advance height="2048" width="1228"/>
	<outline>
		<contour>
			<point x="100" y="1340" type="line" smooth="yes"/>
			<point x="100" y="1363"/>
			<point x="137" y="1381"/>
			<point x="182" y="1381" type="curve" smooth="yes"/>
			<point x="227" y="1381"/>
			<point x="263" y="1363"/>
			<point x="263" y="1340" type="curve" smooth="yes"/>
			<point x="263" y="611" type="line"/>
			<point x="1069" y="1363" type="line" smooth="yes"/>
			<point x="1091" y="1383"/>
			<point x="1136" y="1384"/>
			<point x="1164" y="1377" type="curve" smooth="yes"/>
			<point x="1186" y="1371"/>
			<point x="1216" y="1352"/>
			<point x="1192" y="1329" type="curve" smooth="yes"/>
			<point x="632" y="807" type="line"/>
			<point x="1197" y="42" type="line" smooth="yes"/>
			<point x="1223" y="6"/>
			<point x="1164" y="-17"/>
			<point x="1137" y="-22" type="curve" smooth="yes"/>
			<point x="1100" y="-29"/>
			<point x="1033" y="-24"/>
			<point x="1009" y="8" type="curve" smooth="yes"/>
			<point x="506" y="690" type="line"/>
			<point x="263" y="464" type="line"/>
			<point x="263" y="16" type="line" smooth="yes"/>
			<point x="263" y="-7"/>
			<point x="227" y="-25"/>
			<point x="182" y="-25" type="curve" smooth="yes"/>
			<point x="137" y="-25"/>
			<point x="100" y="-7"/>
			<point x="100" y="16" type="curve" smooth="yes"/>
		</contour>
	</outline>
</glyph>
<glyph name="L" format="2">
	<unicode hex="004C"/>
	<advance height="2048" width="1059"/>
	<outline>
		<contour>
			<point x="100" y="1335" type="curve" smooth="yes"/>
			<point x="100" y="45" type="line" smooth="yes"/>
			<point x="100" y="20"/>
			<point x="136" y="0"/>
			<point x="182" y="0" type="curve" smooth="yes"/>
			<point x="952" y="0" type="line" smooth="yes"/>
			<point x="998" y="0"/>
			<point x="1034" y="20"/>
			<point x="1034" y="45" type="curve" smooth="yes"/>
			<point x="1034" y="70"/>
			<point x="998" y="91"/>
			<point x="952" y="91" type="curve" smooth="yes"/>
			<point x="263" y="91" type="line"/>
			<point x="263" y="1335" type="line" smooth="yes"/>
			<point x="263" y="1361"/>
			<point x="227" y="1381"/>
			<point x="182" y="1381" type="curve" smooth="yes"/>
			<point x="136" y="1381"/>
			<point x="100" y="1361"/>
		</contour>
	</outline>
</glyph>
<glyph name="M" format="2">
  <advance height="2048" width="1549.0"/>
  <unicode hex="004D"/>
  <outline>
    <contour>
      <point x="1368.0" y="-24.0" type="curve" smooth="yes"/>
      <point x="1413.0" y="-24.0"/>
      <point x="1449.0" y="-4.0"/>
      <point x="1449.0" y="20.0" type="curve" smooth="yes"/>
      <point x="1449.0" y="1335.0" type="line" smooth="yes"/>
      <point x="1449.0" y="1366.0"/>
      <point x="1408.0" y="1382.0"/>
      <point x="1366.0" y="1381.0" type="curve" smooth="yes"/>
      <point x="1328.0" y="1381.0"/>
      <point x="1290.0" y="1366.0"/>
      <point x="1282.0" y="1347.0" type="curve" smooth="yes"/>
      <point x="805.0" y="163.0" type="line"/>
      <point x="284.0" y="1347.0" type="line" smooth="yes"/>
      <point x="273.0" y="1371.0"/>
      <point x="237.0" y="1381.0"/>
      <point x="200.0" y="1381.0" type="curve" smooth="yes"/>
      <point x="151.0" y="1381.0"/>
      <point x="100.0" y="1364.0"/>
      <point x="100.0" y="1335.0" type="curve" smooth="yes"/>
      <point x="100.0" y="4.0" type="line" smooth="yes"/>
      <point x="100.0" y="-14.0"/>
      <point x="126.0" y="-24.0"/>
      <point x="159.0" y="-24.0" type="curve" smooth="yes"/>
      <point x="191.0" y="-24.0"/>
      <point x="218.0" y="-14.0"/>
      <point x="218.0" y="4.0" type="curve" smooth="yes"/>
      <point x="218.0" y="1073.0" type="line"/>
      <point x="688.0" y="10.0" type="line" smooth="yes"/>
      <point x="698.0" y="-12.0"/>
      <point x="738.0" y="-24.0"/>
      <point x="778.0" y="-24.0" type="curve" smooth="yes"/>
      <point x="816.0" y="-24.0"/>
      <point x="857.0" y="-14.0"/>
      <point x="866.0" y="10.0" type="curve" smooth="yes"/>
      <point x="1286.0" y="1057.0" type="line"/>
      <point x="1286.0" y="20.0" type="line" smooth="yes"/>
      <point x="1286.0" y="-4.0"/>
      <point x="1323.0" y="-24.0"/>
    </contour>
  </outline>
</glyph>
<glyph name="N" format="2">
	<unicode hex="004E"/>
	<advance height="2048" width="1358"/>
	<outline>
		<contour>
			<point x="1157" y="-24" type="curve" smooth="yes"/>
			<point x="1190" y="-24"/>
			<point x="1258" y="-11"/>
			<point x="1258" y="30" type="curve" smooth="yes"/>
			<point x="1258" y="1349" type="line" smooth="yes"/>
			<point x="1258" y="1366"/>
			<point x="1231" y="1381"/>
			<point x="1199" y="1381" type="curve" smooth="yes"/>
			<point x="1166" y="1381"/>
			<point x="1140" y="1366"/>
			<point x="1140" y="1349" type="curve" smooth="yes"/>
			<point x="1140" y="192" type="line"/>
			<point x="292" y="1349" type="line" smooth="yes"/>
			<point x="277" y="1369"/>
			<point x="240" y="1381"/>
			<point x="200" y="1381" type="curve" smooth="yes"/>
			<point x="165" y="1381"/>
			<point x="100" y="1369"/>
			<point x="100" y="1325" type="curve" smooth="yes"/>
			<point x="100" y="7" type="line" smooth="yes"/>
			<point x="100" y="-10"/>
			<point x="127" y="-24"/>
			<point x="159" y="-24" type="curve" smooth="yes"/>
			<point x="192" y="-24"/>
			<point x="218" y="-10"/>
			<point x="218" y="7" type="curve" smooth="yes"/>
			<point x="218" y="1165" type="line"/>
			<point x="1066" y="8" type="line" smooth="yes"/>
			<point x="1081" y="-12"/>
			<point x="1117" y="-24"/>
		</contour>
	</outline>
</glyph>
<glyph name="O" format="2">
  <advance height="2048" width="1446.0"/>
  <unicode hex="004F"/>
  <outline>
    <contour>
      <point x="723.0" y="1381.0" type="curve" smooth="yes"/>
      <point x="308.0" y="1381.0"/>
      <point x="50.0" y="1074.0"/>
      <point x="50.0" y="679.0" type="curve" smooth="yes"/>
      <point x="50.0" y="283.0"/>
      <point x="308.0" y="-24.0"/>
      <point x="723.0" y="-24.0" type="curve" smooth="yes"/>
      <point x="1138.0" y="-24.0"/>
      <point x="1396.0" y="283.0"/>
      <point x="1396.0" y="679.0" type="curve" smooth="yes"/>
      <point x="1396.0" y="1074.0"/>
      <point x="1138.0" y="1381.0"/>
    </contour>
    <contour>
      <point x="723.0" y="1290.0" type="curve" smooth="yes"/>
      <point x="1059.0" y="1290.0"/>
      <point x="1233.0" y="980.0"/>
      <point x="1233.0" y="679.0" type="curve" smooth="yes"/>
      <point x="1233.0" y="377.0"/>
      <point x="1059.0" y="67.0"/>
      <point x="723.0" y="67.0" type="curve" smooth="yes"/>
      <point x="387.0" y="67.0"/>
      <point x="213.0" y="377.0"/>
      <point x="213.0" y="679.0" type="curve" smooth="yes"/>
      <point x="213.0" y="980.0"/>
      <point x="387.0" y="1290.0"/>
    </contour>
  </outline>
</glyph>
<glyph name="Q" format="2">
	<unicode hex="0051"/>
	<advance height="2048" width="1479"/>
	<outline>
		<contour>
			<point x="1348" y="-24" type="curve" smooth="yes"/>
			<point x="1373" y="-24"/>
			<point x="1398" y="-18"/>
			<point x="1415" y="-4" type="curve" smooth="yes"/>
			<point x="1425" y="4"/>
			<point x="1429" y="13"/>
			<point x="1429" y="21" type="curve" smooth="yes"/>
			<point x="1429" y="37"/>
			<point x="1412" y="52"/>
			<point x="1393" y="59" type="curve" smooth="yes"/>
			<point x="1317" y="88"/>
			<point x="1267" y="137"/>
			<point x="1227" y="192" type="curve"/>
			<point x="1341" y="326"/>
			<point x="1396" y="504"/>
			<point x="1396" y="679" type="curve" smooth="yes"/>
			<point x="1396" y="1074"/>
			<point x="1138" y="1381"/>
			<point x="723" y="1381" type="curve" smooth="yes"/>
			<point x="308" y="1381"/>
			<point x="50" y="1074"/>
			<point x="50" y="679" type="curve" smooth="yes"/>
			<point x="50" y="283"/>
			<point x="308" y="-24"/>
			<point x="723" y="-24" type="curve" smooth="yes"/>
			<point x="888" y="-24"/>
			<point x="1022" y="22"/>
			<point x="1125" y="98" type="curve"/>
			<point x="1174" y="48"/>
			<point x="1276" y="-24"/>
		</contour>
		<contour>
			<point x="723" y="67" type="curve" smooth="yes"/>
			<point x="387" y="67"/>
			<point x="213" y="377"/>
			<point x="213" y="679" type="curve" smooth="yes"/>
			<point x="213" y="980"/>
			<point x="387" y="1290"/>
			<point x="723" y="1290" type="curve" smooth="yes"/>
			<point x="1059" y="1290"/>
			<point x="1233" y="980"/>
			<point x="1233" y="679" type="curve" smooth="yes"/>
			<point x="1233" y="555"/>
			<point x="1205" y="431"/>
			<point x="1144" y="323" type="curve"/>
			<point x="1050" y="475"/>
			<point x="909" y="579"/>
			<point x="725" y="579" type="curve" smooth="yes"/>
			<point x="693" y="579"/>
			<point x="641" y="568"/>
			<point x="641" y="534" type="curve" smooth="yes"/>
			<point x="642" y="513"/>
			<point x="668" y="494"/>
			<point x="707" y="489" type="curve" smooth="yes"/>
			<point x="908" y="467"/>
			<point x="955" y="344"/>
			<point x="1049" y="197" type="curve"/>
			<point x="967" y="117"/>
			<point x="858" y="67"/>
		</contour>
	</outline>
</glyph>
<glyph name="R" format="2">
  <advance height="2048" width="1343.0"/>
  <unicode hex="0052"/>
  <outline>
    <contour>
      <point x="181.0" y="-24.0" type="curve" smooth="yes"/>
      <point x="226.0" y="-24.0"/>
      <point x="263.0" y="-3.0"/>
      <point x="263.0" y="22.0" type="curve" smooth="yes"/>
      <point x="263.0" y="625.0" type="line"/>
      <point x="622.0" y="625.0" type="line" smooth="yes"/>
      <point x="762.0" y="625.0"/>
      <point x="823.0" y="483.0"/>
      <point x="887.0" y="339.0" type="curve" smooth="yes"/>
      <point x="948.0" y="203.0"/>
      <point x="1010.0" y="63.0"/>
      <point x="1158.0" y="-12.0" type="curve" smooth="yes"/>
      <point x="1173.0" y="-20.0"/>
      <point x="1193.0" y="-23.0"/>
      <point x="1212.0" y="-23.0" type="curve" smooth="yes"/>
      <point x="1234.0" y="-23.0"/>
      <point x="1256.0" y="-18.0"/>
      <point x="1272.0" y="-8.0" type="curve" smooth="yes"/>
      <point x="1287.0" y="1.0"/>
      <point x="1293.0" y="11.0"/>
      <point x="1293.0" y="22.0" type="curve" smooth="yes"/>
      <point x="1293.0" y="35.0"/>
      <point x="1283.0" y="47.0"/>
      <point x="1266.0" y="56.0" type="curve" smooth="yes"/>
      <point x="1156.0" y="112.0"/>
      <point x="1100.0" y="238.0"/>
      <point x="1045.0" y="360.0" type="curve" smooth="yes"/>
      <point x="999.0" y="464.0"/>
      <point x="954.0" y="563.0"/>
      <point x="874.0" y="630.0" type="curve"/>
      <point x="1057.0" y="657.0"/>
      <point x="1221.0" y="796.0"/>
      <point x="1221.0" y="991.0" type="curve" smooth="yes"/>
      <point x="1221.0" y="1216.0"/>
      <point x="1010.0" y="1357.0"/>
      <point x="800.0" y="1357.0" type="curve" smooth="yes"/>
      <point x="181.0" y="1357.0" type="line" smooth="yes"/>
      <point x="136.0" y="1357.0"/>
      <point x="100.0" y="1336.0"/>
      <point x="100.0" y="1311.0" type="curve" smooth="yes"/>
      <point x="100.0" y="22.0" type="line" smooth="yes"/>
      <point x="100.0" y="-3.0"/>
      <point x="136.0" y="-24.0"/>
    </contour>
    <contour>
      <point x="800.0" y="716.0" type="curve" smooth="yes"/>
      <point x="263.0" y="716.0" type="line"/>
      <point x="263.0" y="1266.0" type="line"/>
      <point x="800.0" y="1266.0" type="line" smooth="yes"/>
      <point x="944.0" y="1266.0"/>
      <point x="1058.0" y="1131.0"/>
      <point x="1058.0" y="991.0" type="curve" smooth="yes"/>
      <point x="1058.0" y="851.0"/>
      <point x="944.0" y="716.0"/>
    </contour>
  </outline>
</glyph>
<glyph name="S" format="2">
	<unicode hex="0053"/>
	<advance height="2048" width="1340"/>
	<outline>
		<contour>
			<point x="1200" y="1041" type="curve"/>
			<point x="1201" y="1039"/>
			<point x="1201" y="1037"/>
			<point x="1201" y="1035" type="curve" smooth="yes"/>
			<point x="1201" y="1012"/>
			<point x="1171" y="993"/>
			<point x="1130" y="990" type="curve" smooth="yes"/>
			<point x="1086" y="986"/>
			<point x="1045" y="1004"/>
			<point x="1039" y="1029" type="curve" smooth="yes"/>
			<point x="997" y="1205"/>
			<point x="844" y="1293"/>
			<point x="670" y="1290" type="curve" smooth="yes"/>
			<point x="510" y="1287"/>
			<point x="300" y="1196"/>
			<point x="298" y="1012" type="curve" smooth="yes"/>
			<point x="297" y="931"/>
			<point x="362" y="876"/>
			<point x="445" y="840" type="curve" smooth="yes"/>
			<point x="535" y="801"/>
			<point x="646" y="783"/>
			<point x="713" y="776" type="curve" smooth="yes"/>
			<point x="845" y="762"/>
			<point x="990" y="739"/>
			<point x="1094" y="672" type="curve" smooth="yes"/>
			<point x="1182" y="615"/>
			<point x="1241" y="527"/>
			<point x="1240" y="386" type="curve" smooth="yes"/>
			<point x="1237" y="129"/>
			<point x="953" y="-9"/>
			<point x="728" y="-22" type="curve" smooth="yes"/>
			<point x="449" y="-39"/>
			<point x="178" y="72"/>
			<point x="101" y="362" type="curve"/>
			<point x="100" y="364"/>
			<point x="100" y="366"/>
			<point x="100" y="369" type="curve" smooth="yes"/>
			<point x="100" y="391"/>
			<point x="129" y="410"/>
			<point x="170" y="413" type="curve" smooth="yes"/>
			<point x="214" y="417"/>
			<point x="256" y="400"/>
			<point x="262" y="375" type="curve" smooth="yes"/>
			<point x="319" y="160"/>
			<point x="494" y="55"/>
			<point x="711" y="68" type="curve" smooth="yes"/>
			<point x="878" y="78"/>
			<point x="1079" y="198"/>
			<point x="1077" y="384" type="curve" smooth="yes"/>
			<point x="1077" y="464"/>
			<point x="1019" y="518"/>
			<point x="944" y="553" type="curve" smooth="yes"/>
			<point x="864" y="591"/>
			<point x="764" y="608"/>
			<point x="697" y="615" type="curve" smooth="yes"/>
			<point x="577" y="627"/>
			<point x="436" y="650"/>
			<point x="325" y="708" type="curve" smooth="yes"/>
			<point x="217" y="764"/>
			<point x="138" y="854"/>
			<point x="135" y="1002" type="curve" smooth="yes"/>
			<point x="129" y="1262"/>
			<point x="449" y="1377"/>
			<point x="665" y="1381" type="curve" smooth="yes"/>
			<point x="897" y="1385"/>
			<point x="1141" y="1285"/>
		</contour>
	</outline>
</glyph>
<glyph name="T" format="2">
  <advance height="2048" width="1225.0"/>
  <unicode hex="0054"/>
  <outline>
    <contour>
      <point x="694.0" y="33.0" type="curve" smooth="yes"/>
      <point x="694.0" y="1278.0" type="line"/>
      <point x="1119.0" y="1278.0" type="line" smooth="yes"/>
      <point x="1164.0" y="1278.0"/>
      <point x="1200.0" y="1298.0"/>
      <point x="1200.0" y="1324.0" type="curve" smooth="yes"/>
      <point x="1200.0" y="1349.0"/>
      <point x="1164.0" y="1369.0"/>
      <point x="1119.0" y="1369.0" type="curve" smooth="yes"/>
      <point x="106.0" y="1369.0" type="line" smooth="yes"/>
      <point x="61.0" y="1369.0"/>
      <point x="25.0" y="1349.0"/>
      <point x="25.0" y="1324.0" type="curve" smooth="yes"/>
      <point x="25.0" y="1298.0"/>
      <point x="61.0" y="1278.0"/>
      <point x="106.0" y="1278.0" type="curve" smooth="yes"/>
      <point x="531.0" y="1278.0" type="line"/>
      <point x="531.0" y="33.0" type="line" smooth="yes"/>
      <point x="531.0" y="8.0"/>
      <point x="567.0" y="-12.0"/>
      <point x="613.0" y="-12.0" type="curve" smooth="yes"/>
      <point x="658.0" y="-12.0"/>
      <point x="694.0" y="8.0"/>
    </contour>
  </outline>
</glyph>
<glyph name="U" format="2">
	<unicode hex="0055"/>
	<advance height="2048" width="1309"/>
	<outline>
		<contour>
			<point x="1046" y="1335" type="line" smooth="yes"/>
			<point x="1046" y="1361"/>
			<point x="1082" y="1381"/>
			<point x="1128" y="1381" type="curve" smooth="yes"/>
			<point x="1173" y="1381"/>
			<point x="1209" y="1361"/>
			<point x="1209" y="1335" type="curve" smooth="yes"/>
			<point x="1209" y="429" type="line" smooth="yes"/>
			<point x="1209" y="142"/>
			<point x="910" y="-24"/>
			<point x="652" y="-24" type="curve" smooth="yes"/>
			<point x="396" y="-24"/>
			<point x="100" y="145"/>
			<point x="100" y="429" type="curve" smooth="yes"/>
			<point x="100" y="1335" type="line" smooth="yes"/>
			<point x="100" y="1361"/>
			<point x="136" y="1381"/>
			<point x="181" y="1381" type="curve" smooth="yes"/>
			<point x="227" y="1381"/>
			<point x="263" y="1361"/>
			<point x="263" y="1335" type="curve" smooth="yes"/>
			<point x="263" y="429" type="line" smooth="yes"/>
			<point x="263" y="224"/>
			<point x="456" y="68"/>
			<point x="652" y="67" type="curve" smooth="yes"/>
			<point x="850" y="67"/>
			<point x="1046" y="222"/>
			<point x="1046" y="429" type="curve" smooth="yes"/>
		</contour>
	</outline>
</glyph>
<glyph name="V" format="2">
	<unicode hex="0056"/>
	<advance height="2048" width="1337"/>
	<outline>
		<contour>
			<point x="27" y="1329" type="line"/>
			<point x="26" y="1332"/>
			<point x="25" y="1335"/>
			<point x="25" y="1338" type="curve" smooth="yes"/>
			<point x="25" y="1358"/>
			<point x="53" y="1376"/>
			<point x="93" y="1380" type="curve"/>
			<point x="99" y="1381"/>
			<point x="105" y="1381"/>
			<point x="111" y="1381" type="curve" smooth="yes"/>
			<point x="151" y="1381"/>
			<point x="187" y="1367"/>
			<point x="195" y="1347" type="curve" smooth="yes"/>
			<point x="692" y="162" type="line"/>
			<point x="1195" y="1358" type="line" smooth="yes"/>
			<point x="1201" y="1372"/>
			<point x="1226" y="1381"/>
			<point x="1254" y="1381" type="curve" smooth="yes"/>
			<point x="1257" y="1381"/>
			<point x="1261" y="1381"/>
			<point x="1265" y="1381" type="curve"/>
			<point x="1293" y="1378"/>
			<point x="1312" y="1365"/>
			<point x="1312" y="1352" type="curve" smooth="yes"/>
			<point x="1312" y="1350"/>
			<point x="1312" y="1348"/>
			<point x="1311" y="1346" type="curve"/>
			<point x="750" y="12" type="line" smooth="yes"/>
			<point x="740" y="-12"/>
			<point x="702" y="-24"/>
			<point x="664" y="-24" type="curve" smooth="yes"/>
			<point x="627" y="-24"/>
			<point x="590" y="-12"/>
			<point x="581" y="10" type="curve" smooth="yes"/>
		</contour>
	</outline>
</glyph>
<glyph name="W" format="2">
	<unicode hex="0057"/>
	<advance height="2048" width="1877"/>
	<outline>
		<contour>
			<point x="27" y="1328" type="line" smooth="yes"/>
			<point x="15" y="1362"/>
			<point x="74" y="1379"/>
			<point x="97" y="1381" type="curve" smooth="yes"/>
			<point x="126" y="1383"/>
			<point x="185" y="1374"/>
			<point x="196" y="1343" type="curve" smooth="yes"/>
			<point x="588" y="209" type="line"/>
			<point x="878" y="1345" type="line" smooth="yes"/>
			<point x="885" y="1372"/>
			<point x="945" y="1381"/>
			<point x="966" y="1381" type="curve" smooth="yes"/>
			<point x="1006" y="1381"/>
			<point x="1045" y="1368"/>
			<point x="1051" y="1342" type="curve" smooth="yes"/>
			<point x="1345" y="210" type="line"/>
			<point x="1735" y="1356" type="line" smooth="yes"/>
			<point x="1742" y="1378"/>
			<point x="1783" y="1382"/>
			<point x="1803" y="1381" type="curve"/>
			<point x="1817" y="1379"/>
			<point x="1859" y="1370"/>
			<point x="1851" y="1347" type="curve" smooth="yes"/>
			<point x="1398" y="13" type="line" smooth="yes"/>
			<point x="1390" y="-9"/>
			<point x="1352" y="-22"/>
			<point x="1313" y="-24" type="curve" smooth="yes"/>
			<point x="1272" y="-25"/>
			<point x="1230" y="-14"/>
			<point x="1223" y="13" type="curve" smooth="yes"/>
			<point x="938" y="1113" type="line"/>
			<point x="657" y="15" type="line" smooth="yes"/>
			<point x="651" y="-10"/>
			<point x="609" y="-23"/>
			<point x="568" y="-24" type="curve" smooth="yes"/>
			<point x="529" y="-24"/>
			<point x="491" y="-13"/>
			<point x="483" y="11" type="curve" smooth="yes"/>
		</contour>
	</outline>
</glyph>
<glyph name="X" format="2">
  <advance height="2048" width="1252.0"/>
  <unicode hex="0058"/>
  <outline>
    <contour>
      <point x="88.0" y="-24.0" type="curve" smooth="yes"/>
      <point x="111.0" y="-24.0"/>
      <point x="136.0" y="-19.0"/>
      <point x="148.0" y="-4.0" type="curve" smooth="yes"/>
      <point x="611.0" y="574.0" type="line"/>
      <point x="1052.0" y="4.0" type="line" smooth="yes"/>
      <point x="1068.0" y="-16.0"/>
      <point x="1106.0" y="-24.0"/>
      <point x="1138.0" y="-24.0" type="curve" smooth="yes"/>
      <point x="1146.0" y="-24.0"/>
      <point x="1157.0" y="-23.0"/>
      <point x="1168.0" y="-20.0" type="curve"/>
      <point x="1196.0" y="-15.0"/>
      <point x="1227.0" y="-3.0"/>
      <point x="1227.0" y="20.0" type="curve" smooth="yes"/>
      <point x="1227.0" y="26.0"/>
      <point x="1225.0" y="31.0"/>
      <point x="1220.0" y="38.0" type="curve" smooth="yes"/>
      <point x="710.0" y="697.0" type="line"/>
      <point x="1222.0" y="1337.0" type="line" smooth="yes"/>
      <point x="1225.0" y="1341.0"/>
      <point x="1227.0" y="1346.0"/>
      <point x="1227.0" y="1349.0" type="curve" smooth="yes"/>
      <point x="1227.0" y="1365.0"/>
      <point x="1201.0" y="1377.0"/>
      <point x="1187.0" y="1379.0" type="curve"/>
      <point x="1180.0" y="1381.0"/>
      <point x="1172.0" y="1381.0"/>
      <point x="1164.0" y="1381.0" type="curve" smooth="yes"/>
      <point x="1141.0" y="1381.0"/>
      <point x="1116.0" y="1376.0"/>
      <point x="1104.0" y="1361.0" type="curve" smooth="yes"/>
      <point x="642.0" y="784.0" type="line"/>
      <point x="203.0" y="1352.0" type="line" smooth="yes"/>
      <point x="187.0" y="1373.0"/>
      <point x="151.0" y="1381.0"/>
      <point x="119.0" y="1381.0" type="curve" smooth="yes"/>
      <point x="107.0" y="1381.0"/>
      <point x="96.0" y="1380.0"/>
      <point x="87.0" y="1378.0" type="curve" smooth="yes"/>
      <point x="67.0" y="1374.0"/>
      <point x="28.0" y="1359.0"/>
      <point x="28.0" y="1337.0" type="curve" smooth="yes"/>
      <point x="28.0" y="1331.0"/>
      <point x="30.0" y="1326.0"/>
      <point x="35.0" y="1320.0" type="curve" smooth="yes"/>
      <point x="544.0" y="662.0" type="line"/>
      <point x="30.0" y="20.0" type="line" smooth="yes"/>
      <point x="27.0" y="16.0"/>
      <point x="25.0" y="11.0"/>
      <point x="25.0" y="8.0" type="curve" smooth="yes"/>
      <point x="25.0" y="-9.0"/>
      <point x="46.0" y="-18.0"/>
      <point x="66.0" y="-22.0" type="curve"/>
      <point x="74.0" y="-23.0"/>
      <point x="82.0" y="-24.0"/>
    </contour>
  </outline>
</glyph>
<glyph name="Y" format="2">
	<unicode hex="0059"/>
	<advance height="2048" width="1256"/>
	<outline>
		<contour>
			<point x="628" y="-24" type="curve" smooth="yes"/>
			<point x="673" y="-24"/>
			<point x="710" y="-4"/>
			<point x="710" y="21" type="curve" smooth="yes"/>
			<point x="710" y="643" type="line"/>
			<point x="1227" y="1338" type="line" smooth="yes"/>
			<point x="1230" y="1342"/>
			<point x="1231" y="1346"/>
			<point x="1231" y="1349" type="curve" smooth="yes"/>
			<point x="1231" y="1370"/>
			<point x="1199" y="1381"/>
			<point x="1168" y="1381" type="curve" smooth="yes"/>
			<point x="1142" y="1381"/>
			<point x="1117" y="1374"/>
			<point x="1107" y="1360" type="curve" smooth="yes"/>
			<point x="656" y="754" type="line"/>
			<point x="201" y="1352" type="line" smooth="yes"/>
			<point x="186" y="1372"/>
			<point x="152" y="1381"/>
			<point x="119" y="1381" type="curve" smooth="yes"/>
			<point x="72" y="1381"/>
			<point x="25" y="1364"/>
			<point x="25" y="1338" type="curve" smooth="yes"/>
			<point x="25" y="1332"/>
			<point x="27" y="1326"/>
			<point x="32" y="1320" type="curve" smooth="yes"/>
			<point x="547" y="644" type="line"/>
			<point x="547" y="21" type="line" smooth="yes"/>
			<point x="547" y="-4"/>
			<point x="583" y="-24"/>
		</contour>
	</outline>
</glyph>
<glyph name="Z" format="2">
	<unicode hex="005A"/>
	<advance height="2048" width="1278"/>
	<outline>
		<contour>
			<point x="139" y="1267" type="line" smooth="yes"/>
			<point x="89" y="1267"/>
			<point x="49" y="1287"/>
			<point x="49" y="1312" type="curve" smooth="yes"/>
			<point x="49" y="1337"/>
			<point x="89" y="1357"/>
			<point x="139" y="1357" type="curve" smooth="yes"/>
			<point x="1161" y="1357" type="line" smooth="yes"/>
			<point x="1189" y="1357"/>
			<point x="1214" y="1351"/>
			<point x="1230" y="1341" type="curve" smooth="yes"/>
			<point x="1247" y="1330"/>
			<point x="1258" y="1313"/>
			<point x="1244" y="1295" type="curve" smooth="yes"/>
			<point x="249" y="91" type="line"/>
			<point x="1163" y="91" type="line" smooth="yes"/>
			<point x="1213" y="91"/>
			<point x="1253" y="70"/>
			<point x="1253" y="46" type="curve" smooth="yes"/>
			<point x="1253" y="21"/>
			<point x="1213" y="0"/>
			<point x="1163" y="0" type="curve" smooth="yes"/>
			<point x="115" y="0" type="line" smooth="yes"/>
			<point x="100" y="0"/>
			<point x="73" y="4"/>
			<point x="53" y="13" type="curve" smooth="yes"/>
			<point x="32" y="22"/>
			<point x="15" y="42"/>
			<point x="32" y="63" type="curve" smooth="yes"/>
			<point x="1027" y="1267" type="line"/>
		</contour>
	</outline>
</glyph>
<glyph name="bracketleft" format="2">
	<unicode hex="005B"/>
	<advance height="2048" width="774"/>
	<outline>
		<contour>
			<point x="592" y="-309" type="curve" smooth="yes"/>
			<point x="263" y="-309" type="line"/>
			<point x="263" y="1289" type="line"/>
			<point x="592" y="1289" type="line" smooth="yes"/>
			<point x="638" y="1289"/>
			<point x="674" y="1309"/>
			<point x="674" y="1334" type="curve" smooth="yes"/>
			<point x="674" y="1360"/>
			<point x="638" y="1380"/>
			<point x="592" y="1380" type="curve" smooth="yes"/>
			<point x="182" y="1380" type="line" smooth="yes"/>
			<point x="136" y="1380"/>
			<point x="100" y="1360"/>
			<point x="100" y="1334" type="curve" smooth="yes"/>
			<point x="100" y="-355" type="line" smooth="yes"/>
			<point x="100" y="-380"/>
			<point x="136" y="-400"/>
			<point x="182" y="-400" type="curve" smooth="yes"/>
			<point x="592" y="-400" type="line" smooth="yes"/>
			<point x="638" y="-400"/>
			<point x="674" y="-380"/>
			<point x="674" y="-355" type="curve" smooth="yes"/>
			<point x="674" y="-329"/>
			<point x="638" y="-309"/>
		</contour>
	</outline>
</glyph>
<glyph name="asciicircum" format="2">
	<unicode hex="005E"/>
	<advance height="2048" width="768"/>
	<outline>
		<contour>
			<point x="668" y="1107" type="curve" smooth="yes"/>
			<point x="668" y="1111"/>
			<point x="668" y="1113"/>
			<point x="666" y="1115" type="curve"/>
			<point x="440" y="1581" type="line" smooth="yes"/>
			<point x="432" y="1597"/>
			<point x="401" y="1603"/>
			<point x="384" y="1603" type="curve" smooth="yes"/>
			<point x="358" y="1603"/>
			<point x="334" y="1594"/>
			<point x="328" y="1581" type="curve" smooth="yes"/>
			<point x="102" y="1115" type="line"/>
			<point x="100" y="1113"/>
			<point x="100" y="1111"/>
			<point x="100" y="1107" type="curve" smooth="yes"/>
			<point x="100" y="1086"/>
			<point x="140" y="1080"/>
			<point x="160" y="1080" type="curve" smooth="yes"/>
			<point x="181" y="1080"/>
			<point x="206" y="1086"/>
			<point x="213" y="1101" type="curve" smooth="yes"/>
			<point x="384" y="1453" type="line"/>
			<point x="555" y="1101" type="line" smooth="yes"/>
			<point x="563" y="1086"/>
			<point x="589" y="1080"/>
			<point x="608" y="1080" type="curve" smooth="yes"/>
			<point x="627" y="1080"/>
			<point x="668" y="1085"/>
		</contour>
	</outline>
</glyph>
<glyph name="underscore" format="2">
	<unicode hex="005F"/>
	<advance height="2048" width="1275"/>
	<outline>
		<contour>
			<point x="181" y="0" type="curve" smooth="yes"/>
			<point x="1094" y="0" type="line" smooth="yes"/>
			<point x="1139" y="0"/>
			<point x="1175" y="20"/>
			<point x="1175" y="46" type="curve" smooth="yes"/>
			<point x="1175" y="71"/>
			<point x="1139" y="91"/>
			<point x="1094" y="91" type="curve" smooth="yes"/>
			<point x="181" y="91" type="line" smooth="yes"/>
			<point x="136" y="91"/>
			<point x="100" y="71"/>
			<point x="100" y="46" type="curve" smooth="yes"/>
			<point x="100" y="20"/>
			<point x="136" y="0"/>
		</contour>
	</outline>
</glyph>
<glyph name="grave" format="2">
	<unicode hex="0060"/>
	<advance height="2048" width="489"/>
	<outline>
		<contour>
			<point x="23" y="1399" type="curve" smooth="yes"/>
			<point x="9" y="1382"/>
			<point x="0" y="1358"/>
			<point x="0" y="1336" type="curve" smooth="yes"/>
			<point x="0" y="1318"/>
			<point x="6" y="1301"/>
			<point x="19" y="1291" type="curve" smooth="yes"/>
			<point x="400" y="1010" type="line" smooth="yes"/>
			<point x="409" y="1003"/>
			<point x="418" y="1000"/>
			<point x="427" y="1000" type="curve" smooth="yes"/>
			<point x="443" y="1000"/>
			<point x="458" y="1011"/>
			<point x="470" y="1025" type="curve" smooth="yes"/>
			<point x="481" y="1038"/>
			<point x="489" y="1052"/>
			<point x="489" y="1066" type="curve" smooth="yes"/>
			<point x="489" y="1077"/>
			<point x="485" y="1088"/>
			<point x="474" y="1098" type="curve" smooth="yes"/>
			<point x="128" y="1422" type="line" smooth="yes"/>
			<point x="119" y="1430"/>
			<point x="106" y="1434"/>
			<point x="93" y="1434" type="curve" smooth="yes"/>
			<point x="68" y="1434"/>
			<point x="40" y="1420"/>
		</contour>
	</outline>
</glyph>
<glyph name="a" format="2">
	<unicode hex="0061"/>
	<advance height="2048" width="1206"/>
	<outline>
		<contour>
			<point x="292" y="712" type="curve"/>
			<point x="292" y="687"/>
			<point x="256" y="666"/>
			<point x="211" y="666" type="curve" smooth="yes"/>
			<point x="166" y="666"/>
			<point x="130" y="687"/>
			<point x="130" y="712" type="curve" smooth="yes"/>
			<point x="131" y="788"/>
			<point x="182" y="863"/>
			<point x="260" y="915" type="curve" smooth="yes"/>
			<point x="343" y="970"/>
			<point x="457" y="1001"/>
			<point x="576" y="1000" type="curve" smooth="yes"/>
			<point x="781" y="999"/>
			<point x="1013" y="904"/>
			<point x="1013" y="667" type="curve" smooth="yes"/>
			<point x="1013" y="228" type="line" smooth="yes"/>
			<point x="1013" y="163"/>
			<point x="1021" y="90"/>
			<point x="1084" y="53" type="curve" smooth="yes"/>
			<point x="1099" y="44"/>
			<point x="1106" y="33"/>
			<point x="1106" y="22" type="curve" smooth="yes"/>
			<point x="1106" y="10"/>
			<point x="1097" y="-2"/>
			<point x="1081" y="-11" type="curve" smooth="yes"/>
			<point x="1065" y="-20"/>
			<point x="1045" y="-24"/>
			<point x="1025" y="-24" type="curve" smooth="yes"/>
			<point x="1004" y="-24"/>
			<point x="982" y="-19"/>
			<point x="966" y="-10" type="curve" smooth="yes"/>
			<point x="913" y="21"/>
			<point x="885" y="62"/>
			<point x="870" y="103" type="curve"/>
			<point x="771" y="17"/>
			<point x="624" y="-24"/>
			<point x="498" y="-24" type="curve" smooth="yes"/>
			<point x="308" y="-24"/>
			<point x="80" y="63"/>
			<point x="101" y="291" type="curve" smooth="yes"/>
			<point x="121" y="508"/>
			<point x="337" y="537"/>
			<point x="517" y="537" type="curve" smooth="yes"/>
			<point x="613" y="537"/>
			<point x="772" y="517"/>
			<point x="850" y="566" type="curve"/>
			<point x="850" y="667" type="line" smooth="yes"/>
			<point x="850" y="827"/>
			<point x="723" y="908"/>
			<point x="575" y="909" type="curve" smooth="yes"/>
			<point x="506" y="910"/>
			<point x="437" y="891"/>
			<point x="384" y="856" type="curve" smooth="yes"/>
			<point x="329" y="820"/>
			<point x="293" y="766"/>
		</contour>
		<contour>
			<point x="850" y="342" type="curve" smooth="yes"/>
			<point x="850" y="456" type="line"/>
			<point x="739" y="432"/>
			<point x="622" y="445"/>
			<point x="509" y="447" type="curve" smooth="yes"/>
			<point x="393" y="448"/>
			<point x="277" y="432"/>
			<point x="264" y="286" type="curve" smooth="yes"/>
			<point x="250" y="138"/>
			<point x="363" y="67"/>
			<point x="498" y="67" type="curve" smooth="yes"/>
			<point x="655" y="67"/>
			<point x="850" y="164"/>
		</contour>
	</outline>
</glyph>
<glyph name="b" format="2">
	<unicode hex="0062"/>
	<advance height="2048" width="1134"/>
	<outline>
		<contour>
			<point x="592" y="1001" type="curve" smooth="yes"/>
			<point x="897" y="1001"/>
			<point x="1084" y="779"/>
			<point x="1084" y="489" type="curve" smooth="yes"/>
			<point x="1084" y="199"/>
			<point x="897" y="-23"/>
			<point x="592" y="-23" type="curve" smooth="yes"/>
			<point x="447" y="-23"/>
			<point x="322" y="43"/>
			<point x="263" y="127" type="curve"/>
			<point x="263" y="21" type="line" smooth="yes"/>
			<point x="263" y="-4"/>
			<point x="227" y="-24"/>
			<point x="182" y="-24" type="curve" smooth="yes"/>
			<point x="137" y="-24"/>
			<point x="100" y="-4"/>
			<point x="100" y="21" type="curve" smooth="yes"/>
			<point x="100" y="1336" type="line" smooth="yes"/>
			<point x="100" y="1361"/>
			<point x="137" y="1381"/>
			<point x="182" y="1381" type="curve" smooth="yes"/>
			<point x="227" y="1381"/>
			<point x="263" y="1361"/>
			<point x="263" y="1336" type="curve" smooth="yes"/>
			<point x="263" y="851" type="line"/>
			<point x="322" y="935"/>
			<point x="447" y="1001"/>
		</contour>
		<contour>
			<point x="592" y="910" type="curve" smooth="yes"/>
			<point x="370" y="910"/>
			<point x="263" y="683"/>
			<point x="263" y="489" type="curve" smooth="yes"/>
			<point x="263" y="295"/>
			<point x="370" y="68"/>
			<point x="592" y="68" type="curve" smooth="yes"/>
			<point x="814" y="68"/>
			<point x="921" y="295"/>
			<point x="921" y="489" type="curve" smooth="yes"/>
			<point x="921" y="683"/>
			<point x="814" y="910"/>
		</contour>
	</outline>
</glyph>
<glyph name="c" format="2">
	<unicode hex="0063"/>
	<advance height="2048" width="1084"/>
	<outline>
		<contour>
			<point x="1032" y="683" type="curve"/>
			<point x="1032" y="682"/>
			<point x="1032" y="680"/>
			<point x="1032" y="679" type="curve" smooth="yes"/>
			<point x="1032" y="646"/>
			<point x="976" y="634"/>
			<point x="951" y="634" type="curve" smooth="yes"/>
			<point x="909" y="634"/>
			<point x="873" y="652"/>
			<point x="870" y="676" type="curve" smooth="yes"/>
			<point x="850" y="822"/>
			<point x="708" y="911"/>
			<point x="569" y="909" type="curve" smooth="yes"/>
			<point x="332" y="906"/>
			<point x="212" y="701"/>
			<point x="213" y="482" type="curve" smooth="yes"/>
			<point x="213" y="265"/>
			<point x="332" y="67"/>
			<point x="568" y="67" type="curve" smooth="yes"/>
			<point x="705" y="67"/>
			<point x="847" y="162"/>
			<point x="872" y="301" type="curve" smooth="yes"/>
			<point x="876" y="324"/>
			<point x="911" y="342"/>
			<point x="953" y="342" type="curve" smooth="yes"/>
			<point x="978" y="342"/>
			<point x="1034" y="330"/>
			<point x="1034" y="297" type="curve" smooth="yes"/>
			<point x="1034" y="296"/>
			<point x="1034" y="294"/>
			<point x="1033" y="292" type="curve"/>
			<point x="996" y="82"/>
			<point x="763" y="-22"/>
			<point x="568" y="-24" type="curve" smooth="yes"/>
			<point x="259" y="-27"/>
			<point x="51" y="172"/>
			<point x="50" y="482" type="curve" smooth="yes"/>
			<point x="50" y="794"/>
			<point x="256" y="996"/>
			<point x="566" y="1000" type="curve" smooth="yes"/>
			<point x="762" y="1002"/>
			<point x="1002" y="900"/>
		</contour>
	</outline>
</glyph>
<glyph name="d" format="2">
  <advance height="2048" width="1134.0"/>
  <unicode hex="0064"/>
  <outline>
    <contour>
      <point x="542.0" y="1001.0" type="curve" smooth="yes"/>
      <point x="237.0" y="1001.0"/>
      <point x="50.0" y="779.0"/>
      <point x="50.0" y="489.0" type="curve" smooth="yes"/>
      <point x="50.0" y="199.0"/>
      <point x="237.0" y="-23.0"/>
      <point x="542.0" y="-23.0" type="curve" smooth="yes"/>
      <point x="687.0" y="-23.0"/>
      <point x="812.0" y="43.0"/>
      <point x="871.0" y="127.0" type="curve"/>
      <point x="871.0" y="21.0" type="line" smooth="yes"/>
      <point x="871.0" y="-4.0"/>
      <point x="907.0" y="-24.0"/>
      <point x="952.0" y="-24.0" type="curve" smooth="yes"/>
      <point x="997.0" y="-24.0"/>
      <point x="1034.0" y="-4.0"/>
      <point x="1034.0" y="21.0" type="curve" smooth="yes"/>
      <point x="1034.0" y="1336.0" type="line" smooth="yes"/>
      <point x="1034.0" y="1361.0"/>
      <point x="997.0" y="1381.0"/>
      <point x="952.0" y="1381.0" type="curve" smooth="yes"/>
      <point x="907.0" y="1381.0"/>
      <point x="871.0" y="1361.0"/>
      <point x="871.0" y="1336.0" type="curve" smooth="yes"/>
      <point x="871.0" y="851.0" type="line"/>
      <point x="812.0" y="935.0"/>
      <point x="687.0" y="1001.0"/>
    </contour>
    <contour>
      <point x="542.0" y="910.0" type="curve" smooth="yes"/>
      <point x="764.0" y="910.0"/>
      <point x="871.0" y="683.0"/>
      <point x="871.0" y="489.0" type="curve" smooth="yes"/>
      <point x="871.0" y="295.0"/>
      <point x="764.0" y="68.0"/>
      <point x="542.0" y="68.0" type="curve" smooth="yes"/>
      <point x="320.0" y="68.0"/>
      <point x="213.0" y="295.0"/>
      <point x="213.0" y="489.0" type="curve" smooth="yes"/>
      <point x="213.0" y="683.0"/>
      <point x="320.0" y="910.0"/>
    </contour>
  </outline>
</glyph>
<glyph name="e" format="2">
  <advance height="2048" width="1146.0"/>
  <unicode hex="0065"/>
  <outline>
    <contour>
      <point x="570.0" y="-24.0" type="curve" smooth="yes"/>
      <point x="692.0" y="-24.0"/>
      <point x="821.0" y="8.0"/>
      <point x="923.0" y="76.0" type="curve" smooth="yes"/>
      <point x="984.0" y="116.0"/>
      <point x="1029.0" y="166.0"/>
      <point x="1055.0" y="220.0" type="curve" smooth="yes"/>
      <point x="1065.0" y="241.0"/>
      <point x="1077.0" y="275.0"/>
      <point x="1077.0" y="298.0" type="curve" smooth="yes"/>
      <point x="1077.0" y="332.0"/>
      <point x="1020.0" y="343.0"/>
      <point x="995.0" y="343.0" type="curve" smooth="yes"/>
      <point x="952.0" y="343.0"/>
      <point x="918.0" y="324.0"/>
      <point x="915.0" y="300.0" type="curve" smooth="yes"/>
      <point x="909.0" y="239.0"/>
      <point x="865.0" y="180.0"/>
      <point x="798.0" y="135.0" type="curve" smooth="yes"/>
      <point x="732.0" y="90.0"/>
      <point x="650.0" y="67.0"/>
      <point x="571.0" y="67.0" type="curve" smooth="yes"/>
      <point x="339.0" y="67.0"/>
      <point x="212.0" y="272.0"/>
      <point x="212.0" y="485.0" type="curve"/>
      <point x="1015.0" y="485.0" type="line" smooth="yes"/>
      <point x="1051.0" y="485.0"/>
      <point x="1096.0" y="497.0"/>
      <point x="1096.0" y="539.0" type="curve" smooth="yes"/>
      <point x="1096.0" y="841.0"/>
      <point x="865.0" y="1000.0"/>
      <point x="578.0" y="1000.0" type="curve" smooth="yes"/>
      <point x="272.0" y="1000.0"/>
      <point x="50.0" y="789.0"/>
      <point x="50.0" y="480.0" type="curve" smooth="yes"/>
      <point x="50.0" y="175.0"/>
      <point x="270.0" y="-24.0"/>
    </contour>
    <contour>
      <point x="932.0" y="577.0" type="curve"/>
      <point x="221.0" y="577.0" type="line"/>
      <point x="255.0" y="757.0"/>
      <point x="384.0" y="909.0"/>
      <point x="578.0" y="909.0" type="curve" smooth="yes"/>
      <point x="782.0" y="909.0"/>
      <point x="917.0" y="777.0"/>
    </contour>
  </outline>
</glyph>
<glyph name="f" format="2">
	<unicode hex="0066"/>
	<advance height="2048" width="766"/>
	<outline>
		<contour>
			<point x="317" y="-24" type="curve" smooth="yes"/>
			<point x="362" y="-24"/>
			<point x="398" y="-4"/>
			<point x="398" y="22" type="curve" smooth="yes"/>
			<point x="398" y="910" type="line"/>
			<point x="589" y="910" type="line" smooth="yes"/>
			<point x="634" y="910"/>
			<point x="671" y="930"/>
			<point x="671" y="955" type="curve" smooth="yes"/>
			<point x="671" y="981"/>
			<point x="634" y="1001"/>
			<point x="589" y="1001" type="curve" smooth="yes"/>
			<point x="398" y="1001" type="line"/>
			<point x="398" y="1112" type="line" smooth="yes"/>
			<point x="398" y="1217"/>
			<point x="441" y="1289"/>
			<point x="551" y="1290" type="curve" smooth="yes"/>
			<point x="589" y="1290"/>
			<point x="623" y="1279"/>
			<point x="658" y="1279" type="curve" smooth="yes"/>
			<point x="685" y="1279"/>
			<point x="741" y="1289"/>
			<point x="741" y="1325" type="curve" smooth="yes"/>
			<point x="741" y="1352"/>
			<point x="694" y="1366"/>
			<point x="671" y="1370" type="curve" smooth="yes"/>
			<point x="633" y="1377"/>
			<point x="593" y="1381"/>
			<point x="551" y="1381" type="curve" smooth="yes"/>
			<point x="377" y="1380"/>
			<point x="235" y="1305"/>
			<point x="235" y="1112" type="curve" smooth="yes"/>
			<point x="235" y="1001" type="line"/>
			<point x="106" y="1001" type="line" smooth="yes"/>
			<point x="61" y="1001"/>
			<point x="25" y="981"/>
			<point x="25" y="955" type="curve" smooth="yes"/>
			<point x="25" y="930"/>
			<point x="61" y="910"/>
			<point x="106" y="910" type="curve" smooth="yes"/>
			<point x="235" y="910" type="line"/>
			<point x="235" y="22" type="line" smooth="yes"/>
			<point x="235" y="-4"/>
			<point x="272" y="-24"/>
		</contour>
	</outline>
</glyph>
<glyph name="g" format="2">
	<unicode hex="0067"/>
	<advance height="2048" width="1132"/>
	<outline>
		<contour>
			<point x="1032" y="30" type="curve" smooth="yes"/>
			<point x="1032" y="955" type="line" smooth="yes"/>
			<point x="1032" y="981"/>
			<point x="997" y="1001"/>
			<point x="952" y="1001" type="curve" smooth="yes"/>
			<point x="907" y="1001"/>
			<point x="871" y="981"/>
			<point x="871" y="955" type="curve"/>
			<point x="870" y="849" type="line"/>
			<point x="808" y="932"/>
			<point x="687" y="1001"/>
			<point x="542" y="1001" type="curve" smooth="yes"/>
			<point x="237" y="1001"/>
			<point x="50" y="779"/>
			<point x="50" y="489" type="curve" smooth="yes"/>
			<point x="50" y="199"/>
			<point x="237" y="-23"/>
			<point x="542" y="-23" type="curve" smooth="yes"/>
			<point x="686" y="-23"/>
			<point x="807" y="40"/>
			<point x="870" y="125" type="curve"/>
			<point x="870" y="30" type="line" smooth="yes"/>
			<point x="870" y="-188"/>
			<point x="735" y="-313"/>
			<point x="520" y="-313" type="curve" smooth="yes"/>
			<point x="414" y="-313"/>
			<point x="270" y="-282"/>
			<point x="209" y="-192" type="curve" smooth="yes"/>
			<point x="194" y="-171"/>
			<point x="162" y="-163"/>
			<point x="134" y="-163" type="curve" smooth="yes"/>
			<point x="107" y="-163"/>
			<point x="51" y="-175"/>
			<point x="51" y="-207" type="curve" smooth="yes"/>
			<point x="51" y="-213"/>
			<point x="53" y="-218"/>
			<point x="57" y="-224" type="curve" smooth="yes"/>
			<point x="147" y="-357"/>
			<point x="363" y="-404"/>
			<point x="519" y="-404" type="curve" smooth="yes"/>
			<point x="794" y="-404"/>
			<point x="1032" y="-273"/>
		</contour>
		<contour>
			<point x="542" y="68" type="curve" smooth="yes"/>
			<point x="320" y="68"/>
			<point x="213" y="295"/>
			<point x="213" y="489" type="curve" smooth="yes"/>
			<point x="213" y="683"/>
			<point x="320" y="910"/>
			<point x="542" y="910" type="curve" smooth="yes"/>
			<point x="764" y="910"/>
			<point x="871" y="683"/>
			<point x="871" y="489" type="curve" smooth="yes"/>
			<point x="871" y="295"/>
			<point x="764" y="68"/>
		</contour>
	</outline>
</glyph>
<glyph name="h" format="2">
	<unicode hex="0068"/>
	<advance height="2048" width="1070"/>
	<outline>
		<contour>
			<point x="100" y="1336" type="line" smooth="yes"/>
			<point x="100" y="1361"/>
			<point x="137" y="1381"/>
			<point x="182" y="1381" type="curve" smooth="yes"/>
			<point x="227" y="1381"/>
			<point x="263" y="1361"/>
			<point x="263" y="1336" type="curve" smooth="yes"/>
			<point x="263" y="841" type="line"/>
			<point x="325" y="952"/>
			<point x="455" y="1001"/>
			<point x="583" y="1001" type="curve" smooth="yes"/>
			<point x="796" y="1002"/>
			<point x="1020" y="850"/>
			<point x="1020" y="552" type="curve" smooth="yes"/>
			<point x="1020" y="21" type="line" smooth="yes"/>
			<point x="1020" y="-4"/>
			<point x="983" y="-24"/>
			<point x="938" y="-24" type="curve" smooth="yes"/>
			<point x="893" y="-24"/>
			<point x="857" y="-4"/>
			<point x="857" y="21" type="curve" smooth="yes"/>
			<point x="857" y="552" type="line" smooth="yes"/>
			<point x="857" y="789"/>
			<point x="715" y="907"/>
			<point x="571" y="908" type="curve" smooth="yes"/>
			<point x="403" y="908"/>
			<point x="263" y="779"/>
			<point x="263" y="522" type="curve" smooth="yes"/>
			<point x="263" y="21" type="line" smooth="yes"/>
			<point x="263" y="-4"/>
			<point x="227" y="-24"/>
			<point x="182" y="-24" type="curve" smooth="yes"/>
			<point x="137" y="-24"/>
			<point x="100" y="-4"/>
			<point x="100" y="21" type="curve" smooth="yes"/>
		</contour>
	</outline>
</glyph>
<glyph name="i" format="2">
	<unicode hex="0069"/>
	<advance height="2048" width="380"/>
	<outline>
		<contour>
			<point x="190" y="1293" type="curve" smooth="yes"/>
			<point x="240" y="1293"/>
			<point x="280" y="1253"/>
			<point x="280" y="1203" type="curve" smooth="yes"/>
			<point x="280" y="1153"/>
			<point x="240" y="1113"/>
			<point x="190" y="1113" type="curve" smooth="yes"/>
			<point x="140" y="1113"/>
			<point x="100" y="1153"/>
			<point x="100" y="1203" type="curve" smooth="yes"/>
			<point x="100" y="1253"/>
			<point x="140" y="1293"/>
		</contour>
		<contour>
			<point x="108" y="955" type="line" smooth="yes"/>
			<point x="108" y="980"/>
			<point x="145" y="1000"/>
			<point x="190" y="1000" type="curve" smooth="yes"/>
			<point x="235" y="1000"/>
			<point x="272" y="980"/>
			<point x="272" y="955" type="curve" smooth="yes"/>
			<point x="272" y="22" type="line" smooth="yes"/>
			<point x="272" y="-3"/>
			<point x="235" y="-24"/>
			<point x="190" y="-24" type="curve" smooth="yes"/>
			<point x="145" y="-24"/>
			<point x="108" y="-3"/>
			<point x="108" y="22" type="curve" smooth="yes"/>
		</contour>
	</outline>
</glyph>
<glyph name="j" format="2">
	<unicode hex="006A"/>
	<advance height="2048" width="640"/>
	<outline>
		<contour>
			<point x="450" y="1291" type="curve" smooth="yes"/>
			<point x="500" y="1291"/>
			<point x="540" y="1251"/>
			<point x="540" y="1201" type="curve" smooth="yes"/>
			<point x="540" y="1151"/>
			<point x="500" y="1111"/>
			<point x="450" y="1111" type="curve" smooth="yes"/>
			<point x="400" y="1111"/>
			<point x="360" y="1151"/>
			<point x="360" y="1201" type="curve" smooth="yes"/>
			<point x="360" y="1251"/>
			<point x="400" y="1291"/>
		</contour>
		<contour>
			<point x="368" y="952" type="line" smooth="yes"/>
			<point x="368" y="977"/>
			<point x="405" y="998"/>
			<point x="450" y="998" type="curve" smooth="yes"/>
			<point x="495" y="998"/>
			<point x="532" y="977"/>
			<point x="532" y="952" type="curve" smooth="yes"/>
			<point x="532" y="-139" type="line" smooth="yes"/>
			<point x="532" y="-332"/>
			<point x="390" y="-408"/>
			<point x="215" y="-409" type="curve" smooth="yes"/>
			<point x="173" y="-409"/>
			<point x="133" y="-405"/>
			<point x="95" y="-398" type="curve" smooth="yes"/>
			<point x="68" y="-393"/>
			<point x="6" y="-375"/>
			<point x="30" y="-337" type="curve" smooth="yes"/>
			<point x="49" y="-308"/>
			<point x="102" y="-303"/>
			<point x="134" y="-309" type="curve" smooth="yes"/>
			<point x="159" y="-314"/>
			<point x="187" y="-318"/>
			<point x="215" y="-318" type="curve" smooth="yes"/>
			<point x="325" y="-317"/>
			<point x="368" y="-244"/>
			<point x="368" y="-139" type="curve" smooth="yes"/>
		</contour>
	</outline>
</glyph>
<glyph name="k" format="2">
	<unicode hex="006B"/>
	<advance height="2048" width="1068"/>
	<outline>
		<contour>
			<point x="100" y="1336" type="line" smooth="yes"/>
			<point x="100" y="1361"/>
			<point x="137" y="1381"/>
			<point x="182" y="1381" type="curve" smooth="yes"/>
			<point x="227" y="1381"/>
			<point x="263" y="1361"/>
			<point x="263" y="1336" type="curve" smooth="yes"/>
			<point x="263" y="477" type="line"/>
			<point x="853" y="982" type="line" smooth="yes"/>
			<point x="875" y="1002"/>
			<point x="920" y="1003"/>
			<point x="948" y="995" type="curve" smooth="yes"/>
			<point x="970" y="989"/>
			<point x="999" y="969"/>
			<point x="974" y="947" type="curve" smooth="yes"/>
			<point x="543" y="578" type="line"/>
			<point x="1034" y="47" type="line" smooth="yes"/>
			<point x="1065" y="13"/>
			<point x="1013" y="-13"/>
			<point x="985" y="-20" type="curve" smooth="yes"/>
			<point x="946" y="-29"/>
			<point x="880" y="-25"/>
			<point x="852" y="5" type="curve" smooth="yes"/>
			<point x="421" y="473" type="line"/>
			<point x="263" y="338" type="line"/>
			<point x="263" y="22" type="line" smooth="yes"/>
			<point x="263" y="-4"/>
			<point x="227" y="-24"/>
			<point x="182" y="-24" type="curve" smooth="yes"/>
			<point x="137" y="-24"/>
			<point x="100" y="-4"/>
			<point x="100" y="22" type="curve" smooth="yes"/>
		</contour>
	</outline>
</glyph>
<glyph name="l" format="2">
  <advance height="2048" width="313.0"/>
  <unicode hex="006C"/>
  <outline>
    <contour>
      <point x="75.0" y="1336.0" type="curve" smooth="yes"/>
      <point x="75.0" y="21.0" type="line" smooth="yes"/>
      <point x="75.0" y="-4.0"/>
      <point x="111.0" y="-24.0"/>
      <point x="157.0" y="-24.0" type="curve" smooth="yes"/>
      <point x="202.0" y="-24.0"/>
      <point x="238.0" y="-4.0"/>
      <point x="238.0" y="21.0" type="curve" smooth="yes"/>
      <point x="238.0" y="1336.0" type="line" smooth="yes"/>
      <point x="238.0" y="1361.0"/>
      <point x="202.0" y="1381.0"/>
      <point x="157.0" y="1381.0" type="curve" smooth="yes"/>
      <point x="111.0" y="1381.0"/>
      <point x="75.0" y="1361.0"/>
    </contour>
  </outline>
</glyph>
<glyph name="m" format="2">
	<unicode hex="006D"/>
	<advance height="2048" width="1725"/>
	<outline>
		<contour>
			<point x="263" y="844" type="line"/>
			<point x="327" y="962"/>
			<point x="447" y="1000"/>
			<point x="557" y="1000" type="curve" smooth="yes"/>
			<point x="693" y="1000"/>
			<point x="799" y="946"/>
			<point x="875" y="833" type="curve"/>
			<point x="950" y="958"/>
			<point x="1067" y="1000"/>
			<point x="1203" y="1000" type="curve" smooth="yes"/>
			<point x="1461" y="999"/>
			<point x="1625" y="810"/>
			<point x="1625" y="553" type="curve" smooth="yes"/>
			<point x="1625" y="21" type="line" smooth="yes"/>
			<point x="1625" y="-4"/>
			<point x="1589" y="-25"/>
			<point x="1543" y="-25" type="curve" smooth="yes"/>
			<point x="1498" y="-25"/>
			<point x="1462" y="-4"/>
			<point x="1462" y="21" type="curve" smooth="yes"/>
			<point x="1462" y="553" type="line" smooth="yes"/>
			<point x="1462" y="723"/>
			<point x="1397" y="906"/>
			<point x="1202" y="906" type="curve" smooth="yes"/>
			<point x="1008" y="906"/>
			<point x="945" y="720"/>
			<point x="945" y="553" type="curve" smooth="yes"/>
			<point x="945" y="21" type="line" smooth="yes"/>
			<point x="945" y="-4"/>
			<point x="908" y="-25"/>
			<point x="863" y="-25" type="curve" smooth="yes"/>
			<point x="818" y="-25"/>
			<point x="782" y="-4"/>
			<point x="782" y="21" type="curve" smooth="yes"/>
			<point x="782" y="553" type="line" smooth="yes"/>
			<point x="782" y="723"/>
			<point x="721" y="906"/>
			<point x="525" y="906" type="curve" smooth="yes"/>
			<point x="331" y="906"/>
			<point x="263" y="697"/>
			<point x="263" y="521" type="curve" smooth="yes"/>
			<point x="263" y="21" type="line" smooth="yes"/>
			<point x="263" y="-4"/>
			<point x="227" y="-24"/>
			<point x="182" y="-24" type="curve" smooth="yes"/>
			<point x="136" y="-24"/>
			<point x="100" y="-4"/>
			<point x="100" y="21" type="curve" smooth="yes"/>
			<point x="100" y="954" type="line" smooth="yes"/>
			<point x="100" y="980"/>
			<point x="136" y="1000"/>
			<point x="182" y="1000" type="curve" smooth="yes"/>
			<point x="227" y="1000"/>
			<point x="263" y="980"/>
			<point x="263" y="954" type="curve" smooth="yes"/>
		</contour>
	</outline>
</glyph>
<glyph name="n" format="2">
	<unicode hex="006E"/>
	<advance height="2048" width="1120"/>
	<outline>
		<contour>
			<point x="100" y="955" type="line" smooth="yes"/>
			<point x="100" y="980"/>
			<point x="137" y="1001"/>
			<point x="182" y="1001" type="curve" smooth="yes"/>
			<point x="227" y="1001"/>
			<point x="263" y="980"/>
			<point x="263" y="955" type="curve" smooth="yes"/>
			<point x="263" y="842" type="line"/>
			<point x="325" y="953"/>
			<point x="455" y="1002"/>
			<point x="583" y="1002" type="curve" smooth="yes"/>
			<point x="796" y="1002"/>
			<point x="1020" y="850"/>
			<point x="1020" y="552" type="curve" smooth="yes"/>
			<point x="1020" y="22" type="line" smooth="yes"/>
			<point x="1020" y="-4"/>
			<point x="983" y="-24"/>
			<point x="938" y="-24" type="curve" smooth="yes"/>
			<point x="893" y="-24"/>
			<point x="857" y="-4"/>
			<point x="857" y="22" type="curve" smooth="yes"/>
			<point x="857" y="552" type="line" smooth="yes"/>
			<point x="857" y="789"/>
			<point x="715" y="908"/>
			<point x="571" y="908" type="curve" smooth="yes"/>
			<point x="403" y="909"/>
			<point x="263" y="780"/>
			<point x="263" y="523" type="curve" smooth="yes"/>
			<point x="263" y="22" type="line" smooth="yes"/>
			<point x="263" y="-4"/>
			<point x="227" y="-24"/>
			<point x="182" y="-24" type="curve" smooth="yes"/>
			<point x="137" y="-24"/>
			<point x="100" y="-4"/>
			<point x="100" y="22" type="curve" smooth="yes"/>
		</contour>
	</outline>
</glyph>
<glyph name="o" format="2">
	<unicode hex="006F"/>
	<advance height="2048" width="1150"/>
	<outline>
		<contour>
			<point x="575" y="909" type="curve" smooth="yes"/>
			<point x="809" y="909"/>
			<point x="937" y="700"/>
			<point x="937" y="488" type="curve" smooth="yes"/>
			<point x="937" y="275"/>
			<point x="809" y="67"/>
			<point x="575" y="67" type="curve" smooth="yes"/>
			<point x="341" y="67"/>
			<point x="213" y="275"/>
			<point x="213" y="488" type="curve" smooth="yes"/>
			<point x="213" y="700"/>
			<point x="341" y="909"/>
		</contour>
		<contour>
			<point x="575" y="1000" type="curve" smooth="yes"/>
			<point x="266" y="1000"/>
			<point x="50" y="792"/>
			<point x="50" y="488" type="curve" smooth="yes"/>
			<point x="50" y="184"/>
			<point x="266" y="-25"/>
			<point x="575" y="-25" type="curve" smooth="yes"/>
			<point x="884" y="-25"/>
			<point x="1100" y="184"/>
			<point x="1100" y="488" type="curve" smooth="yes"/>
			<point x="1100" y="792"/>
			<point x="884" y="1000"/>
		</contour>
	</outline>
</glyph>
<glyph name="p" format="2">
  <advance height="2048" width="1134.0"/>
  <unicode hex="0070"/>
  <outline>
    <contour>
      <point x="592.0" y="-24.0" type="curve" smooth="yes"/>
      <point x="897.0" y="-24.0"/>
      <point x="1084.0" y="198.0"/>
      <point x="1084.0" y="488.0" type="curve" smooth="yes"/>
      <point x="1084.0" y="778.0"/>
      <point x="897.0" y="1000.0"/>
      <point x="592.0" y="1000.0" type="curve" smooth="yes"/>
      <point x="447.0" y="1000.0"/>
      <point x="322.0" y="934.0"/>
      <point x="263.0" y="850.0" type="curve"/>
      <point x="263.0" y="956.0" type="line" smooth="yes"/>
      <point x="263.0" y="981.0"/>
      <point x="227.0" y="1001.0"/>
      <point x="182.0" y="1001.0" type="curve" smooth="yes"/>
      <point x="137.0" y="1001.0"/>
      <point x="100.0" y="981.0"/>
      <point x="100.0" y="956.0" type="curve" smooth="yes"/>
      <point x="100.0" y="-359.0" type="line" smooth="yes"/>
      <point x="100.0" y="-384.0"/>
      <point x="137.0" y="-404.0"/>
      <point x="182.0" y="-404.0" type="curve" smooth="yes"/>
      <point x="227.0" y="-404.0"/>
      <point x="263.0" y="-384.0"/>
      <point x="263.0" y="-359.0" type="curve" smooth="yes"/>
      <point x="263.0" y="126.0" type="line"/>
      <point x="322.0" y="42.0"/>
      <point x="447.0" y="-24.0"/>
    </contour>
    <contour>
      <point x="592.0" y="67.0" type="curve" smooth="yes"/>
      <point x="370.0" y="67.0"/>
      <point x="263.0" y="294.0"/>
      <point x="263.0" y="488.0" type="curve" smooth="yes"/>
      <point x="263.0" y="682.0"/>
      <point x="370.0" y="909.0"/>
      <point x="592.0" y="909.0" type="curve" smooth="yes"/>
      <point x="814.0" y="909.0"/>
      <point x="921.0" y="682.0"/>
      <point x="921.0" y="488.0" type="curve" smooth="yes"/>
      <point x="921.0" y="294.0"/>
      <point x="814.0" y="67.0"/>
    </contour>
  </outline>
</glyph>
<glyph name="r" format="2">
	<unicode hex="0072"/>
	<advance height="2048" width="764"/>
	<outline>
		<contour>
			<point x="182" y="-24" type="curve" smooth="yes"/>
			<point x="227" y="-24"/>
			<point x="263" y="-4"/>
			<point x="263" y="22" type="curve" smooth="yes"/>
			<point x="263" y="514" type="line" smooth="yes"/>
			<point x="263" y="673"/>
			<point x="314" y="907"/>
			<point x="505" y="907" type="curve" smooth="yes"/>
			<point x="592" y="907"/>
			<point x="618" y="856"/>
			<point x="665" y="856" type="curve" smooth="yes"/>
			<point x="681" y="856"/>
			<point x="698" y="861"/>
			<point x="712" y="871" type="curve" smooth="yes"/>
			<point x="728" y="883"/>
			<point x="739" y="898"/>
			<point x="739" y="914" type="curve" smooth="yes"/>
			<point x="739" y="925"/>
			<point x="733" y="937"/>
			<point x="719" y="946" type="curve" smooth="yes"/>
			<point x="658" y="986"/>
			<point x="597" y="1000"/>
			<point x="525" y="1000" type="curve" smooth="yes"/>
			<point x="410" y="1000"/>
			<point x="317" y="960"/>
			<point x="263" y="843" type="curve"/>
			<point x="263" y="954" type="line" smooth="yes"/>
			<point x="263" y="980"/>
			<point x="227" y="1000"/>
			<point x="182" y="1000" type="curve" smooth="yes"/>
			<point x="137" y="1000"/>
			<point x="100" y="980"/>
			<point x="100" y="954" type="curve" smooth="yes"/>
			<point x="100" y="22" type="line" smooth="yes"/>
			<point x="100" y="-4"/>
			<point x="137" y="-24"/>
		</contour>
	</outline>
</glyph>
<glyph name="s" format="2">
	<unicode hex="0073"/>
	<advance height="2048" width="1056"/>
	<outline>
		<contour>
			<point x="928" y="747" type="curve"/>
			<point x="928" y="745"/>
			<point x="929" y="742"/>
			<point x="929" y="740" type="curve" smooth="yes"/>
			<point x="929" y="708"/>
			<point x="872" y="695"/>
			<point x="846" y="696" type="curve" smooth="yes"/>
			<point x="807" y="696"/>
			<point x="772" y="712"/>
			<point x="767" y="735" type="curve" smooth="yes"/>
			<point x="739" y="850"/>
			<point x="643" y="911"/>
			<point x="529" y="909" type="curve" smooth="yes"/>
			<point x="424" y="907"/>
			<point x="286" y="844"/>
			<point x="287" y="723" type="curve" smooth="yes"/>
			<point x="288" y="674"/>
			<point x="335" y="640"/>
			<point x="392" y="617" type="curve" smooth="yes"/>
			<point x="449" y="594"/>
			<point x="516" y="581"/>
			<point x="553" y="575" type="curve" smooth="yes"/>
			<point x="648" y="561"/>
			<point x="747" y="551"/>
			<point x="838" y="492" type="curve" smooth="yes"/>
			<point x="906" y="447"/>
			<point x="954" y="387"/>
			<point x="956" y="289" type="curve" smooth="yes"/>
			<point x="960" y="92"/>
			<point x="742" y="-13"/>
			<point x="571" y="-23" type="curve" smooth="yes"/>
			<point x="365" y="-35"/>
			<point x="158" y="45"/>
			<point x="101" y="261" type="curve"/>
			<point x="100" y="264"/>
			<point x="100" y="266"/>
			<point x="100" y="269" type="curve" smooth="yes"/>
			<point x="100" y="301"/>
			<point x="155" y="313"/>
			<point x="181" y="313" type="curve" smooth="yes"/>
			<point x="221" y="314"/>
			<point x="256" y="297"/>
			<point x="262" y="274" type="curve" smooth="yes"/>
			<point x="299" y="133"/>
			<point x="410" y="59"/>
			<point x="554" y="68" type="curve" smooth="yes"/>
			<point x="665" y="74"/>
			<point x="795" y="157"/>
			<point x="794" y="279" type="curve" smooth="yes"/>
			<point x="793" y="328"/>
			<point x="752" y="362"/>
			<point x="700" y="385" type="curve" smooth="yes"/>
			<point x="644" y="410"/>
			<point x="576" y="422"/>
			<point x="536" y="428" type="curve" smooth="yes"/>
			<point x="437" y="442"/>
			<point x="334" y="450"/>
			<point x="245" y="510" type="curve" smooth="yes"/>
			<point x="163" y="566"/>
			<point x="127" y="640"/>
			<point x="124" y="713" type="curve" smooth="yes"/>
			<point x="117" y="911"/>
			<point x="362" y="997"/>
			<point x="524" y="1000" type="curve" smooth="yes"/>
			<point x="696" y="1003"/>
			<point x="884" y="930"/>
		</contour>
	</outline>
</glyph>
<glyph name="t" format="2">
	<unicode hex="0074"/>
	<advance height="2048" width="769"/>
	<outline>
		<contour>
			<point x="554" y="-24" type="curve" smooth="yes"/>
			<point x="596" y="-24"/>
			<point x="636" y="-20"/>
			<point x="674" y="-13" type="curve" smooth="yes"/>
			<point x="697" y="-9"/>
			<point x="744" y="5"/>
			<point x="744" y="32" type="curve" smooth="yes"/>
			<point x="744" y="67"/>
			<point x="688" y="78"/>
			<point x="661" y="78" type="curve" smooth="yes"/>
			<point x="626" y="78"/>
			<point x="592" y="67"/>
			<point x="554" y="67" type="curve" smooth="yes"/>
			<point x="444" y="68"/>
			<point x="401" y="140"/>
			<point x="401" y="245" type="curve" smooth="yes"/>
			<point x="401" y="909" type="line"/>
			<point x="589" y="909" type="line" smooth="yes"/>
			<point x="634" y="909"/>
			<point x="671" y="929"/>
			<point x="671" y="954" type="curve" smooth="yes"/>
			<point x="671" y="980"/>
			<point x="634" y="1000"/>
			<point x="589" y="1000" type="curve" smooth="yes"/>
			<point x="401" y="1000" type="line"/>
			<point x="401" y="1335" type="line" smooth="yes"/>
			<point x="401" y="1361"/>
			<point x="365" y="1381"/>
			<point x="320" y="1381" type="curve" smooth="yes"/>
			<point x="275" y="1381"/>
			<point x="238" y="1361"/>
			<point x="238" y="1335" type="curve" smooth="yes"/>
			<point x="238" y="1000" type="line"/>
			<point x="106" y="1000" type="line" smooth="yes"/>
			<point x="61" y="1000"/>
			<point x="25" y="980"/>
			<point x="25" y="954" type="curve" smooth="yes"/>
			<point x="25" y="929"/>
			<point x="61" y="909"/>
			<point x="106" y="909" type="curve" smooth="yes"/>
			<point x="238" y="909" type="line"/>
			<point x="238" y="245" type="line" smooth="yes"/>
			<point x="238" y="52"/>
			<point x="380" y="-23"/>
		</contour>
	</outline>
</glyph>
<glyph name="v" format="2">
	<unicode hex="0076"/>
	<advance height="2048" width="1036"/>
	<outline>
		<contour>
			<point x="604" y="10" type="curve" smooth="yes"/>
			<point x="1007" y="957" type="line" smooth="yes"/>
			<point x="1009" y="962"/>
			<point x="1011" y="967"/>
			<point x="1011" y="971" type="curve" smooth="yes"/>
			<point x="1011" y="995"/>
			<point x="975" y="1000"/>
			<point x="950" y="1000" type="curve" smooth="yes"/>
			<point x="925" y="1000"/>
			<point x="901" y="993"/>
			<point x="894" y="977" type="curve" smooth="yes"/>
			<point x="544" y="155" type="line"/>
			<point x="194" y="966" type="line" smooth="yes"/>
			<point x="185" y="989"/>
			<point x="149" y="1000"/>
			<point x="113" y="1000" type="curve" smooth="yes"/>
			<point x="84" y="1000"/>
			<point x="25" y="992"/>
			<point x="25" y="957" type="curve" smooth="yes"/>
			<point x="25" y="952"/>
			<point x="26" y="947"/>
			<point x="29" y="942" type="curve"/>
			<point x="431" y="10" type="line" smooth="yes"/>
			<point x="441" y="-12"/>
			<point x="477" y="-24"/>
			<point x="514" y="-24" type="curve" smooth="yes"/>
			<point x="555" y="-24"/>
			<point x="596" y="-11"/>
		</contour>
	</outline>
</glyph>
<glyph name="w" format="2">
	<unicode hex="0077"/>
	<advance height="2048" width="1651"/>
	<outline>
		<contour>
			<point x="52" y="948" type="line"/>
			<point x="50" y="951"/>
			<point x="50" y="954"/>
			<point x="50" y="957" type="curve" smooth="yes"/>
			<point x="50" y="977"/>
			<point x="78" y="995"/>
			<point x="119" y="999" type="curve"/>
			<point x="125" y="999"/>
			<point x="130" y="999"/>
			<point x="136" y="999" type="curve" smooth="yes"/>
			<point x="176" y="1000"/>
			<point x="212" y="985"/>
			<point x="220" y="965" type="curve" smooth="yes"/>
			<point x="529" y="186" type="line"/>
			<point x="769" y="963" type="line" smooth="yes"/>
			<point x="776" y="986"/>
			<point x="817" y="999"/>
			<point x="857" y="999" type="curve" smooth="yes"/>
			<point x="896" y="999"/>
			<point x="934" y="987"/>
			<point x="941" y="963" type="curve" smooth="yes"/>
			<point x="1172" y="187" type="line"/>
			<point x="1484" y="976" type="line" smooth="yes"/>
			<point x="1490" y="990"/>
			<point x="1515" y="1000"/>
			<point x="1542" y="1000" type="curve" smooth="yes"/>
			<point x="1546" y="1000"/>
			<point x="1550" y="1000"/>
			<point x="1553" y="999" type="curve"/>
			<point x="1582" y="997"/>
			<point x="1601" y="984"/>
			<point x="1601" y="970" type="curve" smooth="yes"/>
			<point x="1601" y="969"/>
			<point x="1601" y="967"/>
			<point x="1600" y="965" type="curve"/>
			<point x="1223" y="13" type="line" smooth="yes"/>
			<point x="1214" y="-11"/>
			<point x="1174" y="-24"/>
			<point x="1134" y="-24" type="curve" smooth="yes"/>
			<point x="1095" y="-24"/>
			<point x="1057" y="-12"/>
			<point x="1050" y="13" type="curve" smooth="yes"/>
			<point x="827" y="764" type="line"/>
			<point x="596" y="14" type="line" smooth="yes"/>
			<point x="588" y="-10"/>
			<point x="548" y="-24"/>
			<point x="508" y="-24" type="curve" smooth="yes"/>
			<point x="470" y="-24"/>
			<point x="433" y="-13"/>
			<point x="424" y="11" type="curve" smooth="yes"/>
		</contour>
	</outline>
</glyph>
<glyph name="x" format="2">
  <advance height="2048" width="1005.0"/>
  <unicode hex="0078"/>
  <outline>
    <contour>
      <point x="90.0" y="-24.0" type="curve" smooth="yes"/>
      <point x="112.0" y="-24.0"/>
      <point x="137.0" y="-19.0"/>
      <point x="150.0" y="-4.0" type="curve" smooth="yes"/>
      <point x="488.0" y="388.0" type="line"/>
      <point x="806.0" y="4.0" type="line" smooth="yes"/>
      <point x="823.0" y="-16.0"/>
      <point x="858.0" y="-24.0"/>
      <point x="889.0" y="-24.0" type="curve" smooth="yes"/>
      <point x="902.0" y="-24.0"/>
      <point x="925.0" y="-21.0"/>
      <point x="945.0" y="-14.0" type="curve" smooth="yes"/>
      <point x="964.0" y="-7.0"/>
      <point x="980.0" y="4.0"/>
      <point x="980.0" y="21.0" type="curve" smooth="yes"/>
      <point x="980.0" y="26.0"/>
      <point x="978.0" y="32.0"/>
      <point x="973.0" y="38.0" type="curve" smooth="yes"/>
      <point x="586.0" y="505.0" type="line"/>
      <point x="973.0" y="955.0" type="line"/>
      <point x="977.0" y="959.0"/>
      <point x="978.0" y="964.0"/>
      <point x="978.0" y="967.0" type="curve" smooth="yes"/>
      <point x="978.0" y="980.0"/>
      <point x="965.0" y="988.0"/>
      <point x="951.0" y="993.0" type="curve" smooth="yes"/>
      <point x="939.0" y="997.0"/>
      <point x="925.0" y="1000.0"/>
      <point x="910.0" y="1000.0" type="curve" smooth="yes"/>
      <point x="889.0" y="1000.0"/>
      <point x="867.0" y="994.0"/>
      <point x="855.0" y="980.0" type="curve" smooth="yes"/>
      <point x="517.0" y="588.0" type="line"/>
      <point x="199.0" y="972.0" type="line" smooth="yes"/>
      <point x="182.0" y="992.0"/>
      <point x="146.0" y="1000.0"/>
      <point x="114.0" y="1000.0" type="curve" smooth="yes"/>
      <point x="101.0" y="1000.0"/>
      <point x="81.0" y="997.0"/>
      <point x="63.0" y="991.0" type="curve" smooth="yes"/>
      <point x="42.0" y="984.0"/>
      <point x="25.0" y="972.0"/>
      <point x="25.0" y="955.0" type="curve" smooth="yes"/>
      <point x="25.0" y="950.0"/>
      <point x="27.0" y="944.0"/>
      <point x="32.0" y="938.0" type="curve" smooth="yes"/>
      <point x="419.0" y="471.0" type="line"/>
      <point x="34.0" y="23.0" type="line"/>
      <point x="29.0" y="16.0"/>
      <point x="27.0" y="11.0"/>
      <point x="27.0" y="6.0" type="curve" smooth="yes"/>
      <point x="27.0" y="-7.0"/>
      <point x="42.0" y="-15.0"/>
      <point x="57.0" y="-19.0" type="curve" smooth="yes"/>
      <point x="69.0" y="-22.0"/>
      <point x="82.0" y="-24.0"/>
    </contour>
  </outline>
</glyph>
<glyph name="y" format="2">
	<unicode hex="0079"/>
	<advance height="2048" width="1120"/>
	<outline>
		<contour>
			<point x="857" y="112" type="line"/>
			<point x="791" y="26"/>
			<point x="670" y="-19"/>
			<point x="560" y="-19" type="curve" smooth="yes"/>
			<point x="296" y="-19"/>
			<point x="100" y="155"/>
			<point x="100" y="429" type="curve" smooth="yes"/>
			<point x="100" y="959" type="line" smooth="yes"/>
			<point x="100" y="984"/>
			<point x="137" y="1005"/>
			<point x="182" y="1005" type="curve" smooth="yes"/>
			<point x="227" y="1005"/>
			<point x="263" y="984"/>
			<point x="263" y="959" type="curve" smooth="yes"/>
			<point x="263" y="429" type="line" smooth="yes"/>
			<point x="263" y="250"/>
			<point x="365" y="72"/>
			<point x="560" y="72" type="curve" smooth="yes"/>
			<point x="747" y="72"/>
			<point x="857" y="255"/>
			<point x="857" y="431" type="curve" smooth="yes"/>
			<point x="857" y="959" type="line" smooth="yes"/>
			<point x="857" y="984"/>
			<point x="893" y="1005"/>
			<point x="938" y="1005" type="curve" smooth="yes"/>
			<point x="983" y="1005"/>
			<point x="1020" y="984"/>
			<point x="1020" y="959" type="curve" smooth="yes"/>
			<point x="1020" y="34" type="line" smooth="yes"/>
			<point x="1020" y="-258"/>
			<point x="835" y="-390"/>
			<point x="564" y="-399" type="curve" smooth="yes"/>
			<point x="407" y="-405"/>
			<point x="206" y="-360"/>
			<point x="111" y="-220" type="curve" smooth="yes"/>
			<point x="89" y="-189"/>
			<point x="132" y="-167"/>
			<point x="158" y="-161" type="curve" smooth="yes"/>
			<point x="190" y="-155"/>
			<point x="243" y="-159"/>
			<point x="263" y="-188" type="curve" smooth="yes"/>
			<point x="327" y="-282"/>
			<point x="449" y="-312"/>
			<point x="555" y="-309" type="curve" smooth="yes"/>
			<point x="765" y="-301"/>
			<point x="857" y="-178"/>
			<point x="857" y="34" type="curve" smooth="yes"/>
		</contour>
	</outline>
</glyph>
<glyph name="z" format="2">
	<unicode hex="007A"/>
	<advance height="2048" width="1009"/>
	<outline>
		<contour>
			<point x="130" y="885" type="line" smooth="yes"/>
			<point x="85" y="885"/>
			<point x="49" y="905"/>
			<point x="49" y="930" type="curve" smooth="yes"/>
			<point x="49" y="956"/>
			<point x="85" y="976"/>
			<point x="130" y="976" type="curve" smooth="yes"/>
			<point x="890" y="976" type="line" smooth="yes"/>
			<point x="909" y="976"/>
			<point x="937" y="970"/>
			<point x="956" y="960" type="curve" smooth="yes"/>
			<point x="977" y="950"/>
			<point x="994" y="931"/>
			<point x="975" y="910" type="curve" smooth="yes"/>
			<point x="252" y="91" type="line"/>
			<point x="902" y="91" type="line" smooth="yes"/>
			<point x="947" y="91"/>
			<point x="984" y="70"/>
			<point x="984" y="45" type="curve" smooth="yes"/>
			<point x="984" y="20"/>
			<point x="947" y="-1"/>
			<point x="902" y="-1" type="curve" smooth="yes"/>
			<point x="122" y="-1" type="line" smooth="yes"/>
			<point x="103" y="-1"/>
			<point x="69" y="6"/>
			<point x="52" y="15" type="curve" smooth="yes"/>
			<point x="31" y="25"/>
			<point x="15" y="45"/>
			<point x="33" y="65" type="curve" smooth="yes"/>
			<point x="756" y="885" type="line"/>
		</contour>
	</outline>
</glyph>
<glyph name="braceleft" format="2">
	<unicode hex="007B"/>
	<advance height="2048" width="648"/>
	<outline>
		<contour>
			<point x="130" y="565" type="curve" smooth="yes"/>
			<point x="232" y="565"/>
			<point x="220" y="672"/>
			<point x="220" y="757" type="curve" smooth="yes"/>
			<point x="220" y="1227" type="line" smooth="yes"/>
			<point x="220" y="1273"/>
			<point x="241" y="1316"/>
			<point x="275" y="1347" type="curve" smooth="yes"/>
			<point x="347" y="1415"/>
			<point x="429" y="1410"/>
			<point x="518" y="1410" type="curve" smooth="yes"/>
			<point x="563" y="1410"/>
			<point x="598" y="1390"/>
			<point x="598" y="1365" type="curve" smooth="yes"/>
			<point x="598" y="1340"/>
			<point x="563" y="1320"/>
			<point x="518" y="1320" type="curve" smooth="yes"/>
			<point x="480" y="1320"/>
			<point x="442" y="1330"/>
			<point x="412" y="1302" type="curve" smooth="yes"/>
			<point x="392" y="1283"/>
			<point x="380" y="1257"/>
			<point x="380" y="1227" type="curve" smooth="yes"/>
			<point x="380" y="757" type="line" smooth="yes"/>
			<point x="380" y="618"/>
			<point x="366" y="551"/>
			<point x="306" y="520" type="curve"/>
			<point x="366" y="489"/>
			<point x="380" y="422"/>
			<point x="380" y="283" type="curve" smooth="yes"/>
			<point x="380" y="-187" type="line" smooth="yes"/>
			<point x="380" y="-217"/>
			<point x="392" y="-243"/>
			<point x="412" y="-262" type="curve" smooth="yes"/>
			<point x="442" y="-289"/>
			<point x="480" y="-280"/>
			<point x="518" y="-280" type="curve" smooth="yes"/>
			<point x="563" y="-280"/>
			<point x="598" y="-300"/>
			<point x="598" y="-325" type="curve" smooth="yes"/>
			<point x="598" y="-350"/>
			<point x="563" y="-370"/>
			<point x="518" y="-370" type="curve" smooth="yes"/>
			<point x="429" y="-370"/>
			<point x="347" y="-375"/>
			<point x="275" y="-307" type="curve" smooth="yes"/>
			<point x="241" y="-276"/>
			<point x="220" y="-233"/>
			<point x="220" y="-187" type="curve" smooth="yes"/>
			<point x="220" y="283" type="line" smooth="yes"/>
			<point x="220" y="369"/>
			<point x="232" y="475"/>
			<point x="130" y="475" type="curve" smooth="yes"/>
			<point x="77" y="475"/>
			<point x="51" y="497"/>
			<point x="51" y="520" type="curve" smooth="yes"/>
			<point x="50" y="542"/>
			<point x="77" y="565"/>
		</contour>
	</outline>
</glyph>
<glyph name="asciitilde" format="2">
	<unicode hex="007E"/>
	<advance height="2048" width="1275"/>
	<outline>
		<contour>
			<point x="262" y="1117" type="curve"/>
			<point x="260" y="1091"/>
			<point x="221" y="1072"/>
			<point x="176" y="1074" type="curve" smooth="yes"/>
			<point x="133" y="1076"/>
			<point x="100" y="1096"/>
			<point x="100" y="1120" type="curve" smooth="yes"/>
			<point x="101" y="1199"/>
			<point x="132" y="1273"/>
			<point x="184" y="1327" type="curve" smooth="yes"/>
			<point x="233" y="1379"/>
			<point x="300" y="1412"/>
			<point x="376" y="1415" type="curve" smooth="yes"/>
			<point x="530" y="1422"/>
			<point x="615" y="1344"/>
			<point x="701" y="1265" type="curve" smooth="yes"/>
			<point x="762" y="1209"/>
			<point x="825" y="1152"/>
			<point x="889" y="1151" type="curve" smooth="yes"/>
			<point x="974" y="1149"/>
			<point x="1007" y="1323"/>
			<point x="1013" y="1373" type="curve" smooth="yes"/>
			<point x="1015" y="1398"/>
			<point x="1054" y="1418"/>
			<point x="1099" y="1416" type="curve" smooth="yes"/>
			<point x="1142" y="1415"/>
			<point x="1175" y="1395"/>
			<point x="1175" y="1371" type="curve" smooth="yes"/>
			<point x="1175" y="1309"/>
			<point x="1141" y="1207"/>
			<point x="1103" y="1157" type="curve" smooth="yes"/>
			<point x="1057" y="1095"/>
			<point x="986" y="1058"/>
			<point x="883" y="1060" type="curve" smooth="yes"/>
			<point x="731" y="1063"/>
			<point x="646" y="1141"/>
			<point x="562" y="1218" type="curve" smooth="yes"/>
			<point x="502" y="1273"/>
			<point x="443" y="1327"/>
			<point x="388" y="1324" type="curve" smooth="yes"/>
			<point x="309" y="1321"/>
			<point x="270" y="1177"/>
		</contour>
	</outline>
</glyph>
<glyph name="cent" format="2">
	<unicode hex="00A2"/>
	<advance height="2048" width="1184"/>
	<outline>
		<contour>
			<point x="327.042" y="-23.278" type="line" smooth="yes"/>
			<point x="349.038" y="-23.278"/>
			<point x="379.961" y="-18.184"/>
			<point x="387.03" y="-0.172" type="curve" smooth="yes"/>
			<point x="459.465" y="184.39" type="line"/>
			<point x="506.487" y="172.543"/>
			<point x="557.18" y="166.351"/>
			<point x="611.011" y="166.351" type="curve" smooth="yes"/>
			<point x="763.141" y="166.351"/>
			<point x="941.127" y="228.144"/>
			<point x="1030.64" y="355.913" type="curve" smooth="yes"/>
			<point x="1051.657" y="385.913"/>
			<point x="1083.934" y="452.512"/>
			<point x="1083.998" y="489.125" type="curve" smooth="yes"/>
			<point x="1084.053" y="520.25"/>
			<point x="1026.914" y="532.279"/>
			<point x="1003.156" y="532.279" type="curve" smooth="yes"/>
			<point x="961.164" y="532.279"/>
			<point x="926.169" y="514.263"/>
			<point x="922.061" y="491.398" type="curve" smooth="yes"/>
			<point x="897.064" y="352.295"/>
			<point x="754.983" y="257.444"/>
			<point x="618.12" y="257.444" type="curve" smooth="yes"/>
			<point x="573.192" y="257.444"/>
			<point x="532.522" y="264.625"/>
			<point x="496.095" y="277.722" type="curve"/>
			<point x="798.669" y="1048.675" type="line"/>
			<point x="861.783" y="1008.457"/>
			<point x="909.369" y="945.875"/>
			<point x="920.061" y="866.435" type="curve" smooth="yes"/>
			<point x="923.285" y="842.483"/>
			<point x="958.942" y="824.443"/>
			<point x="1001.156" y="824.443" type="curve" smooth="yes"/>
			<point x="1027.789" y="824.443"/>
			<point x="1082.003" y="836.321"/>
			<point x="1081.994" y="870.526" type="curve" smooth="yes"/>
			<point x="1081.983" y="912.597"/>
			<point x="1048.477" y="981.45"/>
			<point x="1025.301" y="1013.068" type="curve" smooth="yes"/>
			<point x="979.9" y="1075.009"/>
			<point x="912.765" y="1120.3"/>
			<point x="838.278" y="1149.6" type="curve"/>
			<point x="910.456" y="1333.507" type="line" smooth="yes"/>
			<point x="913.015" y="1340.028"/>
			<point x="915.916" y="1345.965"/>
			<point x="915.905" y="1351.754" type="curve" smooth="yes"/>
			<point x="915.866" y="1373.741"/>
			<point x="873.013" y="1380"/>
			<point x="856.937" y="1380" type="curve" smooth="yes"/>
			<point x="834.942" y="1380"/>
			<point x="804.018" y="1374.905"/>
			<point x="796.949" y="1356.894" type="curve" smooth="yes"/>
			<point x="727.82" y="1180.755" type="line"/>
			<point x="692.234" y="1187.186"/>
			<point x="656.549" y="1190.371"/>
			<point x="622.12" y="1190.371" type="curve" smooth="yes"/>
			<point x="310.029" y="1190.371"/>
			<point x="99.548" y="985.822"/>
			<point x="100.001" y="672.473" type="curve" smooth="yes"/>
			<point x="100.303" y="462.889"/>
			<point x="195.769" y="304.305"/>
			<point x="352.435" y="224.282" type="curve"/>
			<point x="270.465" y="15.424" type="line" smooth="yes"/>
			<point x="268.981" y="11.642"/>
			<point x="268.101" y="8.163"/>
			<point x="268.094" y="4.893" type="curve" smooth="yes"/>
			<point x="268.05" y="-17.608"/>
			<point x="310.717" y="-23.278"/>
			<point x="327.042" y="-23.278" type="curve" smooth="yes"/>
		</contour>
		<contour>
			<point x="692.93" y="1091.855" type="line"/>
			<point x="396.407" y="336.321" type="line"/>
			<point x="307.647" y="413.843"/>
			<point x="263.08" y="539.573"/>
			<point x="263.08" y="672.473" type="curve" smooth="yes"/>
			<point x="263.08" y="892.513"/>
			<point x="382.079" y="1099.278"/>
			<point x="624.119" y="1099.278" type="curve" smooth="yes"/>
			<point x="647.188" y="1099.278"/>
			<point x="670.318" y="1096.745"/>
			<point x="692.93" y="1091.855" type="curve"/>
		</contour>
	</outline>
</glyph>
<glyph name="pound" format="2">
  <advance height="2048" width="1235.0"/>
  <unicode hex="00A3"/>
  <outline>
    <contour>
      <point x="151.0" y="-24.0" type="curve" smooth="yes"/>
      <point x="172.0" y="-24.0"/>
      <point x="193.0" y="-20.0"/>
      <point x="211.0" y="-10.0" type="curve" smooth="yes"/>
      <point x="289.0" y="34.0"/>
      <point x="374.0" y="68.0"/>
      <point x="465.0" y="68.0" type="curve" smooth="yes"/>
      <point x="584.0" y="68.0"/>
      <point x="711.0" y="-18.0"/>
      <point x="867.0" y="-18.0" type="curve" smooth="yes"/>
      <point x="970.0" y="-18.0"/>
      <point x="1070.0" y="17.0"/>
      <point x="1160.0" y="65.0" type="curve" smooth="yes"/>
      <point x="1176.0" y="73.0"/>
      <point x="1185.0" y="85.0"/>
      <point x="1185.0" y="98.0" type="curve" smooth="yes"/>
      <point x="1185.0" y="109.0"/>
      <point x="1178.0" y="120.0"/>
      <point x="1163.0" y="129.0" type="curve"/>
      <point x="1146.0" y="138.0"/>
      <point x="1124.0" y="143.0"/>
      <point x="1103.0" y="143.0" type="curve" smooth="yes"/>
      <point x="1083.0" y="143.0"/>
      <point x="1063.0" y="139.0"/>
      <point x="1048.0" y="131.0" type="curve" smooth="yes"/>
      <point x="988.0" y="98.0"/>
      <point x="929.0" y="79.0"/>
      <point x="861.0" y="79.0" type="curve" smooth="yes"/>
      <point x="728.0" y="79.0"/>
      <point x="612.0" y="159.0"/>
      <point x="465.0" y="159.0" type="curve" smooth="yes"/>
      <point x="437.0" y="159.0"/>
      <point x="410.0" y="157.0"/>
      <point x="383.0" y="154.0" type="curve"/>
      <point x="456.0" y="244.0"/>
      <point x="504.0" y="343.0"/>
      <point x="504.0" y="461.0" type="curve" smooth="yes"/>
      <point x="504.0" y="516.0"/>
      <point x="494.0" y="571.0"/>
      <point x="479.0" y="624.0" type="curve"/>
      <point x="770.0" y="624.0" type="line" smooth="yes"/>
      <point x="815.0" y="624.0"/>
      <point x="851.0" y="644.0"/>
      <point x="851.0" y="670.0" type="curve" smooth="yes"/>
      <point x="851.0" y="695.0"/>
      <point x="815.0" y="715.0"/>
      <point x="770.0" y="715.0" type="curve" smooth="yes"/>
      <point x="451.0" y="715.0" type="line"/>
      <point x="422.0" y="805.0"/>
      <point x="391.0" y="895.0"/>
      <point x="391.0" y="990.0" type="curve" smooth="yes"/>
      <point x="390.0" y="1142.0"/>
      <point x="510.0" y="1290.0"/>
      <point x="667.0" y="1290.0" type="curve" smooth="yes"/>
      <point x="817.0" y="1290.0"/>
      <point x="899.0" y="1145.0"/>
      <point x="924.0" y="1015.0" type="curve" smooth="yes"/>
      <point x="929.0" y="992.0"/>
      <point x="963.0" y="975.0"/>
      <point x="1003.0" y="975.0" type="curve" smooth="yes"/>
      <point x="1027.0" y="975.0"/>
      <point x="1086.0" y="987.0"/>
      <point x="1086.0" y="1019.0" type="curve" smooth="yes"/>
      <point x="1086.0" y="1029.0"/>
      <point x="1081.0" y="1049.0"/>
      <point x="1075.0" y="1069.0" type="curve" smooth="yes"/>
      <point x="1016.0" y="1263.0"/>
      <point x="880.0" y="1381.0"/>
      <point x="670.0" y="1381.0" type="curve" smooth="yes"/>
      <point x="444.0" y="1381.0"/>
      <point x="229.0" y="1231.0"/>
      <point x="229.0" y="990.0" type="curve" smooth="yes"/>
      <point x="229.0" y="892.0"/>
      <point x="257.0" y="803.0"/>
      <point x="286.0" y="715.0" type="curve"/>
      <point x="131.0" y="715.0" type="line" smooth="yes"/>
      <point x="86.0" y="715.0"/>
      <point x="50.0" y="695.0"/>
      <point x="50.0" y="670.0" type="curve" smooth="yes"/>
      <point x="50.0" y="644.0"/>
      <point x="86.0" y="624.0"/>
      <point x="131.0" y="624.0" type="curve" smooth="yes"/>
      <point x="314.0" y="624.0" type="line"/>
      <point x="329.0" y="570.0"/>
      <point x="341.0" y="517.0"/>
      <point x="341.0" y="461.0" type="curve" smooth="yes"/>
      <point x="341.0" y="284.0"/>
      <point x="214.0" y="151.0"/>
      <point x="85.0" y="48.0" type="curve" smooth="yes"/>
      <point x="74.0" y="39.0"/>
      <point x="70.0" y="31.0"/>
      <point x="70.0" y="22.0" type="curve" smooth="yes"/>
      <point x="70.0" y="6.0"/>
      <point x="85.0" y="-8.0"/>
      <point x="104.0" y="-16.0" type="curve" smooth="yes"/>
      <point x="118.0" y="-22.0"/>
      <point x="134.0" y="-24.0"/>
    </contour>
  </outline>
</glyph>
<glyph name="currency" format="2">
	<unicode hex="00A4"/>
	<advance height="2048" width="951"/>
	<outline>
		<contour>
			<point x="475.055" y="91.963" type="line"/>
			<point x="347.074" y="91.963"/>
			<point x="283.084" y="205.037"/>
			<point x="283.084" y="319.001" type="curve" smooth="yes"/>
			<point x="283.084" y="432.964"/>
			<point x="347.074" y="548.038"/>
			<point x="475.055" y="548.038" type="curve" smooth="yes"/>
			<point x="603.925" y="548.038"/>
			<point x="667.916" y="432.964"/>
			<point x="667.916" y="319.001" type="curve" smooth="yes"/>
			<point x="667.916" y="205.037"/>
			<point x="603.036" y="91.963"/>
			<point x="475.055" y="91.963" type="curve"/>
		</contour>
		<contour>
			<point x="778.122" y="-23.999" type="line"/>
			<point x="791.008" y="-23.999"/>
			<point x="804.22" y="-22.331"/>
			<point x="814.116" y="-19.112" type="curve" smooth="yes"/>
			<point x="832.223" y="-13.221"/>
			<point x="851" y="-0.007"/>
			<point x="851" y="15.988" type="curve" smooth="yes"/>
			<point x="851" y="21.986"/>
			<point x="849.119" y="28.102"/>
			<point x="842.112" y="35.093" type="curve" smooth="yes"/>
			<point x="747.015" y="129.951" type="line"/>
			<point x="791.008" y="185.045"/>
			<point x="812.116" y="251.023"/>
			<point x="812.116" y="319.001" type="curve" smooth="yes"/>
			<point x="812.116" y="385.868"/>
			<point x="790.12" y="456.068"/>
			<point x="747.015" y="510.05" type="curve"/>
			<point x="842.112" y="604.908" type="line" smooth="yes"/>
			<point x="849.12" y="611.898"/>
			<point x="851" y="618.015"/>
			<point x="851" y="624.013" type="curve" smooth="yes"/>
			<point x="851" y="640.008"/>
			<point x="832.156" y="653.022"/>
			<point x="814.116" y="658.891" type="curve" smooth="yes"/>
			<point x="804.159" y="662.13"/>
			<point x="791.008" y="664"/>
			<point x="778.122" y="664" type="curve" smooth="yes"/>
			<point x="755.014" y="664"/>
			<point x="731.017" y="658.002"/>
			<point x="717.019" y="644.007" type="curve" smooth="yes"/>
			<point x="657.917" y="584.915" type="line"/>
			<point x="609.036" y="612.017"/>
			<point x="547.933" y="628.012"/>
			<point x="475.055" y="628.012" type="curve" smooth="yes"/>
			<point x="401.955" y="628.012"/>
			<point x="341.076" y="612.017"/>
			<point x="291.972" y="584.915" type="curve"/>
			<point x="233.091" y="644.007" type="line" smooth="yes"/>
			<point x="219.009" y="658.14"/>
			<point x="194.875" y="664"/>
			<point x="171.989" y="664" type="curve" smooth="yes"/>
			<point x="158.88" y="664"/>
			<point x="145.92" y="662.226"/>
			<point x="135.995" y="658.891" type="curve" smooth="yes"/>
			<point x="118.81" y="653.117"/>
			<point x="100" y="640.008"/>
			<point x="100" y="624.013" type="curve" smooth="yes"/>
			<point x="100" y="618.015"/>
			<point x="101.921" y="611.939"/>
			<point x="108.888" y="604.908" type="curve" smooth="yes"/>
			<point x="202.874" y="510.05" type="line"/>
			<point x="159.991" y="454.957"/>
			<point x="137.994" y="386.979"/>
			<point x="137.994" y="319.001" type="curve" smooth="yes"/>
			<point x="137.994" y="251.911"/>
			<point x="159.991" y="183.933"/>
			<point x="202.874" y="129.951" type="curve"/>
			<point x="108.888" y="35.093" type="line" smooth="yes"/>
			<point x="101.921" y="28.062"/>
			<point x="100" y="21.986"/>
			<point x="100" y="15.988" type="curve" smooth="yes"/>
			<point x="100" y="-0.007"/>
			<point x="118.739" y="-13.314"/>
			<point x="135.995" y="-19.112" type="curve" smooth="yes"/>
			<point x="145.86" y="-22.426"/>
			<point x="158.88" y="-23.999"/>
			<point x="171.989" y="-23.999" type="curve" smooth="yes"/>
			<point x="194.875" y="-23.999"/>
			<point x="219.008" y="-18.139"/>
			<point x="233.091" y="-4.006" type="curve" smooth="yes"/>
			<point x="291.972" y="55.086" type="line"/>
			<point x="341.076" y="27.984"/>
			<point x="401.955" y="11.989"/>
			<point x="475.055" y="11.989" type="curve" smooth="yes"/>
			<point x="547.933" y="11.989"/>
			<point x="609.036" y="27.984"/>
			<point x="657.917" y="55.086" type="curve"/>
			<point x="717.019" y="-4.006" type="line" smooth="yes"/>
			<point x="731.017" y="-18.001"/>
			<point x="755.014" y="-23.999"/>
			<point x="778.122" y="-23.999" type="curve"/>
		</contour>
	</outline>
</glyph>
<glyph name="yen" format="2">
	<unicode hex="00A5"/>
	<advance height="2048" width="1064"/>
	<outline>
		<contour>
			<point x="532" y="-24" type="curve" smooth="yes"/>
			<point x="577" y="-24"/>
			<point x="613" y="-4"/>
			<point x="613" y="21" type="curve" smooth="yes"/>
			<point x="613" y="376" type="line"/>
			<point x="894" y="376" type="line" smooth="yes"/>
			<point x="940" y="376"/>
			<point x="976" y="397"/>
			<point x="976" y="422" type="curve" smooth="yes"/>
			<point x="976" y="447"/>
			<point x="940" y="468"/>
			<point x="894" y="468" type="curve" smooth="yes"/>
			<point x="613" y="468" type="line"/>
			<point x="613" y="639" type="line"/>
			<point x="894" y="639" type="line" smooth="yes"/>
			<point x="940" y="639"/>
			<point x="976" y="659"/>
			<point x="976" y="684" type="curve" smooth="yes"/>
			<point x="976" y="709"/>
			<point x="940" y="730"/>
			<point x="894" y="730" type="curve" smooth="yes"/>
			<point x="663" y="730" type="line"/>
			<point x="1008" y="1333" type="line" smooth="yes"/>
			<point x="1011" y="1338"/>
			<point x="1014" y="1343"/>
			<point x="1014" y="1349" type="curve" smooth="yes"/>
			<point x="1014" y="1375"/>
			<point x="969" y="1381"/>
			<point x="949" y="1381" type="curve" smooth="yes"/>
			<point x="926" y="1381"/>
			<point x="900" y="1376"/>
			<point x="891" y="1360" type="curve" smooth="yes"/>
			<point x="559" y="753" type="line"/>
			<point x="224" y="1352" type="line" smooth="yes"/>
			<point x="213" y="1372"/>
			<point x="175" y="1381"/>
			<point x="137" y="1381" type="curve" smooth="yes"/>
			<point x="111" y="1381"/>
			<point x="50" y="1369"/>
			<point x="50" y="1337" type="curve" smooth="yes"/>
			<point x="50" y="1328"/>
			<point x="53" y="1323"/>
			<point x="57" y="1316" type="curve" smooth="yes"/>
			<point x="400" y="730" type="line"/>
			<point x="168" y="730" type="line" smooth="yes"/>
			<point x="123" y="730"/>
			<point x="87" y="709"/>
			<point x="87" y="684" type="curve" smooth="yes"/>
			<point x="87" y="659"/>
			<point x="123" y="639"/>
			<point x="168" y="639" type="curve" smooth="yes"/>
			<point x="450" y="639" type="line"/>
			<point x="450" y="468" type="line"/>
			<point x="168" y="468" type="line" smooth="yes"/>
			<point x="123" y="468"/>
			<point x="87" y="447"/>
			<point x="87" y="422" type="curve" smooth="yes"/>
			<point x="87" y="397"/>
			<point x="123" y="376"/>
			<point x="168" y="376" type="curve" smooth="yes"/>
			<point x="450" y="376" type="line"/>
			<point x="450" y="21" type="line" smooth="yes"/>
			<point x="450" y="-4"/>
			<point x="487" y="-24"/>
		</contour>
	</outline>
</glyph>
<glyph name="brokenbar" format="2">
	<unicode hex="00A6"/>
	<advance height="2048" width="315"/>
	<outline>
		<contour>
			<point x="215" y="4.738" type="line"/>
			<point x="215" y="707.543" type="line"/>
			<point x="100" y="707.543" type="line"/>
			<point x="100" y="4.738" type="line" smooth="yes"/>
			<point x="100" y="-11.136"/>
			<point x="125.744" y="-24.004"/>
			<point x="157.5" y="-24.004" type="curve" smooth="yes"/>
			<point x="189.256" y="-24.004"/>
			<point x="215" y="-11.135"/>
			<point x="215" y="4.738" type="curve"/>
		</contour>
		<contour>
			<point x="215" y="1024.453" type="line"/>
			<point x="215" y="1727.258" type="line" smooth="yes"/>
			<point x="215" y="1743.131"/>
			<point x="189.256" y="1756"/>
			<point x="157.5" y="1756" type="curve" smooth="yes"/>
			<point x="125.744" y="1756"/>
			<point x="100" y="1743.132"/>
			<point x="100" y="1727.258" type="curve" smooth="yes"/>
			<point x="100" y="1024.453" type="line"/>
		</contour>
	</outline>
</glyph>
<glyph name="section" format="2">
	<unicode hex="00A7"/>
	<advance height="2048" width="1152"/>
	<outline>
		<contour>
			<point x="850.793" y="657.953" type="line"/>
			<point x="875.326" y="700.704"/>
			<point x="889.563" y="749.121"/>
			<point x="889.563" y="798.816" type="curve" smooth="yes"/>
			<point x="889.563" y="851.762"/>
			<point x="871.052" y="902.669"/>
			<point x="825.825" y="941.206" type="curve" smooth="yes"/>
			<point x="769.819" y="988.94"/>
			<point x="699.197" y="1006.123"/>
			<point x="622.917" y="1020.532" type="curve" smooth="yes"/>
			<point x="530.227" y="1038.04"/>
			<point x="429.161" y="1051.438"/>
			<point x="335.843" y="1110.608" type="curve"/>
			<point x="307.064" y="1070.298"/>
			<point x="289.678" y="1022.162"/>
			<point x="289.678" y="970.37" type="curve" smooth="yes"/>
			<point x="289.678" y="919.99"/>
			<point x="308.19" y="870.64"/>
			<point x="352.911" y="832.608" type="curve" smooth="yes"/>
			<point x="424.841" y="771.859"/>
			<point x="514.361" y="757.734"/>
			<point x="607.62" y="740.898" type="curve" smooth="yes"/>
			<point x="688.912" y="726.223"/>
			<point x="772.939" y="709.358"/>
			<point x="850.793" y="657.953" type="curve"/>
		</contour>
		<contour>
			<point x="240.458" y="1194.491" type="line"/>
			<point x="191.761" y="1254.847"/>
			<point x="167.305" y="1326.289"/>
			<point x="167.305" y="1397.7" type="curve" smooth="yes"/>
			<point x="167.305" y="1627.092"/>
			<point x="395.691" y="1756"/>
			<point x="602.722" y="1756" type="curve" smooth="yes"/>
			<point x="815.697" y="1756"/>
			<point x="971.46" y="1644.98"/>
			<point x="1020.696" y="1435.063" type="curve" smooth="yes"/>
			<point x="1021.827" y="1430.238"/>
			<point x="1022.697" y="1425.796"/>
			<point x="1022.697" y="1423.406" type="curve" smooth="yes"/>
			<point x="1022.697" y="1394.608"/>
			<point x="980.542" y="1379.189"/>
			<point x="939.417" y="1379.189" type="curve" smooth="yes"/>
			<point x="901.911" y="1379.189"/>
			<point x="865.393" y="1392.042"/>
			<point x="860.261" y="1419.282" type="curve" smooth="yes"/>
			<point x="834.414" y="1551.724"/>
			<point x="744.656" y="1664.495"/>
			<point x="601.186" y="1664.495" type="curve" smooth="yes"/>
			<point x="462.514" y="1664.495"/>
			<point x="330.772" y="1549.556"/>
			<point x="330.772" y="1406.956" type="curve" smooth="yes"/>
			<point x="330.772" y="1356.576"/>
			<point x="349.284" y="1307.226"/>
			<point x="394.005" y="1269.194" type="curve" smooth="yes"/>
			<point x="465.935" y="1208.445"/>
			<point x="555.455" y="1194.32"/>
			<point x="648.714" y="1177.484" type="curve" smooth="yes"/>
			<point x="744.078" y="1160.268"/>
			<point x="843.208" y="1140.051"/>
			<point x="931.718" y="1064.58" type="curve" smooth="yes"/>
			<point x="1013.3" y="995.016"/>
			<point x="1052" y="902.143"/>
			<point x="1052" y="808.072" type="curve" smooth="yes"/>
			<point x="1052" y="705.377"/>
			<point x="1011.693" y="627.323"/>
			<point x="948.076" y="566.053" type="curve"/>
			<point x="990.491" y="507.473"/>
			<point x="1010.906" y="439.796"/>
			<point x="1010.906" y="371.486" type="curve" smooth="yes"/>
			<point x="1010.906" y="127.778"/>
			<point x="783.967" y="-23.816"/>
			<point x="556.999" y="-23.816" type="curve" smooth="yes"/>
			<point x="325.466" y="-23.816"/>
			<point x="155.092" y="111.294"/>
			<point x="102.634" y="336.59" type="curve" smooth="yes"/>
			<point x="101.132" y="343.041"/>
			<point x="100" y="349.326"/>
			<point x="100" y="354.005" type="curve" smooth="yes"/>
			<point x="100" y="382.277"/>
			<point x="141.629" y="397.696"/>
			<point x="183.28" y="397.696" type="curve" smooth="yes"/>
			<point x="220.281" y="397.696"/>
			<point x="256.778" y="385.369"/>
			<point x="262.437" y="358.128" type="curve" smooth="yes"/>
			<point x="294.87" y="208.628"/>
			<point x="390.49" y="67.667"/>
			<point x="557.503" y="67.667" type="curve" smooth="yes"/>
			<point x="712.953" y="67.667"/>
			<point x="848.469" y="208.884"/>
			<point x="848.469" y="362.23" type="curve" smooth="yes"/>
			<point x="848.469" y="415.176"/>
			<point x="829.957" y="466.083"/>
			<point x="784.731" y="504.62" type="curve" smooth="yes"/>
			<point x="728.724" y="552.354"/>
			<point x="658.102" y="569.537"/>
			<point x="581.823" y="583.946" type="curve" smooth="yes"/>
			<point x="473.252" y="604.454"/>
			<point x="353.187" y="619.308"/>
			<point x="247.544" y="708.708" type="curve" smooth="yes"/>
			<point x="166.8" y="777.037"/>
			<point x="126.21" y="869.105"/>
			<point x="126.21" y="961.114" type="curve" smooth="yes"/>
			<point x="126.21" y="1063.475"/>
			<point x="171.695" y="1139.119"/>
			<point x="240.458" y="1194.491" type="curve"/>
		</contour>
	</outline>
</glyph>
<glyph name="dieresis" format="2">
  <advance height="2048" width="576.0"/>
  <unicode hex="00A8"/>
  <outline>
    <contour>
      <point x="170.0" y="1260.0" type="curve" smooth="yes"/>
      <point x="120.0" y="1260.0"/>
      <point x="80.0" y="1220.0"/>
      <point x="80.0" y="1170.0" type="curve" smooth="yes"/>
      <point x="80.0" y="1120.0"/>
      <point x="120.0" y="1080.0"/>
      <point x="170.0" y="1080.0" type="curve" smooth="yes"/>
      <point x="220.0" y="1080.0"/>
      <point x="260.0" y="1120.0"/>
      <point x="260.0" y="1170.0" type="curve" smooth="yes"/>
      <point x="260.0" y="1220.0"/>
      <point x="220.0" y="1260.0"/>
    </contour>
    <contour>
      <point x="406.0" y="1260.0" type="curve" smooth="yes"/>
      <point x="356.0" y="1260.0"/>
      <point x="316.0" y="1220.0"/>
      <point x="316.0" y="1170.0" type="curve" smooth="yes"/>
      <point x="316.0" y="1120.0"/>
      <point x="356.0" y="1080.0"/>
      <point x="406.0" y="1080.0" type="curve" smooth="yes"/>
      <point x="456.0" y="1080.0"/>
      <point x="496.0" y="1120.0"/>
      <point x="496.0" y="1170.0" type="curve" smooth="yes"/>
      <point x="496.0" y="1220.0"/>
      <point x="456.0" y="1260.0"/>
    </contour>
  </outline>
</glyph>
<glyph name="copyright" format="2">
  <advance height="2048" width="1308.0"/>
  <unicode hex="00A9"/>
  <outline>
    <contour>
      <point x="654.0" y="-24.0" type="curve" smooth="yes"/>
      <point x="955.0" y="-24.0"/>
      <point x="1208.0" y="166.0"/>
      <point x="1208.0" y="488.0" type="curve" smooth="yes"/>
      <point x="1208.0" y="810.0"/>
      <point x="955.0" y="1000.0"/>
      <point x="654.0" y="1000.0" type="curve" smooth="yes"/>
      <point x="353.0" y="1000.0"/>
      <point x="100.0" y="810.0"/>
      <point x="100.0" y="488.0" type="curve" smooth="yes"/>
      <point x="100.0" y="166.0"/>
      <point x="353.0" y="-24.0"/>
    </contour>
    <contour>
      <point x="654.0" y="50.0" type="curve" smooth="yes"/>
      <point x="404.0" y="50.0"/>
      <point x="233.0" y="237.0"/>
      <point x="233.0" y="488.0" type="curve" smooth="yes"/>
      <point x="233.0" y="739.0"/>
      <point x="404.0" y="926.0"/>
      <point x="654.0" y="926.0" type="curve" smooth="yes"/>
      <point x="904.0" y="926.0"/>
      <point x="1075.0" y="739.0"/>
      <point x="1075.0" y="488.0" type="curve" smooth="yes"/>
      <point x="1075.0" y="237.0"/>
      <point x="904.0" y="50.0"/>
    </contour>
    <contour>
      <point x="924.0" y="383.0" type="curve" smooth="yes"/>
      <point x="906.0" y="383.0"/>
      <point x="876.0" y="377.0"/>
      <point x="873.0" y="358.0" type="curve" smooth="yes"/>
      <point x="857.0" y="260.0"/>
      <point x="764.0" y="194.0"/>
      <point x="667.0" y="194.0" type="curve" smooth="yes"/>
      <point x="507.0" y="194.0"/>
      <point x="435.0" y="347.0"/>
      <point x="435.0" y="487.0" type="curve" smooth="yes"/>
      <point x="435.0" y="633.0"/>
      <point x="513.0" y="782.0"/>
      <point x="676.0" y="782.0" type="curve" smooth="yes"/>
      <point x="772.0" y="782.0"/>
      <point x="858.0" y="715.0"/>
      <point x="871.0" y="618.0" type="curve" smooth="yes"/>
      <point x="874.0" y="597.0"/>
      <point x="908.0" y="593.0"/>
      <point x="925.0" y="593.0" type="curve" smooth="yes"/>
      <point x="940.0" y="593.0"/>
      <point x="972.0" y="600.0"/>
      <point x="972.0" y="619.0" type="curve" smooth="yes"/>
      <point x="972.0" y="623.0"/>
      <point x="972.0" y="626.0"/>
      <point x="971.0" y="630.0" type="curve"/>
      <point x="948.0" y="767.0"/>
      <point x="805.0" y="838.0"/>
      <point x="674.0" y="838.0" type="curve" smooth="yes"/>
      <point x="462.0" y="838.0"/>
      <point x="335.0" y="694.0"/>
      <point x="335.0" y="486.0" type="curve" smooth="yes"/>
      <point x="335.0" y="281.0"/>
      <point x="458.0" y="138.0"/>
      <point x="669.0" y="138.0" type="curve" smooth="yes"/>
      <point x="798.0" y="138.0"/>
      <point x="943.0" y="210.0"/>
      <point x="972.0" y="345.0" type="curve" smooth="yes"/>
      <point x="973.0" y="349.0"/>
      <point x="973.0" y="352.0"/>
      <point x="973.0" y="356.0" type="curve" smooth="yes"/>
      <point x="973.0" y="376.0"/>
      <point x="940.0" y="383.0"/>
    </contour>
  </outline>
</glyph>
<glyph name="feminineordinal" format="2">
	<unicode hex="00AA"/>
	<advance height="2048" width="865"/>
	<outline>
		<contour>
			<point x="711.395" y="1060" type="line" smooth="yes"/>
			<point x="728.876" y="1060"/>
			<point x="765" y="1067.604"/>
			<point x="765" y="1090.405" type="curve" smooth="yes"/>
			<point x="765" y="1097.75"/>
			<point x="760.376" y="1105.072"/>
			<point x="750.461" y="1110.969" type="curve" smooth="yes"/>
			<point x="733.976" y="1120.774"/>
			<point x="723.084" y="1134.103"/>
			<point x="716.058" y="1149.491" type="curve" smooth="yes"/>
			<point x="705.387" y="1172.866"/>
			<point x="703.464" y="1200.706"/>
			<point x="703.464" y="1226.569" type="curve" smooth="yes"/>
			<point x="703.464" y="1516.817" type="line" smooth="yes"/>
			<point x="703.464" y="1676.076"/>
			<point x="546.585" y="1737"/>
			<point x="410.617" y="1737" type="curve" smooth="yes"/>
			<point x="333.22" y="1737"/>
			<point x="259.802" y="1716.785"/>
			<point x="205.742" y="1680.889" type="curve" smooth="yes"/>
			<point x="154.059" y="1646.572"/>
			<point x="120.268" y="1596.872"/>
			<point x="119.827" y="1546.635" type="curve" smooth="yes"/>
			<point x="119.681" y="1530.038"/>
			<point x="143.618" y="1516.23"/>
			<point x="173.285" y="1516.23" type="curve" smooth="yes"/>
			<point x="203.099" y="1516.23"/>
			<point x="226.705" y="1530.038"/>
			<point x="226.891" y="1546.635" type="curve" smooth="yes"/>
			<point x="227.292" y="1582.331"/>
			<point x="251.275" y="1618.014"/>
			<point x="287.692" y="1641.817" type="curve" smooth="yes"/>
			<point x="322.064" y="1664.284"/>
			<point x="366.412" y="1676.777"/>
			<point x="410.617" y="1676.777" type="curve" smooth="yes"/>
			<point x="509.681" y="1676.777"/>
			<point x="595.666" y="1624.65"/>
			<point x="595.666" y="1516.817" type="curve" smooth="yes"/>
			<point x="595.666" y="1450.131" type="line"/>
			<point x="567.322" y="1432.21"/>
			<point x="522.968" y="1428.245"/>
			<point x="478.028" y="1428.245" type="curve" smooth="yes"/>
			<point x="441.018" y="1428.245"/>
			<point x="404.009" y="1430.889"/>
			<point x="375.664" y="1430.889" type="curve" smooth="yes"/>
			<point x="290.461" y="1430.889"/>
			<point x="193.157" y="1421.116"/>
			<point x="139.828" y="1363.02" type="curve" smooth="yes"/>
			<point x="110.611" y="1331.192"/>
			<point x="99" y="1291.291"/>
			<point x="99" y="1249.043" type="curve" smooth="yes"/>
			<point x="99" y="1178.38"/>
			<point x="138.445" y="1130.147"/>
			<point x="192.243" y="1100.094" type="curve" smooth="yes"/>
			<point x="242.111" y="1072.237"/>
			<point x="305.173" y="1060"/>
			<point x="363.033" y="1060" type="curve" smooth="yes"/>
			<point x="446.305" y="1060"/>
			<point x="554.104" y="1092.462"/>
			<point x="608.884" y="1154.594" type="curve"/>
			<point x="621.453" y="1107.083"/>
			<point x="658.531" y="1060"/>
			<point x="711.395" y="1060" type="curve" smooth="yes"/>
		</contour>
		<contour>
			<point x="363.033" y="1120.223" type="line"/>
			<point x="320.649" y="1120.223"/>
			<point x="281.48" y="1130.805"/>
			<point x="253.071" y="1152.496" type="curve" smooth="yes"/>
			<point x="222.407" y="1175.91"/>
			<point x="207.004" y="1213.355"/>
			<point x="206.711" y="1250.863" type="curve" smooth="yes"/>
			<point x="206.533" y="1273.672"/>
			<point x="211.942" y="1296.504"/>
			<point x="222.902" y="1316.22" type="curve" smooth="yes"/>
			<point x="251.968" y="1368.501"/>
			<point x="317.551" y="1371.816"/>
			<point x="370.377" y="1371.4" type="curve" smooth="yes"/>
			<point x="410.623" y="1371.082"/>
			<point x="451.005" y="1368.021"/>
			<point x="491.98" y="1368.021" type="curve" smooth="yes"/>
			<point x="526.934" y="1368.021"/>
			<point x="562.034" y="1370.078"/>
			<point x="595.666" y="1377.422" type="curve"/>
			<point x="595.666" y="1301.922" type="line" smooth="yes"/>
			<point x="595.666" y="1184.266"/>
			<point x="466.867" y="1120.223"/>
			<point x="363.033" y="1120.223" type="curve"/>
		</contour>
	</outline>
</glyph>
<glyph name="guillemotleft" format="2">
	<unicode hex="00AB"/>
	<advance height="2048" width="943"/>
	<outline>
		<contour>
			<point x="835" y="428" type="line" smooth="yes"/>
			<point x="855" y="410"/>
			<point x="835" y="391"/>
			<point x="815" y="384" type="curve" smooth="yes"/>
			<point x="792" y="376"/>
			<point x="755" y="378"/>
			<point x="736" y="395" type="curve" smooth="yes"/>
			<point x="422" y="690" type="line" smooth="yes"/>
			<point x="417" y="695"/>
			<point x="414" y="701"/>
			<point x="414" y="707" type="curve" smooth="yes"/>
			<point x="414" y="713"/>
			<point x="417" y="719"/>
			<point x="423" y="724" type="curve"/>
			<point x="736" y="1018" type="line" smooth="yes"/>
			<point x="755" y="1036"/>
			<point x="792" y="1037"/>
			<point x="815" y="1030" type="curve" smooth="yes"/>
			<point x="835" y="1023"/>
			<point x="855" y="1004"/>
			<point x="835" y="985" type="curve" smooth="yes"/>
			<point x="538" y="707" type="line"/>
		</contour>
		<contour>
			<point x="521" y="428" type="line" smooth="yes"/>
			<point x="541" y="410"/>
			<point x="521" y="391"/>
			<point x="501" y="384" type="curve" smooth="yes"/>
			<point x="478" y="376"/>
			<point x="441" y="378"/>
			<point x="422" y="395" type="curve" smooth="yes"/>
			<point x="108" y="690" type="line"/>
			<point x="103" y="696"/>
			<point x="100" y="701"/>
			<point x="100" y="707" type="curve" smooth="yes"/>
			<point x="100" y="713"/>
			<point x="103" y="719"/>
			<point x="109" y="724" type="curve"/>
			<point x="422" y="1018" type="line" smooth="yes"/>
			<point x="441" y="1036"/>
			<point x="478" y="1037"/>
			<point x="501" y="1030" type="curve" smooth="yes"/>
			<point x="521" y="1023"/>
			<point x="541" y="1004"/>
			<point x="521" y="985" type="curve" smooth="yes"/>
			<point x="224" y="707" type="line"/>
		</contour>
	</outline>
</glyph>
<glyph name="logicalnot" format="2">
	<unicode hex="00AC"/>
	<advance height="2048" width="948"/>
	<outline>
		<contour>
			<point x="181.499" y="346.782" type="line"/>
			<point x="136.489" y="346.782"/>
			<point x="100" y="367.202"/>
			<point x="100" y="392.391" type="curve" smooth="yes"/>
			<point x="100" y="417.58"/>
			<point x="136.489" y="438"/>
			<point x="181.499" y="438" type="curve" smooth="yes"/>
			<point x="766.501" y="438" type="line" smooth="yes"/>
			<point x="811.512" y="438"/>
			<point x="848" y="417.58"/>
			<point x="848" y="392.391" type="curve" smooth="yes"/>
			<point x="848" y="21.609" type="line" smooth="yes"/>
			<point x="848" y="-3.58"/>
			<point x="811.512" y="-23"/>
			<point x="766.501" y="-23" type="curve" smooth="yes"/>
			<point x="721.49" y="-23"/>
			<point x="685.002" y="-3.58"/>
			<point x="685.002" y="21.609" type="curve" smooth="yes"/>
			<point x="685.002" y="346.782" type="line"/>
			<point x="181.499" y="346.782" type="line"/>
		</contour>
	</outline>
</glyph>
<glyph name="registered" format="2">
  <advance height="2048" width="1308.0"/>
  <unicode hex="00AE"/>
  <outline>
    <contour>
      <point x="654.0" y="-24.0" type="curve" smooth="yes"/>
      <point x="955.0" y="-24.0"/>
      <point x="1208.0" y="166.0"/>
      <point x="1208.0" y="488.0" type="curve" smooth="yes"/>
      <point x="1208.0" y="810.0"/>
      <point x="955.0" y="1000.0"/>
      <point x="654.0" y="1000.0" type="curve" smooth="yes"/>
      <point x="353.0" y="1000.0"/>
      <point x="100.0" y="810.0"/>
      <point x="100.0" y="488.0" type="curve" smooth="yes"/>
      <point x="100.0" y="166.0"/>
      <point x="353.0" y="-24.0"/>
    </contour>
    <contour>
      <point x="654.0" y="50.0" type="curve" smooth="yes"/>
      <point x="404.0" y="50.0"/>
      <point x="233.0" y="237.0"/>
      <point x="233.0" y="488.0" type="curve" smooth="yes"/>
      <point x="233.0" y="739.0"/>
      <point x="404.0" y="926.0"/>
      <point x="654.0" y="926.0" type="curve" smooth="yes"/>
      <point x="904.0" y="926.0"/>
      <point x="1075.0" y="739.0"/>
      <point x="1075.0" y="488.0" type="curve" smooth="yes"/>
      <point x="1075.0" y="237.0"/>
      <point x="904.0" y="50.0"/>
    </contour>
    <contour>
      <point x="883.0" y="183.0" type="curve" smooth="yes"/>
      <point x="895.0" y="183.0"/>
      <point x="906.0" y="186.0"/>
      <point x="915.0" y="191.0" type="curve"/>
      <point x="923.0" y="196.0"/>
      <point x="926.0" y="202.0"/>
      <point x="926.0" y="208.0" type="curve" smooth="yes"/>
      <point x="926.0" y="215.0"/>
      <point x="921.0" y="222.0"/>
      <point x="912.0" y="226.0" type="curve" smooth="yes"/>
      <point x="863.0" y="250.0"/>
      <point x="838.0" y="310.0"/>
      <point x="817.0" y="356.0" type="curve" smooth="yes"/>
      <point x="799.0" y="396.0"/>
      <point x="779.0" y="439.0"/>
      <point x="746.0" y="469.0" type="curve"/>
      <point x="825.0" y="485.0"/>
      <point x="895.0" y="545.0"/>
      <point x="895.0" y="629.0" type="curve" smooth="yes"/>
      <point x="895.0" y="731.0"/>
      <point x="796.0" y="793.0"/>
      <point x="700.0" y="793.0" type="curve" smooth="yes"/>
      <point x="426.0" y="793.0" type="line" smooth="yes"/>
      <point x="412.0" y="793.0"/>
      <point x="382.0" y="787.0"/>
      <point x="382.0" y="768.0" type="curve" smooth="yes"/>
      <point x="382.0" y="208.0" type="line" smooth="yes"/>
      <point x="382.0" y="189.0"/>
      <point x="412.0" y="183.0"/>
      <point x="426.0" y="183.0" type="curve" smooth="yes"/>
      <point x="441.0" y="183.0"/>
      <point x="471.0" y="189.0"/>
      <point x="471.0" y="208.0" type="curve" smooth="yes"/>
      <point x="471.0" y="465.0" type="line"/>
      <point x="621.0" y="465.0" type="line" smooth="yes"/>
      <point x="681.0" y="465.0"/>
      <point x="710.0" y="389.0"/>
      <point x="730.0" y="344.0" type="curve" smooth="yes"/>
      <point x="757.0" y="285.0"/>
      <point x="784.0" y="223.0"/>
      <point x="852.0" y="190.0" type="curve" smooth="yes"/>
      <point x="861.0" y="186.0"/>
      <point x="872.0" y="183.0"/>
    </contour>
    <contour>
      <point x="700.0" y="514.0" type="curve" smooth="yes"/>
      <point x="471.0" y="514.0" type="line"/>
      <point x="471.0" y="744.0" type="line"/>
      <point x="700.0" y="744.0" type="line" smooth="yes"/>
      <point x="759.0" y="744.0"/>
      <point x="805.0" y="685.0"/>
      <point x="805.0" y="629.0" type="curve" smooth="yes"/>
      <point x="805.0" y="573.0"/>
      <point x="759.0" y="514.0"/>
    </contour>
  </outline>
</glyph>
<glyph name="degree" format="2">
  <advance height="2048" width="593.0"/>
  <unicode hex="00B0"/>
  <outline>
    <contour>
      <point x="593.0" y="1347.0" type="curve" smooth="yes"/>
      <point x="593.0" y="1518.0"/>
      <point x="455.0" y="1615.0"/>
      <point x="297.0" y="1615.0" type="curve" smooth="yes"/>
      <point x="138.0" y="1615.0"/>
      <point x="0.0" y="1518.0"/>
      <point x="0.0" y="1347.0" type="curve" smooth="yes"/>
      <point x="0.0" y="1177.0"/>
      <point x="138.0" y="1080.0"/>
      <point x="297.0" y="1080.0" type="curve" smooth="yes"/>
      <point x="455.0" y="1080.0"/>
      <point x="593.0" y="1177.0"/>
    </contour>
    <contour>
      <point x="460.0" y="1347.0" type="curve" smooth="yes"/>
      <point x="460.0" y="1250.0"/>
      <point x="401.0" y="1155.0"/>
      <point x="297.0" y="1155.0" type="curve" smooth="yes"/>
      <point x="192.0" y="1155.0"/>
      <point x="133.0" y="1250.0"/>
      <point x="133.0" y="1347.0" type="curve" smooth="yes"/>
      <point x="133.0" y="1445.0"/>
      <point x="192.0" y="1540.0"/>
      <point x="297.0" y="1540.0" type="curve" smooth="yes"/>
      <point x="401.0" y="1540.0"/>
      <point x="460.0" y="1445.0"/>
    </contour>
  </outline>
</glyph>
<glyph name="plusminus" format="2">
	<unicode hex="00B1"/>
	<advance height="2048" width="1050"/>
	<outline>
		<contour>
			<point x="181.5" y="529.221" type="curve" smooth="yes"/>
			<point x="443.5" y="529.221" type="line"/>
			<point x="443.5" y="195.361" type="line" smooth="yes"/>
			<point x="443.5" y="170.155"/>
			<point x="479.989" y="149.721"/>
			<point x="525" y="149.721" type="curve" smooth="yes"/>
			<point x="570.011" y="149.721"/>
			<point x="606.5" y="170.155"/>
			<point x="606.5" y="195.361" type="curve" smooth="yes"/>
			<point x="606.5" y="529.221" type="line"/>
			<point x="868.5" y="529.221" type="line" smooth="yes"/>
			<point x="913.511" y="529.221"/>
			<point x="950" y="549.655"/>
			<point x="950" y="574.861" type="curve" smooth="yes"/>
			<point x="950" y="600.067"/>
			<point x="913.511" y="620.501"/>
			<point x="868.5" y="620.501" type="curve" smooth="yes"/>
			<point x="606.5" y="620.501" type="line"/>
			<point x="606.5" y="954.36" type="line" smooth="yes"/>
			<point x="606.5" y="979.566"/>
			<point x="570.011" y="1000"/>
			<point x="525" y="1000" type="curve" smooth="yes"/>
			<point x="479.989" y="1000"/>
			<point x="443.5" y="979.566"/>
			<point x="443.5" y="954.36" type="curve" smooth="yes"/>
			<point x="443.5" y="620.501" type="line"/>
			<point x="181.5" y="620.501" type="line" smooth="yes"/>
			<point x="136.489" y="620.501"/>
			<point x="100" y="600.067"/>
			<point x="100" y="574.861" type="curve" smooth="yes"/>
			<point x="100" y="549.655"/>
			<point x="136.49" y="529.221"/>
		</contour>
		<contour>
			<point x="181.5" y="-23.999" type="curve" smooth="yes"/>
			<point x="868.5" y="-23.999" type="line" smooth="yes"/>
			<point x="913.509" y="-23.999"/>
			<point x="950" y="-3.565"/>
			<point x="950" y="21.641" type="curve" smooth="yes"/>
			<point x="950" y="46.847"/>
			<point x="913.51" y="67.281"/>
			<point x="868.5" y="67.281" type="curve" smooth="yes"/>
			<point x="181.5" y="67.281" type="line" smooth="yes"/>
			<point x="136.49" y="67.281"/>
			<point x="100" y="46.847"/>
			<point x="100" y="21.641" type="curve" smooth="yes"/>
			<point x="100" y="-3.565"/>
			<point x="136.493" y="-23.999"/>
		</contour>
	</outline>
</glyph>
<glyph name="two_super" format="2">
  <advance height="2048" width="453.0"/>
  <unicode hex="00B2"/>
  <outline>
    <contour>
      <point x="398.0" y="1000.0" type="line" smooth="yes"/>
      <point x="414.0" y="1000.0"/>
      <point x="450.0" y="1008.0"/>
      <point x="450.0" y="1030.0" type="curve" smooth="yes"/>
      <point x="450.0" y="1051.0"/>
      <point x="414.0" y="1059.0"/>
      <point x="398.0" y="1059.0" type="curve" smooth="yes"/>
      <point x="106.0" y="1059.0" type="line"/>
      <point x="108.0" y="1092.0"/>
      <point x="114.0" y="1128.0"/>
      <point x="131.0" y="1157.0" type="curve" smooth="yes"/>
      <point x="153.0" y="1194.0"/>
      <point x="194.0" y="1212.0"/>
      <point x="231.0" y="1230.0" type="curve" smooth="yes"/>
      <point x="274.0" y="1251.0"/>
      <point x="322.0" y="1275.0"/>
      <point x="363.0" y="1306.0" type="curve" smooth="yes"/>
      <point x="414.0" y="1345.0"/>
      <point x="453.0" y="1393.0"/>
      <point x="453.0" y="1460.0" type="curve" smooth="yes"/>
      <point x="453.0" y="1503.0"/>
      <point x="438.0" y="1546.0"/>
      <point x="410.0" y="1578.0" type="curve" smooth="yes"/>
      <point x="367.0" y="1628.0"/>
      <point x="298.0" y="1653.0"/>
      <point x="229.0" y="1653.0" type="curve" smooth="yes"/>
      <point x="184.0" y="1653.0"/>
      <point x="138.0" y="1645.0"/>
      <point x="98.0" y="1623.0" type="curve" smooth="yes"/>
      <point x="45.0" y="1594.0"/>
      <point x="3.0" y="1530.0"/>
      <point x="3.0" y="1468.0" type="curve" smooth="yes"/>
      <point x="3.0" y="1462.0"/>
      <point x="3.0" y="1455.0"/>
      <point x="4.0" y="1449.0" type="curve" smooth="yes"/>
      <point x="8.0" y="1429.0"/>
      <point x="39.0" y="1423.0"/>
      <point x="57.0" y="1423.0" type="curve" smooth="yes"/>
      <point x="74.0" y="1423.0"/>
      <point x="109.0" y="1431.0"/>
      <point x="109.0" y="1452.0" type="curve" smooth="yes"/>
      <point x="109.0" y="1461.0" type="line" smooth="yes"/>
      <point x="109.0" y="1502.0"/>
      <point x="123.0" y="1545.0"/>
      <point x="157.0" y="1571.0" type="curve" smooth="yes"/>
      <point x="178.0" y="1588.0"/>
      <point x="202.0" y="1594.0"/>
      <point x="229.0" y="1594.0" type="curve" smooth="yes"/>
      <point x="267.0" y="1594.0"/>
      <point x="300.0" y="1574.0"/>
      <point x="321.0" y="1544.0" type="curve" smooth="yes"/>
      <point x="339.0" y="1519.0"/>
      <point x="347.0" y="1495.0"/>
      <point x="347.0" y="1464.0" type="curve"/>
      <point x="346.0" y="1419.0"/>
      <point x="327.0" y="1385.0"/>
      <point x="298.0" y="1357.0" type="curve" smooth="yes"/>
      <point x="261.0" y="1322.0"/>
      <point x="208.0" y="1297.0"/>
      <point x="161.0" y="1274.0" type="curve" smooth="yes"/>
      <point x="110.0" y="1248.0"/>
      <point x="61.0" y="1227.0"/>
      <point x="31.0" y="1176.0" type="curve" smooth="yes"/>
      <point x="5.0" y="1132.0"/>
      <point x="0.0" y="1079.0"/>
      <point x="0.0" y="1030.0" type="curve" smooth="yes"/>
      <point x="0.0" y="1008.0"/>
      <point x="36.0" y="1000.0"/>
      <point x="52.0" y="1000.0" type="curve" smooth="yes"/>
    </contour>
  </outline>
</glyph>
<glyph name="three_super" format="2">
	<unicode hex="00B3"/>
	<advance height="2048" width="457"/>
	<outline>
		<contour>
			<point x="235" y="1000" type="curve" smooth="yes"/>
			<point x="349" y="1000"/>
			<point x="457" y="1069"/>
			<point x="457" y="1193" type="curve" smooth="yes"/>
			<point x="457" y="1265"/>
			<point x="419" y="1324"/>
			<point x="354" y="1356" type="curve"/>
			<point x="406" y="1386"/>
			<point x="439" y="1435"/>
			<point x="439" y="1496" type="curve" smooth="yes"/>
			<point x="439" y="1621"/>
			<point x="325" y="1677"/>
			<point x="214" y="1677" type="curve" smooth="yes"/>
			<point x="158" y="1676"/>
			<point x="100" y="1660"/>
			<point x="57" y="1622" type="curve" smooth="yes"/>
			<point x="19" y="1588"/>
			<point x="0" y="1542"/>
			<point x="0" y="1493" type="curve" smooth="yes"/>
			<point x="0" y="1488"/>
			<point x="0" y="1482"/>
			<point x="1" y="1477" type="curve"/>
			<point x="3" y="1452"/>
			<point x="34" y="1449"/>
			<point x="55" y="1449" type="curve" smooth="yes"/>
			<point x="73" y="1449"/>
			<point x="107" y="1457"/>
			<point x="107" y="1478" type="curve" smooth="yes"/>
			<point x="107" y="1489" type="line" smooth="yes"/>
			<point x="107" y="1522"/>
			<point x="116" y="1555"/>
			<point x="136" y="1580" type="curve" smooth="yes"/>
			<point x="155" y="1603"/>
			<point x="181" y="1617"/>
			<point x="211" y="1617" type="curve" smooth="yes"/>
			<point x="282" y="1617"/>
			<point x="333" y="1568"/>
			<point x="333" y="1496" type="curve" smooth="yes"/>
			<point x="333" y="1437"/>
			<point x="293" y="1394"/>
			<point x="236" y="1384" type="curve" smooth="yes"/>
			<point x="224" y="1382"/>
			<point x="213" y="1382"/>
			<point x="201" y="1381" type="curve" smooth="yes"/>
			<point x="184" y="1380"/>
			<point x="151" y="1372"/>
			<point x="151" y="1351" type="curve" smooth="yes"/>
			<point x="151" y="1329"/>
			<point x="187" y="1321"/>
			<point x="204" y="1321" type="curve" smooth="yes"/>
			<point x="235" y="1322" type="line" smooth="yes"/>
			<point x="306" y="1322"/>
			<point x="351" y="1261"/>
			<point x="351" y="1193" type="curve" smooth="yes"/>
			<point x="351" y="1126"/>
			<point x="308" y="1060"/>
			<point x="235" y="1060" type="curve" smooth="yes"/>
			<point x="155" y="1060"/>
			<point x="106" y="1115"/>
			<point x="106" y="1194" type="curve" smooth="yes"/>
			<point x="106" y="1216"/>
			<point x="70" y="1224"/>
			<point x="53" y="1224" type="curve" smooth="yes"/>
			<point x="36" y="1224"/>
			<point x="0" y="1216"/>
			<point x="0" y="1194" type="curve" smooth="yes"/>
			<point x="0" y="1061"/>
			<point x="115" y="1000"/>
		</contour>
	</outline>
</glyph>
<glyph name="acute" format="2">
	<unicode hex="00B4"/>
	<advance height="2048" width="569"/>
	<outline>
		<contour>
			<point x="547.24607" y="1371" type="curve" smooth="yes"/>
			<point x="167.246069" y="1091" type="line" smooth="yes"/>
			<point x="143.246069" y="1072"/>
			<point x="119.246069" y="1081"/>
			<point x="97.246069" y="1106" type="curve" smooth="yes"/>
			<point x="76.2460694" y="1131"/>
			<point x="71.2460694" y="1157"/>
			<point x="94.246069" y="1179" type="curve" smooth="yes"/>
			<point x="439.24607" y="1501" type="line" smooth="yes"/>
			<point x="471.24607" y="1531"/>
			<point x="517.24607" y="1509"/>
			<point x="544.24607" y="1474" type="curve" smooth="yes"/>
			<point x="570.24607" y="1440"/>
			<point x="580.24607" y="1395"/>
		</contour>
	</outline>
</glyph>
<glyph name="micro" format="2">
	<unicode hex="00B5"/>
	<advance height="2048" width="915"/>
	<outline>
		<contour>
			<point x="263.075" y="348.924" type="line"/>
			<point x="309.501" y="286.553"/>
			<point x="377.572" y="249.959"/>
			<point x="465.939" y="249.61" type="curve" smooth="yes"/>
			<point x="555.214" y="249.261"/>
			<point x="623.096" y="288.223"/>
			<point x="666.932" y="355.91" type="curve"/>
			<point x="666.932" y="296.555" type="line" smooth="yes"/>
			<point x="666.932" y="271.387"/>
			<point x="695.934" y="250.983"/>
			<point x="740.966" y="250.983" type="curve" smooth="yes"/>
			<point x="785.997" y="250.983"/>
			<point x="815" y="271.387"/>
			<point x="815" y="296.555" type="curve" smooth="yes"/>
			<point x="815" y="984.428" type="line" smooth="yes"/>
			<point x="815" y="1009.597"/>
			<point x="778.494" y="1030"/>
			<point x="733.462" y="1030" type="curve" smooth="yes"/>
			<point x="688.431" y="1030"/>
			<point x="651.925" y="1009.597"/>
			<point x="651.925" y="984.428" type="curve" smooth="yes"/>
			<point x="651.925" y="568.233" type="line"/>
			<point x="651.546" y="459.128"/>
			<point x="590.987" y="339.985"/>
			<point x="466.576" y="340.398" type="curve" smooth="yes"/>
			<point x="331.232" y="340.798"/>
			<point x="263.091" y="474.726"/>
			<point x="263.075" y="594.674" type="curve" smooth="yes"/>
			<point x="263.075" y="984.428" type="line" smooth="yes"/>
			<point x="263.075" y="1009.597"/>
			<point x="226.569" y="1030"/>
			<point x="181.537" y="1030" type="curve" smooth="yes"/>
			<point x="136.506" y="1030"/>
			<point x="99" y="1009.597"/>
			<point x="99" y="984.428" type="curve" smooth="yes"/>
			<point x="99" y="21.573" type="line" smooth="yes"/>
			<point x="99" y="-3.595"/>
			<point x="136.506" y="-23.999"/>
			<point x="181.537" y="-23.999" type="curve" smooth="yes"/>
			<point x="226.569" y="-23.999"/>
			<point x="263.075" y="-3.595"/>
			<point x="263.075" y="21.573" type="curve" smooth="yes"/>
			<point x="263.075" y="348.924" type="line"/>
		</contour>
	</outline>
</glyph>
<glyph name="paragraph" format="2">
  <advance height="2048" width="1051.0"/>
  <unicode hex="00B6"/>
  <outline>
    <contour>
      <point x="839.0" y="5.0" type="curve" smooth="yes"/>
      <point x="839.0" y="1290.0" type="line"/>
      <point x="870.0" y="1290.0" type="line" smooth="yes"/>
      <point x="915.0" y="1290.0"/>
      <point x="951.0" y="1310.0"/>
      <point x="951.0" y="1336.0" type="curve" smooth="yes"/>
      <point x="951.0" y="1361.0"/>
      <point x="915.0" y="1381.0"/>
      <point x="870.0" y="1381.0" type="curve" smooth="yes"/>
      <point x="385.0" y="1381.0" type="line" smooth="yes"/>
      <point x="227.0" y="1381.0"/>
      <point x="100.0" y="1248.0"/>
      <point x="100.0" y="1090.0" type="curve" smooth="yes"/>
      <point x="100.0" y="951.0"/>
      <point x="197.0" y="835.0"/>
      <point x="327.0" y="805.0" type="curve"/>
      <point x="327.0" y="5.0" type="line" smooth="yes"/>
      <point x="327.0" y="-11.0"/>
      <point x="352.0" y="-24.0"/>
      <point x="384.0" y="-24.0" type="curve" smooth="yes"/>
      <point x="416.0" y="-24.0"/>
      <point x="442.0" y="-11.0"/>
      <point x="442.0" y="5.0" type="curve" smooth="yes"/>
      <point x="442.0" y="1290.0" type="line"/>
      <point x="724.0" y="1290.0" type="line"/>
      <point x="724.0" y="5.0" type="line" smooth="yes"/>
      <point x="724.0" y="-11.0"/>
      <point x="749.0" y="-24.0"/>
      <point x="781.0" y="-24.0" type="curve" smooth="yes"/>
      <point x="813.0" y="-24.0"/>
      <point x="839.0" y="-11.0"/>
    </contour>
  </outline>
</glyph>
<glyph name="periodcentered" format="2">
	<unicode hex="00B7"/>
	<advance height="2048" width="415"/>
	<outline>
		<contour>
			<point x="207.5" y="665" type="curve" smooth="yes"/>
			<point x="148.129" y="665"/>
			<point x="100" y="616.871"/>
			<point x="100" y="557.5" type="curve" smooth="yes"/>
			<point x="100" y="498.129"/>
			<point x="148.129" y="450"/>
			<point x="207.5" y="450" type="curve" smooth="yes"/>
			<point x="266.871" y="450"/>
			<point x="315" y="498.129"/>
			<point x="315" y="557.5" type="curve" smooth="yes"/>
			<point x="315" y="616.871"/>
			<point x="266.871" y="665"/>
		</contour>
	</outline>
</glyph>
